<?xml version="1.0" encoding="utf-8"?>
<!-- Generator: Adobe Illustrator 16.0.0, SVG Export Plug-In . SVG Version: 6.00 Build 0)  -->
<!DOCTYPE svg PUBLIC "-//W3C//DTD SVG 1.1//EN" "http://www.w3.org/Graphics/SVG/1.1/DTD/svg11.dtd">
<svg version="1.1" id="Layer_1" xmlns="http://www.w3.org/2000/svg" xmlns:xlink="http://www.w3.org/1999/xlink" x="0px" y="0px"
	 width="70px" height="70px" viewBox="0 0 70 70" enable-background="new 0 0 70 70" xml:space="preserve" fill="#fff">
<path fill-rule="evenodd" clip-rule="evenodd" d="M39.018,35L69.209,4.811c1.077-1.077,1.049-2.85-0.058-3.959
	c-1.111-1.112-2.884-1.137-3.962-0.06L35,30.982L4.81,0.792C3.733-0.285,1.96-0.26,0.848,0.852
	c-1.106,1.109-1.134,2.882-0.057,3.959L30.982,35L0.791,65.191c-1.077,1.077-1.049,2.851,0.057,3.956
	c1.112,1.111,2.885,1.141,3.962,0.057L35,39.017l30.189,30.188c1.078,1.084,2.851,1.055,3.962-0.057
	c1.106-1.105,1.135-2.879,0.058-3.956L39.018,35z"/>
</svg>
