<?xml version="1.0" encoding="utf-8"?>
<!-- Generator: Adobe Illustrator 16.0.0, SVG Export Plug-In . SVG Version: 6.00 Build 0)  -->
<!DOCTYPE svg PUBLIC "-//W3C//DTD SVG 1.1//EN" "http://www.w3.org/Graphics/SVG/1.1/DTD/svg11.dtd">
<svg version="1.1" id="Layer_1" xmlns="http://www.w3.org/2000/svg" xmlns:xlink="http://www.w3.org/1999/xlink" x="0px" y="0px"
	 width="70px" height="70px" viewBox="0 0 70 70" enable-background="new 0 0 70 70" xml:space="preserve">
<g>
	<path fill="#fff" d="M65.272,52.5c-3.153,5.363-7.409,9.619-12.772,12.772S41.303,70,35,70c-6.302,0-12.137-1.574-17.5-4.728
		S7.881,57.863,4.728,52.5S0,41.307,0,35c0-6.305,1.575-12.137,4.728-17.5S12.137,7.879,17.5,4.728C22.863,1.577,28.698,0,35,0
		c6.303,0,12.137,1.577,17.5,4.728c5.363,3.151,9.619,7.409,12.772,12.772S70,28.695,70,35C70,41.307,68.426,47.137,65.272,52.5z
		 M63.932,18.276c-3.013-5.127-7.079-9.198-12.208-12.208C46.595,3.059,41.021,1.552,35,1.552c-6.02,0-11.595,1.506-16.724,4.516
		c-5.129,3.01-9.196,7.081-12.208,12.208S1.552,28.978,1.552,35c0,6.024,1.504,11.599,4.516,16.724s7.079,9.2,12.208,12.208
		C23.405,66.943,28.98,68.447,35,68.447c6.021,0,11.595-1.504,16.724-4.516c5.129-3.008,9.195-7.083,12.208-12.208
		c3.012-5.125,4.516-10.699,4.516-16.724C68.447,28.978,66.943,23.403,63.932,18.276z M21.875,61.956
		c-5.081-2.443-9.173-6.096-12.278-10.938C6.492,46.176,4.939,40.83,4.939,35c0-4.234,0.896-8.327,2.682-12.278L21.875,61.956z
		 M54.476,28.649c-0.375-0.942-0.939-2.071-1.693-3.387L52.5,24.698c-0.939-1.506-1.553-2.587-1.835-3.246
		c-0.564-1.129-0.847-2.212-0.847-3.246c0-1.411,0.494-2.657,1.482-3.74c0.987-1.083,2.188-1.623,3.599-1.623h0.423
		c-2.729-2.445-5.835-4.375-9.314-5.786C42.528,5.645,38.859,4.939,35,4.939c-5.173,0-9.972,1.224-14.395,3.669
		c-4.424,2.445-7.996,5.74-10.726,9.879h1.976c1.318,0,3.056-0.046,5.222-0.141l2.823-0.141c0.472-0.095,0.825,0.071,1.058,0.494
		c0.234,0.423,0.26,0.847,0.071,1.27c-0.19,0.423-0.516,0.635-0.988,0.635l-3.387,0.282L27.52,53.488l6.633-19.758l-4.657-12.843
		c-1.129,0-2.209-0.095-3.246-0.282c-0.472,0-0.798-0.212-0.988-0.635c-0.19-0.423-0.163-0.847,0.07-1.27
		c0.234-0.423,0.635-0.589,1.2-0.494l2.823,0.141c2.166,0.095,3.881,0.141,5.151,0.141c1.271,0,2.941-0.046,5.011-0.141l2.822-0.141
		c0.564-0.095,0.966,0.071,1.199,0.494c0.234,0.423,0.261,0.847,0.07,1.27c-0.189,0.423-0.516,0.635-0.987,0.635l-3.388,0.282
		L49.96,53.206l3.387-11.009c0.657-2.258,1.129-3.854,1.411-4.798c0.375-1.509,0.564-2.823,0.564-3.952
		C55.322,31.849,55.04,30.248,54.476,28.649z M26.532,63.79c2.823,0.847,5.645,1.271,8.468,1.271c3.387,0,6.726-0.564,10.021-1.693
		l-0.282-0.424l-9.174-25.262L26.532,63.79z M61.532,23.709c0,3.387-0.754,6.962-2.258,10.726l-9.174,26.532
		c4.517-2.638,8.137-6.254,10.867-10.867c2.729-4.613,4.093-9.641,4.093-15.101c0-5.175-1.222-9.974-3.669-14.395
		C61.483,21.546,61.532,22.581,61.532,23.709z"/>
</g>
</svg>
