<svg version="1.1" xmlns="http://www.w3.org/2000/svg" viewBox="0 0 1920 192" preserveAspectRatio="none">
<path opacity="0.2" enable-background="new    " d="M1729.7,124.1c-50.5,0-93.7-21.5-110.8-51.5c-7.3,1.2-15,1.9-22.8,1.9
	c-14,0-27.3-1.9-39.2-5.8c-8.6,18.4-34,31.5-64.1,31.5c-7.9,0-15.4-0.8-22.3-2.7c-23,18-57.2,29.6-95.2,29.6
	c-42.6,0-80.2-14.2-102.9-36.1c-6.7,1.2-13.8,1.5-21.1,1.5c-32.3,0-60.5-11.1-77.2-27.6c-11.3,5.8-25.7,9.6-41.3,9.6
	c-14.6,0-28-3.1-39.2-8.4c-21.3,35.7-73.5,61-134.4,61c-63.5,0-117.7-27.6-137.1-66c-2.9,0.4-5.6,0.4-8.4,0.4
	c-11.3,0-21.9-1.5-31.5-4.6c-19.6,21.5-54.7,35.7-94.8,35.7c-12.1,0-23.8-1.2-34.7-3.8c-22.3,23.4-61.4,39.2-106.2,39.2
	c-32.4,0-62-8.4-84.3-21.9c-3.8,0.4-7.7,0.4-11.7,0.4c-39,0-73.9-11.9-97-30.7c-13.4,3.8-28.2,6.1-43.8,6.1c-2.3,0-4.6,0-6.7,0
	c-13.6,24.6-48.8,42.2-90,42.2c-41.1,0-76-17.3-89.8-41.9c-10.6,4.6-23,7.3-36.7,7.3c-6.7,0-13.2-0.8-19.4-1.9
	c-2.3,20-24,36.5-52.4,40.7H0.2v63.4H1920v-67.2c-35.5-6.1-67-19.2-91-36.9C1807.9,109.5,1771.2,124.1,1729.7,124.1z"/>
<path opacity="0.5" enable-background="new    " d="M1808.8,139.1c-12.9,0-24.8-2.3-34.9-6.5c-23.6,16.5-57,27.3-93.9,27.3
	c-40.9,0-77.4-12.7-101-32.6c-3.3,0.4-6.7,0.4-10.2,0.4c-21.5,0-41.7-4.2-58.6-11.5c-17.1,11.1-40.5,18-66.2,18
	c-50.7,0-92.2-26.5-95-60.3h-26.3c2.5,4.6,3.8,9.6,3.8,15c0,25-30.1,45.3-67.2,45.3c-10.8,0-20.9-1.5-29.9-4.6
	c-26.3,18-63,29.6-103.7,29.6c-44.3,0-84.1-13.4-110.6-34.6c-27.5-1.2-51.6-10.4-67.6-24.2c-22.7,33.8-73.3,57.6-132.3,57.6
	c-52.6,0-98.7-18.8-124-47.2c-13.6,8.4-31.9,13.8-51.8,13.8c-38.4,0-70.1-19.2-75.3-43.8c-13.1,31.5-56.1,54.9-107.1,54.9
	c-15.6,0-30.3-2.3-43.8-6.1c-23,18.8-58,30.7-97,30.7c-30.3,0-58-7.3-79.7-19.2c-13.6,6.1-29.9,9.6-47.4,9.6
	c-34.9,0-65.1-13.8-78.7-34.2c-11.1,2.7-23.2,3.8-35.7,3.8c-2.1,0-4,0-6.1,0C55.5,137.9,30.3,151,0.6,154.8L0.2-192.3v384H1920
	v-49.5c-24.4-0.4-46.8-6.5-64.5-16.1C1843.6,134.1,1826.9,139.1,1808.8,139.1z"/>
<g>
	<path d="M0,160h0.2V73.6L0,160z"/>
	<path d="M1852.4,145.8c-9.4,5.4-21.5,8.4-34.7,8.4c-8.1,0-15.9-1.2-22.8-3.5c-11.9,15-35.1,25-62,25c-14.4,0-28-3.1-39.2-8.1
		c-9.8,2.3-20.3,3.8-31.3,3.8c-16.9,0-32.8-3.1-46.5-8.4c-21.1,10.8-47.4,17.3-75.8,17.3c-41.1,0-77.6-13.4-100.6-33.8
		c-8.4,1.2-17.1,1.5-25.9,1.5c-27.5,0-53.2-5-75.3-14.2c-12.3,8.8-29.6,14.2-48.8,14.2c-1.5,0-2.9,0-4.4,0
		c-12.1,25.7-47.8,44.2-90,44.2H1920v-31.5c-2.1,0-4.2,0-6.3,0C1890.4,160.8,1869.1,155,1852.4,145.8z"/>
	<path d="M1037.5,190.3c-39.9,0-76-10.8-102.1-28.4c-14.6,6.5-31.9,10-50.7,10c-19.6,0-37.6-4.2-52.6-11.1
		c-26.3,18.8-63.7,30.3-105,30.3c-50.5,0-94.8-17.3-120.8-43.8c-17.3,10-39.5,15.7-63.9,15.7c-29,0-55.1-8.4-73.1-21.9
		c-24.6,13.1-55.5,20.7-89.1,20.7c-8.6,0-17.1-0.4-25.1-1.5c-14,11.9-35.9,19.6-60.5,19.6c-26.9,0-50.7-9.2-64.3-23.4
		c-13.4,3.8-28.2,6.1-43.8,6.1c-18,0-35.1-3.1-50.1-8.1c-20.5,10.8-46.1,16.9-73.9,16.9c-22.8,0-44-4.2-62.2-11.5v32.3h1194.9
		c-28.2,0-53.6-8.4-70.8-21.5C1100.2,182.9,1070.1,190.3,1037.5,190.3z"/>
</g>
</svg>
