<svg version="1.1" xmlns="http://www.w3.org/2000/svg" viewBox="0 0 1920 192" preserveAspectRatio="none">
<path opacity="0.2" enable-background="new    " d="M1920,0v87c-15.7-6.1-128.1-14.6-295.3,6.1c-158.2,19.2-269.8,69.9-472.5,71.4
	C847.9,166.8,720.4,39.3,520.5,24.7C158.6-2.9,0,58.5,0,58.5V192h1920V0L1920,0z"/>
<path d="M1050,147.6C479.4,278.2,0,79.3,0,79.3V192h1920v-49C1895,133.8,1645.4,12.5,1050,147.6z"/>
<path opacity="0.5" enable-background="new    " d="M978,118.4C411.5,211.4,0,79.3,0,79.3V192h1920v-69.7
	C1895,113.8,1585.2,19.4,978,118.4z"/>
</svg>
