<svg version="1.1" xmlns="http://www.w3.org/2000/svg" viewBox="0 0 1920 192" preserveAspectRatio="none">
<path opacity="0.2" enable-background="new    " d="M1152.2,164.5c202.8-1.5,314.3-52.2,472.5-71.4c167.2-20.7,279.6-12.3,295.3-6.1
	V0H0v58.6c0,0,158.6-61.4,520.5-33.8C720.4,39.3,847.9,166.8,1152.2,164.5z"/>
<path opacity="0.5" enable-background="new    " d="M1050,147.6c595.4-135.2,845-13.8,870-4.6V0H0v79.3
	C0,79.3,479.4,278.2,1050,147.6z"/>
<path d="M978,118.4c607.1-99.1,917-4.6,942,3.8V0H0v79.3C0,79.3,411.5,211.4,978,118.4z"/>
</svg>
