<svg version="1.1" xmlns="http://www.w3.org/2000/svg" viewBox="0 0 1920 192" preserveAspectRatio="none">
<g opacity="0.2">
	<path d="M1920,192V35.3C1619.7,49.5,1296.6,192,960,192H1920z"/>
	<path d="M0,192h960C623.4,192,300.3,49.5,0,35.3V192z"/>
</g>
<g opacity="0.5">
	<path d="M1920,192V78c-300.3,14.2-623.4,114-960,114H1920z"/>
	<path d="M0,192h960C623.4,192,300.3,92.2,0,78V192z"/>
</g>
<path d="M1920,192v-72.6c-300.3,14.2-623.4,72.6-960,72.6H1920z"/>
<path d="M0,192h960c-336.6,0-659.7-58.4-960-72.6V192z"/>
</svg>
