<svg version="1.1" xmlns="http://www.w3.org/2000/svg" viewBox="0 0 1000 100" preserveAspectRatio="none">
<path opacity="0.2" d="M900.9,82.4c-26.3,0-48.8-5.6-57.7-13.4c-3.8,0.3-7.8,0.5-11.9,0.5
	c-7.3,0-14.2-0.5-20.4-1.5c-4.5,4.8-17.7,8.2-33.4,8.2c-4.1,0-8-0.2-11.6-0.7c-12,4.7-29.8,7.7-49.6,7.7c-22.2,0-41.8-3.7-53.6-9.4
	c-3.5,0.3-7.2,0.4-11,0.4c-16.8,0-31.5-2.9-40.2-7.2c-5.9,1.5-13.4,2.5-21.5,2.5c-7.6,0-14.6-0.8-20.4-2.2
	c-11.1,9.3-38.3,15.9-70,15.9c-33.1,0-61.3-7.2-71.4-17.2c-1.5,0.1-2.9,0.1-4.4,0.1c-5.9,0-11.4-0.4-16.4-1.2
	c-10.2,5.6-28.5,9.3-49.4,9.3c-6.3,0-12.4-0.3-18.1-1c-11.6,6.1-32,10.2-55.3,10.2c-16.9,0-32.3-2.2-43.9-5.7c-2,0.1-4,0.1-6.1,0.1
	c-20.3,0-38.5-3.1-50.5-8c-7,1-14.7,1.6-22.8,1.6c-1.2,0-2.4,0-3.5,0c-7.1,6.4-25.4,11-46.9,11c-21.4,0-39.6-4.5-46.8-10.9
	c-5.5,1.2-12,1.9-19.1,1.9c-3.5,0-6.9-0.2-10.1-0.5c-1.2,5.2-12.5,9.5-27.3,10.6H0L0,100h1000V82.5c-18.5-1.6-34.9-5-47.4-9.6
	C941.6,78.6,922.5,82.4,900.9,82.4z"/>
<path opacity="0.5" d="M942.1,86.3c-6.7,0-12.9-0.6-18.2-1.7c-12.3,4.3-29.7,7.1-48.9,7.1
	c-21.3,0-40.3-3.3-52.6-8.5c-1.7,0.1-3.5,0.1-5.3,0.1c-11.2,0-21.7-1.1-30.5-3c-8.9,2.9-21.1,4.7-34.5,4.7c-26.4,0-48-6.9-49.5-15.7
	h-13.7c1.3,1.2,2,2.5,2,3.9c0,6.5-15.7,11.8-35,11.8c-5.6,0-10.9-0.4-15.6-1.2c-13.7,4.7-32.8,7.7-54,7.7c-23.1,0-43.8-3.5-57.6-9
	c-14.3-0.3-26.9-2.7-35.2-6.3c-11.8,8.8-38.2,15-68.9,15c-27.4,0-51.4-4.9-64.6-12.3c-7.1,2.2-16.6,3.6-27,3.6
	c-20,0-36.5-5-39.2-11.4c-6.8,8.2-29.2,14.3-55.8,14.3c-8.1,0-15.8-0.6-22.8-1.6c-12,4.9-30.2,8-50.5,8c-15.8,0-30.2-1.9-41.5-5
	c-7.1,1.6-15.6,2.5-24.7,2.5c-18.2,0-33.9-3.6-41-8.9c-5.8,0.7-12.1,1-18.6,1c-1.1,0-2.1,0-3.2,0c-6.9,4.6-20,8-35.5,9L0,0l0,100
	h1000V87.1c-12.7-0.1-24.4-1.7-33.6-4.2C960.2,85,951.5,86.3,942.1,86.3z"/>
<g>
	<path d="M-0.1,91.6c0,0,0.1,0,0.1,0l0-22.5L-0.1,91.6z"/>
	<path d="M964.8,87.9c-4.9,1.4-11.2,2.2-18.1,2.2c-4.2,0-8.3-0.3-11.9-0.9
		c-6.2,3.9-18.3,6.5-32.3,6.5c-7.5,0-14.6-0.8-20.4-2.1c-5.1,0.6-10.6,1-16.3,1c-8.8,0-17.1-0.8-24.2-2.2c-11,2.8-24.7,4.5-39.5,4.5
		c-21.4,0-40.4-3.5-52.4-8.8c-4.4,0.3-8.9,0.4-13.5,0.4c-14.3,0-27.7-1.3-39.2-3.7c-6.4,2.3-15.4,3.7-25.4,3.7c-0.8,0-1.5,0-2.3,0
		c-6.3,6.7-24.9,11.5-46.9,11.5H1000v-8.2c-1.1,0-2.2,0-3.3,0C984.6,91.8,973.4,90.3,964.8,87.9z"/>
	<path d="M540.3,99.5c-20.8,0-39.6-2.8-53.2-7.4c-7.6,1.7-16.6,2.6-26.4,2.6
		c-10.2,0-19.6-1.1-27.4-2.9c-13.7,4.9-33.2,7.9-54.7,7.9c-26.3,0-49.4-4.5-62.9-11.4c-9,2.6-20.6,4.1-33.3,4.1
		c-15.1,0-28.7-2.2-38.1-5.7c-12.8,3.4-28.9,5.4-46.4,5.4c-4.5,0-8.9-0.1-13.1-0.4c-7.3,3.1-18.7,5.1-31.5,5.1
		c-14,0-26.4-2.4-33.5-6.1c-7,1-14.7,1.6-22.8,1.6c-9.4,0-18.3-0.8-26.1-2.1c-10.7,2.8-24,4.4-38.5,4.4c-11.9,0-22.9-1.1-32.4-3
		l0,8.4h622.4c-14.7,0-27.9-2.2-36.9-5.6C572.9,97.6,557.3,99.5,540.3,99.5z"/>
</g>
</svg>