<svg version="1.1" xmlns="http://www.w3.org/2000/svg" viewBox="0 0 1000 100" preserveAspectRatio="none">
<path opacity="0.2" enable-background="new    " d="M1000,0v86.3c-8.2-0.8-66.7-1.9-153.8,0.8c-82.4,2.5-140.5,9.1-246.1,9.3
	c-158.5,0.3-224.9-16.3-329-18.2C82.6,74.6,0,82.6,0,82.6L0,100h1000V0L1000,0z"/>
<path d="M546.9,94.2C249.7,111.2,0,85.3,0,85.3L0,100h1000v-6.4C987,92.4,857,76.6,546.9,94.2z"/>
<path opacity="0.5" enable-background="new    " d="M509.4,90.4C214.3,102.5,0,85.3,0,85.3L0,100h1000v-9.1
	C987,89.8,825.6,77.5,509.4,90.4z"/>
</svg>