<svg version="1.1" xmlns="http://www.w3.org/2000/svg" viewBox="0 0 1000 100" preserveAspectRatio="none">
<g opacity="0.2">
	<path d="M1000,100V59.2C843.6,62.9,675.3,100,500,100H1000z"/>
	<path d="M0,100h500C324.7,100,156.4,62.9,0,59.2L0,100z"/>
</g>
<g opacity="0.5">
	<path d="M1000,100V70.3C843.6,74,675.3,100,500,100H1000z"/>
	<path d="M0,100h500C324.7,100,156.4,74,0,70.3L0,100z"/>
</g>
<path d="M1000,100V81.1C843.6,84.8,675.3,100,500,100H1000z"/>
<path d="M0,100h500C324.7,100,156.4,84.8,0,81.1L0,100z"/>
</svg>