<svg version="1.1" xmlns="http://www.w3.org/2000/svg" xmlns:xlink="http://www.w3.org/1999/xlink" x="0px" y="0px"
	 viewBox="0 0 80 80" enable-background="new 0 0 80 80" xml:space="preserve">
<path d="M40.1,0C18,0,0,18,0,40.1c0,22.1,18,40.1,40.1,40.1s40.1-18,40.1-40.1C80.2,18,62.2,0,40.1,0z M22.7,45.7
	c-3.1,0-5.6-2.5-5.6-5.6c0-3.1,2.5-5.6,5.6-5.6s5.6,2.5,5.6,5.6C28.3,43.2,25.8,45.7,22.7,45.7z M39.7,45.7c-3.1,0-5.6-2.5-5.6-5.6
	c0-3.1,2.5-5.6,5.6-5.6c3.1,0,5.6,2.5,5.6,5.6C45.4,43.2,42.8,45.7,39.7,45.7z M56.8,45.7c-3.1,0-5.6-2.5-5.6-5.6
	c0-3.1,2.5-5.6,5.6-5.6c3.1,0,5.6,2.5,5.6,5.6C62.4,43.2,59.9,45.7,56.8,45.7z"/>
</svg>
