<svg version="1.1" xmlns="http://www.w3.org/2000/svg" xmlns:xlink="http://www.w3.org/1999/xlink" x="0px" y="0px"
	 viewBox="0 0 70 70" enable-background="new 0 0 70 70" xml:space="preserve">
<g>
	<path d="M66.7,32.8l-11-4.9L36.2,38.1c-1.2,0.7-3.2,0.7-4.4,0L13.5,27.9L3.2,32.8C2,33.4,2,35,3.2,35.7l28.6,16
		c1.2,0.7,3.2,0.7,4.4,0l30.7-16C68,35,68,33.4,66.7,32.8z"/>
	<path d="M66.7,50.7l-11-4.9L36.2,56c-1.2,0.7-3.2,0.7-4.4,0L13.5,45.8L3.2,50.7c-1.2,0.6-1.2,2.2,0,2.9l28.6,16
		c1.2,0.7,3.2,0.7,4.4,0l30.7-16C68,52.9,68,51.2,66.7,50.7z"/>
	<path d="M36.2,0.4c-1.3-0.6-3.2-0.5-4.4,0.1L3.2,15c-1.2,0.6-1.2,1.7,0,2.3l28.6,16.5c1.2,0.7,3.2,0.7,4.4,0l30.7-16.5
		c1.2-0.7,1.2-1.7-0.1-2.3L36.2,0.4z"/>
</g>
</svg>
