<?xml version="1.0" encoding="utf-8"?>
<!-- Generator: Adobe Illustrator 18.0.0, SVG Export Plug-In . SVG Version: 6.00 Build 0)  -->
<!DOCTYPE svg PUBLIC "-//W3C//DTD SVG 1.1//EN" "http://www.w3.org/Graphics/SVG/1.1/DTD/svg11.dtd">
<svg version="1.1" id="Layer_1" xmlns="http://www.w3.org/2000/svg" xmlns:xlink="http://www.w3.org/1999/xlink" x="0px" y="0px"
	 viewBox="0 0 48 48" enable-background="new 0 0 48 48" xml:space="preserve">
<rect width="48" height="48"/>
<g>
	<path d="M45.8,0H2.2H0v2.2v32.7v2.2v8.7V48h2.2h43.6H48v-2.2v-8.7v-2.2V2.2V0H45.8z M45.8,32v2.9v2.2v4.3v4.4H2.2v-4.4v-4.3v-2.2
		V32V2.2h43.6C45.8,2.2,45.8,32,45.8,32z"/>
	<g>
		<path fill="#FFFFFF" d="M34.9,18.4h-1.2c-0.1-0.8-0.2-1.5-0.4-2.1c-0.2-0.5-0.5-1-0.9-1.3c-0.4-0.3-0.9-0.5-1.4-0.7
			c-0.6-0.1-1.3-0.2-2.1-0.2c-0.7,0-1.3,0-1.7,0.1c-0.4,0-0.8,0.1-1,0.1c-0.2,0.1-0.3,0.1-0.4,0.3c-0.1,0.1-0.1,0.3-0.1,0.4v15.3
			c0,0.6,0.1,1.2,0.1,1.6c0.1,0.4,0.3,0.8,0.5,1.1c0.3,0.3,0.6,0.5,1.1,0.6c0.5,0.1,1.1,0.2,1.9,0.3v1H18.5v-1.1
			c0.8,0,1.4-0.1,1.9-0.3c0.5-0.1,0.9-0.3,1.1-0.6c0.3-0.3,0.4-0.6,0.5-1.1c0.1-0.4,0.1-1,0.1-1.6V15.2c0-0.2,0-0.3-0.1-0.4
			c-0.1-0.1-0.2-0.2-0.4-0.3c-0.2-0.1-0.5-0.1-0.8-0.1s-0.8-0.1-1.4-0.1c-0.8,0-1.4,0-2.1,0.1c-0.6,0.1-1.2,0.2-1.6,0.5
			c-0.5,0.3-0.8,0.7-1.1,1.3c-0.3,0.5-0.4,1.4-0.5,2.4h-1V13h21.5L34.9,18.4z"/>
	</g>
</g>
</svg>
