<svg version="1.1" xmlns="http://www.w3.org/2000/svg" xmlns:xlink="http://www.w3.org/1999/xlink" x="0px" y="0px"
	 viewBox="0 0 80 80" enable-background="new 0 0 80 80" xml:space="preserve">
<path d="M80,33.5c0,2-1.7,3.7-3.7,3.7H3.7c-2,0-3.7-1.7-3.7-3.7V3.7C0,1.7,1.7,0,3.7,0h72.6c2,0,3.7,1.7,3.7,3.7
	V33.5z"/>
<path d="M37.2,76.3c0,2-1.7,3.7-3.7,3.7H3.7c-2,0-3.7-1.7-3.7-3.7V46.5c0-2,1.7-3.7,3.7-3.7h29.8
	c2,0,3.7,1.7,3.7,3.7V76.3z"/>
<path d="M80,76.3c0,2-1.7,3.7-3.7,3.7H46.5c-2,0-3.7-1.7-3.7-3.7V46.5c0-2,1.7-3.7,3.7-3.7h29.8c2,0,3.7,1.7,3.7,3.7
	V76.3z"/>
</svg>
