<?xml version="1.0" encoding="utf-8"?>
<!-- Generator: Adobe Illustrator 18.0.0, SVG Export Plug-In . SVG Version: 6.00 Build 0)  -->
<!DOCTYPE svg PUBLIC "-//W3C//DTD SVG 1.1//EN" "http://www.w3.org/Graphics/SVG/1.1/DTD/svg11.dtd">
<svg version="1.1" id="Layer_1" xmlns="http://www.w3.org/2000/svg" xmlns:xlink="http://www.w3.org/1999/xlink" x="0px" y="0px"
	 viewBox="0 0 100 100" enable-background="new 0 0 100 100" xml:space="preserve">
<path fill="#6D7882" d="M40,29v30.6c0,3.4,0.9,5.9,2.6,7.7c1.7,1.8,4.2,2.7,7.4,2.7c3.2,0,5.7-0.9,7.4-2.7c1.7-1.8,2.6-4.3,2.6-7.7
	V29h10v30.6c0,4.2-0.9,7.8-2.7,10.7c-1.8,2.9-4.3,5.1-7.3,6.6c-3,1.5-6.4,2.2-10.2,2.2c-3.7,0-7-0.7-10-2.2c-3-1.5-5.4-3.7-7.1-6.6
	c-1.7-2.9-2.6-6.5-2.6-10.7V29H40z"/>
</svg>
