<?xml version="1.0" encoding="utf-8"?>
<!-- Generator: Adobe Illustrator 18.0.0, SVG Export Plug-In . SVG Version: 6.00 Build 0)  -->
<!DOCTYPE svg PUBLIC "-//W3C//DTD SVG 1.1//EN" "http://www.w3.org/Graphics/SVG/1.1/DTD/svg11.dtd">
<svg version="1.1" id="Layer_1" xmlns="http://www.w3.org/2000/svg" xmlns:xlink="http://www.w3.org/1999/xlink" x="0px" y="0px"
	 viewBox="0 0 80 80" enable-background="new 0 0 80 80" xml:space="preserve">
<g>
	<path fill="#FFFFFF" d="M40,61.4c-11,0-20-9-20-20l0-20c0-1.5,1.2-2.7,2.7-2.7h0c1.5,0,2.7,1.2,2.7,2.7l0,20
		c0,8,6.5,14.6,14.6,14.6c8,0,14.6-6.5,14.6-14.6v-9.3c0-1.5,1.2-2.7,2.7-2.7c1.5,0,2.7,1.2,2.7,2.7v9.3C60,52.4,51,61.4,40,61.4z"
		/>
</g>
<g>
	<path fill="#FFFFFF" d="M60,23.2c0,0.5-0.4,0.9-0.9,0.9h-3.6c-0.5,0-0.9-0.4-0.9-0.9v-3.6c0-0.5,0.4-0.9,0.9-0.9h3.6
		c0.5,0,0.9,0.4,0.9,0.9V23.2z"/>
</g>
<g>
	<path fill="#FFFFFF" d="M31.8,26.9v14.2c0,0,0.2,8,8,8s8.9-8.5,8.9-8.5V21.2c0,0-0.1-1.8-2.2-1.8c-2.1,0-7,0-7,0S32,21,31.8,26.9z"
		/>
</g>
</svg>
