<?xml version="1.0" standalone="no"?>
<!DOCTYPE svg PUBLIC "-//W3C//DTD SVG 20010904//EN"
 "http://www.w3.org/TR/2001/REC-SVG-20010904/DTD/svg10.dtd">
<svg version="1.0" xmlns="http://www.w3.org/2000/svg"
 width="225.000000pt" height="225.000000pt" viewBox="0 0 225.000000 225.000000"
 preserveAspectRatio="xMidYMid meet">

<g transform="translate(0.000000,225.000000) scale(0.100000,-0.100000)"
fill="#d13b2b" stroke="none">
<path d="M0 1125 l0 -1125 1125 0 1125 0 0 1125 0 1125 -1125 0 -1125 0 0
-1125z m1008 609 c22 -15 22 -19 22 -253 0 -171 -3 -240 -12 -249 -9 -9 -78
-12 -249 -12 -234 0 -238 0 -253 22 -13 19 -16 59 -16 242 0 292 -26 266 265
266 183 0 224 -3 243 -16z m719 -6 c23 -21 23 -24 23 -243 0 -183 -3 -224 -16
-243 -15 -22 -19 -22 -253 -22 -171 0 -240 3 -249 12 -9 9 -12 78 -12 249 0
234 0 238 22 253 19 13 59 16 242 16 212 0 221 -1 243 -22z m-709 -710 c9 -9
12 -78 12 -249 0 -234 0 -238 -22 -253 -19 -13 -59 -16 -242 -16 -292 0 -266
-26 -266 265 0 183 3 224 16 243 15 22 19 22 253 22 171 0 240 -3 249 -12z
m716 -10 c13 -19 16 -59 16 -242 0 -292 26 -266 -265 -266 -183 0 -224 3 -243
16 -22 15 -22 19 -22 253 0 171 3 240 12 249 9 9 78 12 249 12 234 0 238 0
253 -22z"/>
</g>
</svg>
