<?xml version="1.0" standalone="no"?>
<!DOCTYPE svg PUBLIC "-//W3C//DTD SVG 20010904//EN"
 "http://www.w3.org/TR/2001/REC-SVG-20010904/DTD/svg10.dtd">
<svg version="1.0" xmlns="http://www.w3.org/2000/svg"
 width="225.000000pt" height="225.000000pt" viewBox="0 0 225.000000 225.000000"
 preserveAspectRatio="xMidYMid meet">

<g transform="translate(0.000000,225.000000) scale(0.100000,-0.100000)"
fill="#5e35b1" stroke="none">
<path d="M0 1125 l0 -1125 1125 0 1125 0 0 1125 0 1125 -1125 0 -1125 0 0
-1125z m1285 704 c497 -121 707 -705 402 -1115 l-45 -61 99 -99 c54 -54 99
-101 99 -104 0 -3 -135 -4 -300 -2 l-300 3 0 302 0 302 103 -103 c56 -56 105
-102 109 -102 15 0 68 90 87 148 28 83 28 201 0 284 -51 152 -178 260 -339
290 l-60 12 0 134 0 134 53 -7 c28 -4 70 -11 92 -16z m-275 -301 l0 -303 -105
105 c-103 103 -104 104 -125 85 -33 -30 -80 -136 -92 -208 -22 -132 28 -284
124 -379 57 -58 168 -114 244 -124 l54 -6 0 -136 0 -135 -52 6 c-90 11 -170
35 -258 79 -67 34 -103 60 -170 128 -95 95 -140 164 -176 270 -70 209 -37 453
87 629 26 38 54 73 60 76 7 5 -28 47 -92 111 l-104 104 303 0 302 0 0 -302z"/>
</g>
</svg>
