<?xml version="1.0" standalone="no"?>
<!DOCTYPE svg PUBLIC "-//W3C//DTD SVG 1.1//EN" "http://www.w3.org/Graphics/SVG/1.1/DTD/svg11.dtd" >
<svg xmlns="http://www.w3.org/2000/svg" xmlns:xlink="http://www.w3.org/1999/xlink" version="1.1">
<metadata>
Created by FontForge 20201107 at Fri Sep 22 08:49:47 2023
 By RMG
</metadata>
<defs>
<font id="icomoon" horiz-adv-x="1024" >
  <font-face 
    font-family="icomoon"
    font-weight="400"
    font-stretch="normal"
    units-per-em="1024"
    panose-1="0 0 0 0 0 0 0 0 0 0"
    ascent="960"
    descent="-64"
    bbox="-1 -170 1026 997"
    underline-thickness="0"
    underline-position="0"
    unicode-range="U+0001-FFFD"
  />
<missing-glyph 
 />
    <glyph glyph-name=".notdef" unicode="&#xfffd;" 
 />
    <glyph glyph-name="glyph1" horiz-adv-x="0" 
d="M0 0v0v0v0z" />
    <glyph glyph-name="glyph1" horiz-adv-x="0" 
d="M0 0v0v0v0z" />
    <glyph glyph-name="glyph2" horiz-adv-x="341" 
 />
    <glyph glyph-name="uni0001" horiz-adv-x="0" 
d="M0 0v0v0v0z" />
    <glyph glyph-name="space" unicode=" " horiz-adv-x="512" 
d="M0 0v0v0v0z" />
    <glyph glyph-name="uniE900" unicode="&#xe900;" 
d="M1024 481v-205q0 -36 -25 -61q-26 -26 -61 -26h-34l-2 -10q-9 -40 -41 -67q-33 -27 -75 -27q-35 0 -65 20q-5 3 -6 9t2 11q4 6 12 6q4 0 8 -2q22 -15 49 -15q37 0 63 26q27 26 27 63q0 38 -26 64q-27 27 -64 27t-63 -26q-26 -27 -26 -64q0 -6 -4 -10q-5 -5 -11 -5h-327
l-2 -10q-8 -41 -40 -67q-33 -27 -75 -27q-36 0 -65 20q-12 8 -4 20q4 6 11 6q5 0 8 -2q23 -15 50 -15q37 0 63 26t26 63q0 38 -26 64q-26 27 -63 27t-63 -26q-27 -27 -27 -64q0 -6 -4 -10q-4 -5 -10 -5h-48q-36 0 -61 25q-25 26 -25 62v448q0 36 25 61q25 26 61 26h699
q6 0 10 -4q5 -5 5 -10q0 -6 -4 -10q-5 -5 -11 -5h-699q-24 0 -41 -17t-17 -41v-448q0 -24 17 -41t41 -17h34l2 10q9 41 41 67q33 27 75 27t74 -26q33 -27 41 -68l2 -10h314l2 10q8 41 40 67q33 27 75 27t74 -26q33 -27 42 -68l2 -10h34q24 0 41 17t17 41v191h-287
q-28 0 -47 19q-20 20 -20 48v98q0 28 19 48q20 20 48 20h157l1 -1h3v0v0l2 -1v-1h1l1 -1q1 0 1 -1v0l1 -1v-1l145 -204l1 -1v-1h1v-2l1 -1v-3zM709 495h273l-125 176h-148q-16 0 -27 -11q-12 -12 -12 -28v-98q0 -16 11 -27q12 -12 28 -12z" />
    <glyph glyph-name="uniE901" unicode="&#xe901;" 
d="M959 809q27 0 46 -21t19 -51v-578q0 -30 -19 -51t-46 -21h-894q-27 0 -46 21t-19 51v578q0 30 19 51t46 21h894zM997 159v578q0 17 -11 29q-11 13 -27 13h-894q-16 0 -27 -12q-11 -13 -11 -30v-578q0 -17 11 -29q11 -13 27 -13h894q16 0 27 12q11 13 11 30zM102 393
q-6 0 -10 4q-4 5 -4 11t4 10q4 5 10 5h178q6 0 10 -4q4 -5 4 -11t-4 -10q-4 -5 -10 -5h-178zM293 228q6 0 9 -4q4 -5 4 -11t-3 -10q-4 -5 -10 -5h-191q-6 0 -10 4q-4 5 -4 11t4 10q4 5 10 5h191zM483 294q6 0 10 -4q4 -5 4 -11t-4 -10q-4 -5 -10 -5h-381q-6 0 -10 4
q-4 5 -4 11t4 10q4 5 10 5h381zM504 423q6 0 10 -4q4 -5 4 -11t-4 -10q-4 -5 -10 -5h-178q-6 0 -10 4q-4 5 -4 11t4 10q4 5 10 5h178zM729 423q5 0 9 -4q4 -5 4 -11t-4 -10q-4 -5 -9 -5h-179q-6 0 -10 4q-4 5 -4 11t4 10q4 5 10 5h179zM749 605q6 0 10 -4q4 -5 4 -11t-4 -10
q-4 -5 -10 -5h-304q-5 0 -9 4q-4 5 -4 11t4 10q4 5 9 5h304zM953 423q5 0 9 -4q4 -5 4 -11t-4 -10q-4 -5 -9 -5h-179q-6 0 -10 4q-4 5 -4 11t4 10q4 5 10 5h179zM108 507q-5 0 -9 4q-4 5 -4 11v128q0 6 4 10q4 5 9 5h166q6 0 9 -4q4 -5 4 -11v-128q0 -6 -3 -10q-4 -5 -10 -5
h-166zM122 635v-98h139v98h-139zM868 518q-30 0 -51 23q-21 24 -21 56q0 33 21 56q21 24 51 24t51 -23q21 -24 21 -57t-21 -56t-51 -23zM868 647q-19 0 -32 -14q-13 -15 -13 -35q0 -21 13 -36t32 -15t32 15t13 35q0 21 -13 35q-13 15 -32 15z" />
    <glyph glyph-name="uniE902" unicode="&#xe902;" 
d="M763 257q44 -22 79 -60q36 -39 40 -84q3 -28 -9 -55q-12 -28 -33 -48q-21 -21 -44 -35q-23 -15 -46 -24q-42 -15 -90 -15q-44 0 -89 13q-79 23 -194 106q-77 56 -139 117q-63 63 -119 140q-83 116 -106 195q-28 96 3 179q8 22 22 45q15 23 35 44q21 22 48 34q28 12 56 9
q46 -4 84 -39q38 -36 60 -80q24 -49 12 -86q-8 -23 -42 -54q-20 -17 -27 -27q-15 -27 -13 -52q3 -25 18 -48q44 -73 99 -128t128 -99q26 -16 53 -17q27 -2 47 12q10 7 27 27q31 33 54 42q37 12 86 -12zM739 -19q43 16 79 52q37 37 33 77q-4 36 -34 67q-30 32 -68 51
q-37 19 -61 10q-16 -5 -40 -32q3 -2 4 -3l31 -32q12 -11 0 -22q-4 -5 -10 -5q-7 0 -12 5l-32 32q-1 0 -2 3q-7 -7 -13 -10q-26 -19 -60 -19q-38 0 -75 22q-75 46 -133 104t-104 134q-12 19 -18 41t-4 47q3 26 18 47q4 6 10 13q-3 1 -3 2l-32 32q-11 11 0 22q11 12 23 0
l32 -32q0 -1 2 -3q27 24 32 39q9 25 -9 61q-19 38 -51 68q-32 31 -68 34q-4 1 -7 1q-38 0 -72 -35q-34 -36 -49 -77q-27 -73 -2 -159q21 -74 101 -185q55 -75 116 -136q59 -59 134 -114q111 -80 185 -102q86 -24 159 2zM756 686q12 -3 12 -15v-175h32q7 0 11 -4q5 -5 5 -12
t-4 -11q-5 -5 -12 -5h-32v-48q0 -7 -4 -11q-5 -5 -11 -5q-7 0 -12 4q-5 5 -5 12v48h-112q-9 0 -13 8q-5 9 0 17l128 191q6 9 17 6zM736 496v122l-82 -122h82zM592 608q0 -38 -25 -66l-99 -110h124q7 0 11 -4q5 -5 5 -12t-4 -11q-5 -5 -12 -5h-160q-10 0 -14 9q-5 10 2 18
l123 136q17 19 17 45q0 20 -14 34t-34 14h-16q-20 0 -34 -14t-14 -34q0 -7 -4 -11q-5 -5 -11 -5q-7 0 -12 4q-5 5 -5 12q0 33 23 56q24 24 57 24h16q33 0 56 -23q24 -24 24 -57zM496 960q107 0 205 -42t168 -112q71 -71 113 -169t42 -205q0 -122 -53 -231q-4 -9 -14 -9
q-4 0 -7 2q-6 3 -8 9q-3 6 0 12q50 102 50 217q0 101 -39 192q-39 92 -105 158q-67 67 -159 106q-92 40 -193 40q-124 0 -232 -58q-6 -3 -12 -1q-7 2 -10 8t-1 12t8 10q115 61 247 61z" />
    <glyph glyph-name="uniE903" unicode="&#xe903;" 
d="M336 590q14 -9 5 -22q-38 -53 -38 -119q0 -86 61 -147t147 -61q87 0 148 61t61 147t-61 147t-148 61q-56 0 -104 -27q-14 -8 -22 5q-3 6 -1 12q2 7 7 10q56 32 120 32q100 0 170 -70q71 -70 71 -169q0 -100 -70 -170q-71 -71 -170 -71q-100 0 -170 70q-71 71 -71 170
q0 76 43 138q9 13 22 3zM535 353q16 0 28 12t12 28q0 17 -12 28q-12 12 -28 12h-48q-30 0 -51 21t-21 51t21 51t51 21h8v16q0 7 5 11q5 5 11 5q7 0 11 -4q5 -5 5 -12v-16h8q21 0 38 -11q18 -11 27 -30q3 -6 1 -12q-3 -6 -9 -9t-12 -1t-9 8q-11 23 -36 23h-48q-17 0 -28 -11
q-12 -12 -12 -28q0 -17 11 -29q12 -12 29 -12h48q30 0 51 -21t21 -51t-21 -51t-51 -21h-8v-16q0 -7 -4 -11q-5 -5 -11 -5q-7 0 -12 4q-5 5 -5 12v16h-8q-30 0 -51 21t-21 51q0 7 4 11q5 5 11 5q7 0 12 -4q5 -5 5 -12q0 -16 11 -28q12 -12 29 -12h48zM19 497q-7 0 -12 5
q-5 6 -4 13q23 176 152 301q130 126 307 143q7 1 12 -4t5 -12v-161q0 -14 -13 -16q-102 -15 -176 -85q-74 -71 -93 -171q-2 -13 -16 -13h-162zM447 925q-155 -20 -269 -130q-114 -111 -140 -266h130q24 102 100 174q76 73 179 92v130zM561 959q130 -12 236 -83t166 -183
q61 -113 61 -244q0 -104 -40 -199q-41 -95 -110 -163q-69 -69 -163 -109q-95 -41 -200 -41q-132 0 -246 63q-115 63 -186 173q-71 111 -79 243q0 7 4 12q5 5 12 5h161q6 0 10 -4q5 -4 6 -10q11 -124 102 -207q92 -83 216 -83q87 0 161 43t117 116q43 74 43 161
q0 119 -78 209q-79 91 -197 108q-14 2 -14 16v161q0 7 5 12q6 5 13 4zM511 -31q98 0 187 38t153 102q65 65 103 154t38 186q0 120 -54 223q-54 104 -149 171q-96 67 -214 82v-130q125 -23 207 -121t82 -225q0 -95 -47 -176q-48 -82 -129 -129t-177 -47q-133 0 -232 86
q-99 87 -117 218h-129q12 -120 79 -219q67 -100 172 -156q106 -57 227 -57z" />
    <glyph glyph-name="uniE904" unicode="&#xe904;" 
d="M111 -64v1024l802 -512zM246 713v-530l416 265z" />
    <glyph glyph-name="uniE905" unicode="&#xe905;" 
d="M943 131q14 -20 11 -44t-22 -39l-61 -46q-85 -66 -202 -66q-86 0 -161 35q-75 36 -122 100l-251 336q-53 73 -63 168q-11 95 24 183q35 89 106 144l61 46q15 12 34 12h5l3 -1q23 -3 38 -23l165 -221q14 -19 11 -43q-4 -24 -23 -39l-52 -40q-25 -20 -29 -52q-5 -32 14 -57
l109 -146q23 -31 61 -31q26 0 47 16l52 40q15 12 35 12h7q24 -4 39 -23zM850 32l77 59l-190 255l-69 -53q-30 -24 -68 -24q-57 0 -91 46l-108 146q-29 38 -23 86q7 48 45 77l68 52l-189 255l-78 -60q-62 -47 -93 -127t-23 -165q9 -85 57 -149l250 -336q41 -56 109 -88
q69 -32 145 -32q105 0 181 58z" />
    <glyph glyph-name="uniE906" unicode="&#xe906;" 
d="M818 499q51 9 100 -15q50 -25 79 -71q30 -46 28 -99q-3 -57 -32 -100q-29 -44 -70 -64q-41 -21 -88 -22q-48 -2 -89 16q-41 19 -69 61q-29 43 -32 102q5 102 82 155l-7 14q-6 11 -9 16q-33 -26 -53 -68q-5 -10 -13 -38t-17 -50q-10 -23 -22 -32q-47 -34 -193 0
q-11 2 -19 12q-9 10 -13 20q-5 10 -10 26q-6 16 -8 21q-38 87 -90 127q-1 -4 -4 -12q-4 -8 -5 -12q46 -24 74 -70q29 -46 27 -97q-3 -57 -30 -99q-28 -42 -67 -61q-40 -19 -86 -19q-46 -1 -85 17q-40 19 -67 61q-28 42 -31 100q4 78 55 130t129 57q30 1 60 -10q1 2 5 12
t7 16q-1 0 -4 2q-4 2 -5 3q-24 13 -66 13q-43 -1 -67 4q-31 9 -53 32q-23 23 -47 58q0 2 1 3q13 19 42 61q2 4 11 6q9 3 13 -1q35 -37 102 -58q68 -21 136 -26q6 -1 39 -1t54 -4q22 -4 36 -15q9 -6 5 -21q-5 -15 -13 -28q-9 -13 -19 -27q-11 -15 -12 -20q-21 -56 24 -123
q16 -24 33 -35t31 -11q14 -1 29 9q16 10 26 20q11 11 23 29q12 19 17 29q6 10 14 25q2 4 3 5q2 5 8 18q7 13 10 19q4 6 10 16q7 11 13 17t14 12q9 7 18 11h2q-6 11 -11 20t-10 20q-6 11 -9 17q-3 7 -1 8q-42 -2 -118 -5q-8 0 -8 3q1 11 1 33q0 6 10 9q11 3 15 0q11 -9 26 -9
q16 -1 37 2t31 3q-1 3 -1 9q-6 27 -4 61q3 35 22 47q19 11 43 3q24 -9 35 -27q9 -15 12 -47q3 -33 5 -39q3 -14 10 -24q7 -11 13 -16q7 -6 19 -10q13 -4 21 -5q8 -2 25 -4t26 -3q22 -4 39 -20q18 -16 18 -38q-1 -6 -9 -8q-9 -2 -15 -1q-103 22 -172 -17q12 -23 16 -31
q31 17 69 23zM338 318q-2 44 -24 85t-59 63q-4 -9 -9 -22q33 -18 53 -52q20 -35 18 -72q-2 -42 -22 -74t-49 -47q-30 -15 -64 -16t-63 12q-30 14 -50 45q-21 31 -23 75l1 1l-1 1q3 59 41 98q38 40 97 44q21 1 42 -6q4 11 9 22q-19 8 -39 9q-73 4 -120 -43q-47 -48 -50 -122
q3 -62 42 -112t100 -54q70 -4 122 45t48 120zM195 320q-4 -8 -21 -7q-5 1 -5 4q47 112 50 119q-9 4 -19 5q-55 10 -90 -27t-38 -93q3 -44 26 -81q24 -37 65 -44q57 -10 96 33q40 44 32 100q-10 64 -53 96q-7 -18 -21 -52q-15 -35 -22 -53zM665 622q6 0 8 -3q8 -16 25 -48
q18 -32 26 -48q71 34 178 17q-5 22 -27 31q-23 9 -49 9q-26 -1 -51 8q-26 9 -35 31q-5 13 -8 52t-12 54q-46 73 -49 -24q-1 -24 2 -62q0 -6 -10 -8q-11 -2 -15 0q-17 6 -29 6q-12 -1 -33 -4t-33 -2q0 -5 1 -8t2 -4q2 -2 6 -2h7q4 1 12 1q8 1 16 1q11 1 34 1q23 1 34 2z
M621 397q40 84 81 113q-4 6 -13 23l-1 2q-22 -10 -38 -39q-17 -30 -32 -65q-15 -36 -30 -51q-39 -42 -72 -50q-44 -11 -76 3q-23 11 -46 55q-23 45 -21 69q1 10 9 29q9 20 17 38t12 35q5 18 -2 29q-8 11 -30 13q-78 7 -88 9q-8 1 -44 7q-36 7 -51 10q-16 4 -44 12t-48 19
t-36 25q-1 -1 -9 -13q-9 -12 -13 -19q-9 -13 11 -38q21 -26 39 -38q27 -18 84 -20q57 -3 78 -11q29 -11 57 -38q29 -28 45 -57q7 -13 17 -40q11 -27 19 -45t24 -34q17 -16 38 -19q75 -11 106 -8q17 2 27 17q11 16 19 43q8 28 11 34zM757 157q42 -24 85 -19q44 5 80 26t57 60
q22 39 20 83q-3 50 -24 93q-22 43 -63 65q-83 44 -156 -1q1 -2 17 -32q22 12 49 17q57 10 103 -33t43 -101q-2 -42 -22 -73q-20 -32 -49 -47q-30 -16 -64 -17q-34 -2 -63 11q-30 13 -50 44q-21 31 -23 75q4 70 54 110q-6 10 -17 31q-59 -52 -63 -135q2 -50 24 -92
q22 -43 62 -65zM778 423q44 -84 58 -109q1 -2 -5 -5q-6 -4 -12 -4q-6 -1 -9 2q-1 1 -52 98q-32 -36 -35 -90q2 -39 20 -72q18 -34 51 -48q58 -24 105 14q47 39 44 99q-2 40 -20 73t-52 48q-52 22 -93 -6z" />
    <glyph glyph-name="uniE907" unicode="&#xe907;" 
d="M178 659q1 2 7 1v-58q-2 -2 -7 -2v59zM209 668q0 3 5 3q2 0 3 -3l1 -75q1 -3 -4 -3q-2 0 -3 2zM235 639q2 2 7 2q2 -28 4 -58q-1 -3 -7 -2q0 2 -1 24q-2 22 -3 34zM309 639q1 3 7 1v-58q-1 -3 -7 -1v58zM341 629q1 2 7 2q1 -9 3 -25t3 -23q-2 -2 -7 -2q-2 18 -6 48z
M381 605q1 2 7 2v-13q-2 -2 -7 -2v13zM812 639q2 3 7 1v-34q-1 -2 -7 0v33zM844 659q1 2 7 1q1 -9 2 -31q1 -23 2 -35q-1 -3 -7 -2q-1 22 -4 67zM872 668q1 2 7 1v-43q-1 -2 -7 0v42zM890 700q1 2 7 0v-60q-2 -2 -7 -1v61zM95 367q-1 -2 -7 -2v67q2 2 7 2v-67zM129 357
q0 -3 -4 -3q-3 0 -3 3v26q-1 15 -1 32q-1 18 -1 28q0 3 4 3q3 -1 3 -3q1 -31 2 -86zM157 345q-1 -2 -7 -2q0 2 -4 66q1 3 7 2q3 -45 4 -66zM226 345q-1 -3 -7 -1v66q2 2 7 1v-66zM264 345q-1 -2 -7 -2q-1 8 -3 26q-2 19 -3 30q2 1 7 1q4 -36 6 -55zM298 358q-1 -2 -7 -2v15
q1 2 7 2v-15zM730 372q-2 -2 -7 0v38q1 3 7 1v-39zM765 358q-1 -2 -6 -2q-2 26 -4 76q1 2 7 2q0 -16 3 -76zM789 395q-1 -2 -7 0v48q2 2 7 0v-48zM1018 313q4 -29 5 -48q2 -19 1 -45q-2 -27 -8 -45q-7 -19 -21 -37q-15 -18 -37 -30q-42 -21 -92 -34t-108 -18q-59 -6 -100 -7
q-42 -2 -104 -2q-234 0 -359 74q-18 11 -21 42q-4 31 1 79q5 49 5 54q-90 17 -157 52q-18 10 -22 38t1 72q5 45 5 50q0 3 2 6q-4 10 -4 18t8 16t16 14q9 6 22 11q14 6 25 10t23 8q-2 1 -3 3v131v1l1 1q-3 8 -1 15q4 17 17 31t34 23q21 10 42 17q22 8 52 12q31 5 53 8
q23 3 56 4l49 1v0l44 1h31q6 0 38 1q33 1 58 1q26 1 67 0q42 -1 75 -3q33 -3 71 -9q38 -7 64 -16q27 -9 48 -24t28 -35q9 0 9 -5q5 -26 6 -42q2 -17 2 -44q0 -28 -10 -46q-10 -19 -28 -29q-31 -16 -71 -27v-2l3 -17v0l5 -20q4 -21 4 -20q-1 2 2 -21q4 -23 2 -19t0 -21
q3 -26 -1 -20q-4 7 -3 -19v0q2 0 6 -1q15 -3 26 -5l36 -9q25 -6 43 -13q18 -8 35 -17q18 -9 25 -20q8 -12 4 -24zM980 304q3 12 -2 23q-6 11 -19 19q-14 8 -27 14t-34 11t-32 7q-12 3 -30 6q-12 -25 -36 -39q-34 -21 -82 -34q13 -1 22 -3q37 -6 48 -14q15 -11 -1 -19
q-16 -9 -33 -12q-12 -3 -28 -5l9 -5q1 -1 0 -2q0 -1 -1 -1h-1l-12 7q-14 -2 -28 -3q2 -2 11 -7q2 -2 -4 -5q-9 -4 -12 -2q-4 3 -17 11q-56 -4 -103 2q-39 5 -40 15q0 4 4 6t8 2q5 0 5 -3q1 -7 34 -10q35 -3 75 -1q-7 5 -22 14q-15 10 -23 15q-46 -4 -183 -8q-119 -3 -201 7
q20 -27 63 -44q43 -18 88 -25q46 -8 105 -10q59 -3 92 -3q34 1 72 3q3 0 13 1q306 13 322 92zM686 303q-13 -3 -28 -5l53 -31q19 2 21 3q2 0 10 1q9 1 14 1q5 1 11 3q7 3 9 6q3 2 -3 5q-7 3 -12 5q-31 9 -75 12zM652 297q-11 -2 -21 -3q8 -5 23 -15l24 -15q15 1 27 2z
M903 648q1 32 -2 62q-13 -11 -34 -21t-43 -16t-51 -10q-30 -5 -52 -7q-23 -3 -54 -4q-32 -1 -48 -1q-16 -1 -42 -1h-30q-41 -1 -101 0q-61 2 -166 14q-106 12 -151 33q-5 -89 4 -93q5 -2 16 -7v41q-1 28 -1 41q1 3 7 2v-43q1 -29 1 -44q47 -19 103 -31q-2 49 -4 76q2 2 7 2
q1 -14 2 -40q2 -27 2 -39q32 -6 63 -10q33 -3 75 -6h1q30 0 50 -2q149 -4 292 19q4 0 21 2q18 3 25 4q8 2 25 6t25 7q9 4 22 10q13 7 20 14q7 8 12 18q5 11 6 24zM529 521q-6 2 -14 3q-38 -1 -73 -1l37 -22q9 1 16 2q38 5 48 10q3 2 -3 4q-6 3 -11 4zM435 523h-29
q20 -13 39 -25q14 1 27 2zM308 808q-76 -13 -136 -38q-54 -21 -33 -37q27 -21 65 -34q38 -14 87 -19q49 -6 80 -7q31 -2 83 -3h20h28q24 -1 45 -1h54v0l62 1q61 2 61 5t59 8q60 6 50 13q-10 8 37 19q48 12 19 26q-3 13 -14 24q-12 11 -32 19t-39 14t-48 9q-29 4 -48 6
q-20 2 -51 3q-31 2 -44 2h-40l-26 1q-149 1 -239 -11zM125 578q-129 -38 -52 -80q36 -19 92 -30q114 -23 219 -24q27 -1 86 2q59 4 145 13t137 33q52 24 32 58q-41 -8 -107 -14q-79 -7 -123 -9v-1q17 -9 1 -18t-33 -12q-12 -2 -27 -5l7 -4q2 -1 1 -2t-2 -1l-12 6
q-14 -2 -27 -3q2 -1 5 -3t5 -3q2 -2 -4 -5q-9 -4 -12 -2t-8 5l-9 6q-57 -4 -103 1q-39 5 -40 16q-1 4 3 6q5 3 9 3q5 -1 5 -4q1 -6 29 -9q36 -4 80 -2q-7 5 -21 14q-15 9 -22 14q-150 7 -254 54zM40 483q-6 -109 -1 -112q9 -5 21 -11q-1 63 -2 95q2 3 7 2q1 -42 2 -100
q46 -22 103 -35q0 4 -1 37q-2 33 -3 50q1 2 7 2q0 -10 1 -28q1 -19 1 -34q1 -15 2 -28q32 -7 62 -11q259 -32 469 22q79 20 96 76l-1 1q0 1 -3 69q2 3 7 2q1 -9 1 -25q1 -16 1 -22q3 26 -2 60q-32 -27 -111 -43q-80 -17 -166 -21q-87 -4 -151 -4t-90 3q-6 0 -43 3
q-38 3 -57 5q-19 3 -51 8q-32 6 -56 16t-42 23zM212 260q-8 -111 4 -118q5 -4 17 -10q-1 73 -1 113q0 1 2 2q-13 6 -22 13zM882 100q76 22 97 76q-5 -2 -5 1v93q-52 -33 -145 -52q-242 -47 -453 -8q-74 14 -76 14q1 -46 2 -88q0 -3 -4 -3q-3 0 -3 2q-1 46 -2 91
q-32 7 -54 18q0 -15 1 -116q47 -23 103 -38q-2 49 -4 104q1 2 7 1q4 -101 4 -107q36 -9 71 -13q255 -33 461 25zM981 181q11 35 5 98q-1 -1 -9 -7q4 1 4 -1v-90zM261 219q2 2 7 1v-74q-1 -2 -7 -1v74zM319 194q1 2 7 1q4 -71 4 -72q-1 -3 -7 -2q-1 12 -2 36q-1 25 -2 37z
M393 194q1 3 7 1v-73q-2 -3 -7 -1v73zM425 182q1 1 6 1l6 -60q-1 -2 -6 -2q-5 51 -6 61zM464 151q2 2 7 2v-17q-1 -2 -7 -2v17zM896 194q1 3 7 1v-43q-1 -2 -7 0v42zM928 219q1 2 7 1q2 -48 4 -84q-2 -2 -7 -1q-2 34 -4 84zM956 230q1 3 7 1v-53q-2 -3 -7 -1v53zM427 749
q-1 0 -9 1t-13 2q-6 1 -15 3t-14 4q-6 2 -10 6q-5 4 -6 9q-3 17 22 23q11 2 26 4q-5 4 -6 4q-2 2 4 5q8 4 12 2q2 -2 6 -4q5 -3 7 -5q6 1 14 1l-5 3q-2 1 -1 2q1 2 3 1l10 -6q25 0 78 -3q11 -1 3 -9q-4 -4 -9 -4q-22 2 -48 2l60 -35q44 -2 68 -4q4 0 17 -1q14 -1 22 -2
t19 -2q12 -2 21 -5q9 -4 16 -9q26 -17 -31 -31q-13 -3 -30 -6l10 -5q1 -1 0 -3q0 -1 -1 -1t-1 1l-14 7q-13 -2 -27 -3q2 -2 12 -8q2 -1 -4 -4q-9 -4 -12 -2q-10 6 -18 11q-1 0 -12 -1t-22 -1q-11 -1 -26 -1q-16 -1 -29 -1q-13 1 -25 3t-19 6q-8 5 -9 12q0 4 4 6q4 3 8 3
q5 -1 5 -5q2 -8 52 -9q33 -1 57 -1q-45 29 -69 44q-42 2 -71 6zM591 700l28 2l-66 39q-5 0 -27 1q11 -7 32 -21zM598 739q-16 1 -37 2l64 -38q29 3 51 10q24 8 -7 15q-30 8 -71 11zM469 790h-18q9 -6 26 -17q18 -11 26 -17q11 0 25 -1zM391 786q-28 -7 10 -18q8 -2 13 -3
q26 -5 61 -7q-10 6 -28 18l-21 14q-22 -1 -35 -4z" />
    <glyph glyph-name="uniE908" unicode="&#xe908;" 
d="M1024 658q-4 -18 -46 -37q-14 -6 -25 -8q14 -12 21 -28t12 -38q6 -22 13 -36q2 -4 8 -13q7 -10 10 -16t5 -16t-5 -15q-3 -3 -9 -8q6 0 6 -1q2 -14 -9 -23t-32 -13q-21 -5 -33 -6q-13 -1 -31 -2h-3q-34 -2 -75 1q1 -1 1 -2q2 -3 7 -18t8 -25t7 -26q4 -17 6 -29
q2 -13 2 -27t-3 -24q10 1 9 -4q-2 -24 -27 -43q-26 -19 -63 -28q-37 -10 -67 -15q-31 -5 -54 -6q-137 -4 -238 12q-5 1 -23 3q-19 2 -27 4q-9 2 -21 8q-13 7 -20 17q-2 2 2 5q-4 2 -4 5v26q-9 -2 -16 1q-9 -12 -27 -13q-5 0 -9 1q-12 -21 -31 -22q-18 -1 -23 17
q-11 2 -16 13q-9 -13 -21 -15q-12 -3 -20 5q-15 -17 -35 -15q-29 2 -13 48q-10 0 -13 5q-5 8 -1 18q-6 -5 -15 -9q-10 -4 -20 -4t-13 7q-4 6 -5 13q-19 -5 -27 16q-9 25 13 48q-17 7 -14 24q-16 5 -20 27q-2 19 10 32q-2 5 -3 12q0 22 16 33q-6 7 -6 16q-2 23 28 34
q-7 9 4 25q11 17 30 28q-5 16 6 31q12 15 36 15q3 0 6 -1q4 8 10 12q1 1 6 1q-4 3 -14 9q-12 5 -13 17q-1 9 12 21q6 5 10 17q4 13 7 18q7 10 20 11q14 1 24 -2q6 9 13 14q25 12 40 5q16 -7 24 -29q16 2 24 -9q37 7 83 11q47 4 71 5t89 1q65 -1 76 -1q159 0 250 -26
q6 18 18 30q13 12 30 11q25 0 36 -26q19 15 40 -5q3 -3 16 -12q13 -10 19 -18q7 -9 6 -19zM899 729q-7 1 -12 -12q-6 -14 -9 -26q18 -5 19 -6q6 -3 5 -7t-7 -7q-1 -15 -4 -22q3 -2 -2 -5q-4 -9 -13 -13q2 -11 9 -17q8 -6 19 0q30 16 25 63q-5 46 -30 52zM875 637v4h2z
M882 671q-78 29 -188 34q12 -6 16 -26q2 -11 -1 -25q12 -1 34 1q22 3 25 3h2l-4 -3q-4 0 -25 -2t-32 -2q-1 -4 -4 -17q43 0 175 15q1 7 2 22zM705 588q1 -3 -1 -6q9 -14 40 -42q31 -29 39 -50q4 9 5 15q0 4 1 18q1 15 3 24q2 10 5 19q16 37 57 52h2q-4 9 -2 20
q-102 -12 -151 -12q-5 -23 2 -38zM575 707h-57q9 -1 17 -8q9 -7 22 -24t26 -25t33 -6q13 1 22 14q10 14 20 29q11 15 24 18q-27 1 -107 2zM295 692q3 -13 1 -33v-2l-1 -2q16 -1 48 -7q33 -7 50 -8q27 -2 89 -1v5h-37q-1 0 0 1q2 1 4 1h33q-4 46 16 58q4 2 9 3
q-132 1 -212 -15zM395 547q1 -8 1 -21v-22q15 29 49 53h2q1 7 6 17q5 11 6 16q2 6 3 17t-4 18q-55 0 -87 3q-6 0 -15 2q-4 -11 -13 -18q5 1 7 -1q41 -24 45 -64zM302 430q95 -8 90 20q-1 7 -11 17q-6 5 -6 17q-1 12 0 26t0 19q-3 26 -12 42q-9 17 -30 29q-3 2 -2 5
q-17 -7 -37 -6q-20 2 -31 10q-4 -4 -10 -5q-69 -11 -62 -91q0 -10 -2 -16q-2 -4 -6 -11t-6 -11q-3 -5 -4 -10q-2 -5 1 -8q3 -4 10 -6q63 -16 118 -21zM382 421q-3 -1 -5 -2q-45 -9 -98 -5q-53 5 -101 21q-3 -7 7 -13q11 -6 29 -8q18 -3 30 -4q12 -2 21 -2q72 -3 96 3
q4 3 11 3q6 3 10 7zM290 642q-7 -10 -18 -14q-3 -1 -5 -2q1 -12 18 -18q18 -6 37 0t21 24q-45 9 -53 10zM271 698q4 -31 -8 -55q4 0 4 -2q2 -2 1 -5q2 3 3 5q0 1 1 4q0 2 1 3l2 10q0 12 -1 21q-1 12 -3 19zM225 738q-14 6 -20 -19q-8 -40 6 -77q10 -25 23 -14q11 11 15 34
q5 24 -1 47t-23 29zM139 671q-3 -7 0 -11q3 -5 11 -8q9 -3 11 -5q2 -1 6 -7q5 -7 9 -11t7 -2q4 2 10 2l-2 4q-18 43 -7 80h-1q-3 0 -8 1q-6 1 -10 1q-2 0 -3 -3q-2 -4 -3 -10l-1 -6q-3 -9 -6 -12q-1 -2 -6 -6q-6 -4 -7 -7zM133 611q-1 -6 1 -11q0 7 -1 11zM270 249q1 5 2 11
q-2 -6 -2 -11zM326 236q2 105 30 165q-18 -3 -88 -2q-84 1 -107 19q-12 9 3 22q-8 3 -14 6q-3 1 -2 4q2 10 11 32t9 40q0 33 13 51q27 37 75 44q-2 4 -2 9q-2 0 -4 2q-31 -23 -50 -7q-2 -1 -3 -2q-30 -19 -44 4q-3 6 -7 10q-8 -6 -11 -14q14 -7 18 -18t-13 -16q-14 -4 -18 7
t2 24q-11 1 -33 -12q-4 -12 -2 -22q34 12 43 -19q1 -2 -6 -4q-33 -9 -45 14q-6 -4 -10 -8q-13 -13 -15 -20q-3 -7 -2 -14q1 -2 3 -4q28 6 45 -2q2 -1 -2 -3t-6 -2q-22 -5 -35 -2q-4 -9 -26 -15q-7 -17 1 -23q19 7 47 3q3 0 2 -1q-13 -20 -39 -18q-4 -3 -11 -9q-8 -7 -12 -10
v-4q-1 -3 -1 -5q13 9 32 10t31 -5q1 0 0 -2q-9 -10 -31 -17q-22 -8 -35 0q-2 -18 -1 -33q8 0 13 -1q21 23 49 14q1 -1 1 -2q-8 -12 -22 -21q-14 -10 -27 -10q-2 -14 9 -19q25 21 53 15q1 0 1 -2q-5 -12 -6 -13q-1 -2 -13 -8h-10v1h-1q-50 -25 -21 -29q8 -1 19 0q16 17 38 23
h5v0l3 -2q-3 -8 -17 -23q-14 -16 -29 -24v-2q-1 -2 -1 -3q8 2 23 6q15 5 22 7q2 5 11 4l2 -2q-8 -15 -5 -32q4 0 9 1q7 16 14 23q1 2 6 3t6 -1q11 -25 -19 -37q-5 -14 -5 -29q11 3 29 7q-8 24 20 40q1 1 5 1q4 1 5 -1q1 -26 -14 -48q9 -8 17 0q9 8 14 22q1 2 4 3t6 1
q3 1 3 -1q0 -10 5 -14q2 30 21 40q21 11 20 -11q-2 -24 -16 -39q-4 -5 -8 -7q11 -24 27 9q-6 12 -2 28t13 27q1 1 6 2q6 2 6 0q3 -23 -4 -47q14 -2 20 3q-13 18 4 40q1 1 6 2q6 2 7 0q4 -26 -4 -43q3 -9 12 -4zM233 235q10 5 14 14q5 9 0 18q-2 3 -7 -7q-5 -11 -7 -25z
M77 317q12 3 13 6q-7 -2 -13 -6zM90 577q3 -8 9 -11q28 -5 11 11q-10 2 -20 0zM570 164q27 -1 54 0t77 5q51 4 89 18t51 36q-12 -8 -30 -7h-4q-307 -86 -460 -7q0 -2 -1 -4q1 0 2 -1q10 -14 30 -23q21 -9 51 -12q31 -3 50 -4q20 -2 54 -2q35 1 37 1zM833 236q5 6 7 16t1 23
q-2 14 -4 26q-2 13 -6 29q-5 16 -8 26t-7 22q-5 13 -5 14q-2 5 6 9h-7q-5 1 -8 1q-3 1 -8 2q-6 1 -8 2q-3 2 -5 4q-3 2 -3 5q1 4 5 9q2 1 7 3q-27 10 -20 30q1 5 5 13q-4 21 -19 39t-35 36q-21 18 -30 32q-6 1 -8 5q-6 19 -5 28t7 28q9 25 1 41q-5 11 -18 -7q-1 -3 -7 -13
q-7 -11 -10 -15q-4 -5 -11 -10q-8 -5 -16 -6q-43 -3 -54 3q-7 3 -12 7t-7 6t-6 10q-5 8 -7 11q-16 25 -27 24q-4 -1 -5 -9q-1 -13 -1 -21t1 -22q1 -1 1 -3q1 -13 3 -30q0 -5 -4 -8q-1 -9 -5 -15q-4 -3 -13 -2q3 6 4 15q-3 1 -4 4q0 4 -1 13q-2 10 -3 14h-2q5 -15 -5 -41
q-10 -27 -11 -32t-12 -7q-40 -30 -47 -73q7 -10 9 -14q7 -11 -5 -22q-5 -20 -33 -30q-29 -60 -30 -179q3 0 4 -1q150 -86 479 10h2zM902 406q91 0 91 28q-34 -16 -110 -16q-60 0 -82 5q-3 -4 1 -7q5 -4 13 -5t13 -1q5 -1 9 -1q10 0 31 -1q22 -2 34 -2zM968 544
q-12 48 -46 70q-12 -8 -25 -10q-24 -5 -36 8q-13 -5 -22 -13q-9 -9 -13 -15q-5 -7 -8 -21q-4 -15 -5 -21t-3 -24q-1 -11 -9 -29q-8 -19 -10 -28q-2 -14 11 -22t32 -9q20 -2 38 -3q19 -1 28 0q114 3 100 41q-1 2 -3 5q-20 34 -29 71zM944 634q5 -11 35 6q23 14 23 18
q0 6 -4 11q-5 5 -13 10q-9 6 -10 7q-2 1 -5 4q-3 4 -5 6t-4 3q-3 2 -5 1q-3 -1 -5 -5q0 -2 -2 -3q2 -15 2 -32q-1 -13 -8 -24zM585 572q37 0 70 -9q34 -10 61 -28q28 -19 42 -50q14 -32 10 -72q-7 -54 -48 -86t-97 -34q-47 -2 -88 11q-42 14 -71 48t-27 83q2 60 34 98
q32 39 89 39q9 0 -1 -5q-3 -2 -5 -2q-32 1 -57 -18q-25 -20 -36 -48q-11 -29 -13 -61q-2 -33 13 -59q23 -45 75 -66q52 -22 105 -13q60 11 93 55t16 103q-31 108 -170 107q-9 0 0 5q3 2 5 2zM553 555q22 -8 4 -26q-12 -13 -25 -12q-22 0 -24 16q-2 13 17 19q6 2 7 -1
q1 -2 -3 -4q-1 0 -2 -1q-12 -3 -3 -16q6 -8 14 -7q4 1 8 5t5 9q2 8 -9 12q-5 2 5 6q4 1 6 0zM492 474q-8 -1 -14 4q-7 5 -7 13q0 14 14 19h1q8 4 16 1q9 -4 10 -13t-4 -16q-6 -7 -16 -8zM487 506q-9 -2 -8 -14q2 -12 10 -13q13 -3 14 11q2 14 -7 17q-3 1 -7 0q-1 -1 -2 -1z
M479 424q-17 0 -15 18q3 17 16 18h5q2 2 5 2q9 1 13 -5q4 -7 1 -15q-7 -19 -25 -18zM480 456q-3 1 -5 -2q-2 -4 -2 -8q-1 -5 -1 -7q1 -6 5 -10q5 -4 10 0q5 3 8 10t2 13q-2 7 -10 7h-1q-3 -4 -6 -3zM498 375q-9 -1 -16 5q-8 6 -6 15q2 7 6 10q5 3 11 0q1 2 4 3q8 1 14 -2
q6 -4 7 -12q0 -8 -6 -13q-6 -6 -14 -6zM488 400q-3 2 -3 -2q-1 -9 2 -12q4 -6 10 -6q7 -1 11 5q4 8 0 13q-4 6 -12 5h-1q2 -2 -3 -3q-3 -1 -4 0zM528 364q-2 0 -2 -4q1 -5 2 -7q4 -11 12 -11q9 -1 13 4q5 6 3 12q-3 6 -12 7q-5 0 -1 4q2 1 4 1q9 -1 15 -6t3 -13
q-4 -8 -12 -12q-9 -4 -18 -2q-14 2 -16 19q-2 13 9 14q2 0 4 -1q5 -1 0 -4q-2 -1 -4 -1zM594 323q-7 1 -11 7t-2 13q5 13 23 14h2l-6 -4q-12 -1 -12 -13q1 -12 13 -14q12 -1 19 9q7 11 -4 19q-1 1 2 2q4 2 6 1q7 -6 7 -13t-7 -13q-14 -12 -30 -8zM652 374q4 3 7 0q1 -1 0 -2
q-8 -6 -5 -13q3 -8 11 -10q8 -3 15 1q7 5 9 13q3 9 -2 16q-10 11 -31 -2q-4 -3 -7 0q-1 1 1 3q28 17 41 5q9 -7 7 -18q-2 -12 -11 -19q-18 -13 -34 -1q-17 13 -1 27zM694 430q-3 -3 -1 -6q2 -4 5 -6q11 -8 19 4q6 10 1 22q-6 12 -18 8q-4 -1 -4 1q-1 2 3 3q21 7 27 -12
q6 -20 -11 -31q-14 -9 -26 3q-11 11 2 17q2 1 4 1q4 -2 -1 -4zM659 507q2 3 7 1q-10 -14 -6 -25q4 -8 13 -8t14 6q9 11 2 22q-7 12 -21 9q-3 -1 -4 0q0 2 1 3h2q23 5 30 -10q9 -16 -7 -27q-7 -6 -17 -7t-17 4q-11 13 3 32zM627 511q-16 -8 -32 3q-17 11 -8 28q2 2 6 2
q0 1 1 1q8 6 19 6t17 -8q7 -6 6 -16q-1 -11 -9 -16zM595 541q-6 -10 2 -20t20 -8q7 1 10 9q3 9 -2 15q-11 15 -26 5q-1 -1 -4 0v-1zM221 651q1 -2 -3 -3q-2 0 -2 1q-4 7 -4 32q2 1 6 1q-1 -25 3 -31zM224 583l5 1q-18 -26 -24 -62l-6 -2q7 37 25 63zM196 486q-6 -8 -6 -16
q-1 -8 7 -13q4 -2 -1 -4h-2q-10 6 -10 15q1 10 8 19q1 2 4 1q2 -1 0 -2zM223 536q1 3 4 2q1 -1 1 -2q-3 -8 -2 -38q-2 -1 -6 0q0 30 3 38zM212 467l4 -2q2 -2 -1 -3q-2 -1 -3 0q-1 0 -2 1t-2 1q-2 1 1 2q2 1 3 1zM400 365q-1 0 -3 1q-3 1 -4 1q-4 2 1 4h2q1 -1 3 -1
q3 -1 4 -2q4 -1 -1 -3h-2zM398 355q-5 0 -10 1q-2 1 1 2q2 1 3 1h4q3 -1 4 -1q4 0 1 -2q-2 -1 -3 -1zM396 343q-5 0 -9 1q-3 1 1 3q2 1 3 1q3 -2 7 -2q5 0 0 -2q-1 -1 -2 -1zM397 335q4 -1 0 -3q-1 -1 -2 0q-3 0 -5 1q-1 1 1 2t4 1q0 -1 1 -1h1zM386 320l4 3h1q1 -1 2 -1
q2 -1 3 -1q2 -1 -3 -3q-4 0 -7 2zM390 302q-5 0 -10 1q-3 1 -2 3q2 2 4 1q4 -1 8 -1q2 0 2 -1q0 -2 -2 -3zM407 290l2 -2q0 -2 -3 -2q-19 0 -30 1q-3 1 2 4q10 -1 29 -1zM398 275q2 0 2 -1q2 -2 -1 -3q-7 -2 -20 -2q-3 0 1 3q11 0 18 3zM391 259h-10q-4 0 0 2h12q1 0 -2 -2z
M395 246q2 -1 -3 -2q-5 0 -11 2l4 2q5 -2 10 -2zM398 232q-8 -1 -13 3l5 2q4 -4 9 -3zM401 223q2 1 3 0q2 -2 -2 -3q-5 -1 -12 -1q-4 0 0 3h2q7 1 9 1zM440 490q1 -1 -1 -2t-4 -1q-1 1 -4 2t-4 2t1 2q3 1 4 0q1 0 4 -1q3 -2 4 -2zM441 502q2 -1 -2 -3q-4 0 0 2q1 1 2 1z
M388 652q-52 0 -90 8q-3 1 1 3h2q33 -7 89 -8q7 0 20 -1q14 -1 22 -1h20q12 1 22 3h2l-3 -3q-13 -3 -26 -3q-14 0 -32 1q-19 1 -27 1zM731 645q-3 0 0 3q11 0 30 3q20 4 29 5h16v0l20 1q19 1 16 4q2 0 3 -1t-2 -3q-10 -3 -30 -3q-20 -1 -24 -2q-3 0 -24 -3q-22 -4 -34 -4z
M899 633q-2 0 -1 2t3 7q2 6 4 9q2 1 5 0q-1 -2 -5 -12q-1 -3 3 -3q4 -1 7 0q2 0 2 -3q-8 -2 -18 0zM860 591l2 -1q0 -1 -2 -2q-25 -8 -25 -76q-1 -3 -6 -1q1 70 31 80zM831 450l2 -2q0 -2 -2 -2q-16 0 -18 11q-1 8 7 23q2 0 5 -1q-17 -29 6 -29zM862 510q0 3 5 1v-12
q0 -3 -5 -2v13zM966 507q0 -1 -1 -2q-3 -2 -4 0q-3 5 -5 15q-3 11 -4 13l4 2h2q0 -3 2 -13q3 -10 6 -15zM974 447q-2 -1 -2 1q-1 2 1 3q15 5 13 18q0 2 2 3q3 1 3 -1q3 -18 -17 -24zM827 415q5 -3 10 -3q6 0 14 1t11 1q4 0 0 -3q-1 -1 -2 -1h-11q-9 -1 -15 -1q-6 1 -11 3
q-2 1 4 3zM194 426q11 -2 21 -5q4 -2 -1 -3q-1 -1 -2 -1q-10 4 -21 6q-3 1 1 3q2 1 2 0zM163 696q1 -9 -5 -17l-5 -1v1q5 8 5 15q1 2 5 2zM179 650q2 -2 -2 -3q-2 0 -3 1q-6 5 -14 7q-4 1 1 3h2q9 -2 16 -8zM986 649h1v-1l-2 -2q-9 -1 -21 -5l-2 1q14 5 24 7zM800 358
q-6 -8 -15 -13h-4q8 5 14 12zM789 336h5v-1q-2 -3 -7 -6q-2 1 -2 3q0 1 1 2q2 1 3 2zM809 318l-3 2q1 2 3 2l2 -2q0 -2 -2 -2zM804 306q-3 -1 -3 1q-1 1 2 2l3 3q1 2 4 1q1 -1 0 -3q-3 -3 -6 -4zM808 293q-1 0 -3 2q6 5 7 6l5 1v-1q-2 -6 -9 -8zM812 287h5v-1l-5 -5h-5l1 2z
M800 266q-2 1 -3 2q9 4 15 8q2 1 3 -2q-6 -4 -15 -8zM796 253q-2 0 -2 3q5 2 14 6q10 4 15 7q2 0 2 -4q-5 -2 -14 -6zM807 248q2 0 4 -1q-7 -4 -10 -7h-5v1q3 2 11 7z" />
    <glyph glyph-name="uniE909" unicode="&#xe909;" 
d="M533 853q71 -6 135 -40q65 -35 109 -87t63 -122q19 -71 3 -143q-28 -124 -130 -204q-103 -81 -229 -70q-71 6 -135 40q-64 35 -108 87q-45 52 -64 122q-19 71 -2 143q28 126 127 201t228 73h3zM519 198q68 3 129 35q62 32 104 82q43 50 62 116q20 67 7 135
q-22 115 -104 190t-198 85q-71 1 -136 -29q-66 -30 -111 -79q-46 -50 -67 -119q-22 -69 -9 -140q15 -77 59 -141q45 -64 115 -101q70 -38 149 -34zM416 533q5 -4 8 -10q4 -6 4 -11q0 -3 -1 -7q0 -5 -1 -6q-1 -5 -4 -11q-4 -7 -8 -13q-5 -6 -10 -10q-5 -5 -8 -7q-3 -3 -8 -5
t-12 -4q-14 -5 -24 -5q-9 0 -17 3q-7 3 -7 12q0 5 2 7q3 3 10 3q8 0 13 -2q6 -3 11 -3q2 0 9 1q7 2 11 5t8 7q5 5 9 10q4 6 6 11q3 6 3 11q0 7 -5 12q-6 6 -14 9q-8 4 -13 4q-9 0 -13 -1l-8 -4q-5 -2 -8 -2t-6 2q-4 3 -4 6t1 5t2 3q1 2 3 3t4 1q2 1 5 1q2 1 5 1q6 0 7 1
q7 4 15 10q4 3 7 6t7 6q6 7 6 11q0 5 -5 8t-15 3h-8v0l-8 -1l-8 -2q-5 -1 -9 -2t-8 -3t-7 -3q-3 -2 -5 -4l-5 -5q0 -1 -1 -4v-10v-3q-1 -2 -1 -4v-16v0l-1 -6v-5v-3q-1 -3 -1 -4q-1 -7 -2 -13v-29q0 -10 -2 -14t-8 -4q-13 0 -13 21q0 3 3 17q3 15 3 18q0 5 1 9v8q1 9 1 10
q1 2 2 12v7q1 2 1 3q0 3 -1 6v2q-1 2 -1 3q0 7 3 13q4 7 6 7q4 1 7 2t6 1q12 4 22 8q7 2 10 3q5 2 10 2q3 1 7 1h15q2 0 5 -1q4 -1 7 -3q4 -2 7 -4q4 -3 5 -5q2 -2 3 -7v-4q1 -2 1 -3q0 -9 -7 -18q-8 -9 -22 -20q8 -2 15 -5q7 -4 13 -9zM764 551h1q1 -1 1 -3q0 -4 -2 -6
q-3 -2 -5 -3q-4 -2 -8 -3q-5 -2 -9 -2q-5 -1 -9 -2t-9 -1q-3 -1 -9 -1q-5 -1 -9 -1q-5 0 -9 -1t-6 -2q-2 -8 -5 -18q-3 -9 -4 -17q-1 -5 -1 -6q-1 -6 -2 -9q0 -5 -1 -8v-5q0 -5 1 -7t3 -3l3 -3q2 -1 2 -3t-1 -3l-4 -2l-4 -2q-3 -1 -5 -1q-3 0 -5 2l-4 4q-2 3 -3 6q-1 4 -1 8
t1 10t2 11q2 6 3 12t3 12q0 4 1 5v3l1 2v2l1 2v2q0 2 -1 3q-2 -2 -3 -4q-1 0 -4 -4l-4 -4q-1 -2 -4 -4q-2 -3 -5 -5l-15 -15q-5 -4 -9 -8q-5 -4 -9 -7l-8 -6q-8 -6 -14 -12q-7 -5 -13 -10q-14 -8 -21 -8q-3 0 -6 1q-4 1 -4 4q0 7 5 10q5 4 16 8q10 5 15 9q6 4 6 11
q0 3 -7 14q-4 5 -7 10l-4 8q-1 1 -2 4q-6 -7 -7 -8q-7 -8 -14 -15q-8 -7 -16 -13q-9 -7 -17 -11q-9 -5 -17 -7t-16 -2q-17 0 -26 9q-9 10 -9 30q0 16 5 32t17 30q2 3 5 5l6 4q4 2 7 3t7 1h2h3q2 -1 3 -2q2 -1 3 -2q3 -3 5 -7t2 -8q0 -5 -1 -9q-2 -5 -5 -10t-8 -10t-12 -11
l-4 -4q-4 -3 -6 -5q-6 -4 -13 -9q0 -11 6 -16t17 -5q6 0 12 1q6 2 12 5q5 2 11 5q6 4 10 7q9 7 17 13q7 6 14 14l5 5l-1 1q0 7 3 15q1 4 4 9l6 8q3 3 6 5q4 2 7 2q9 0 9 -11q0 -4 -3 -8l-8 -8q-3 -2 -5 -4l-3 -3q0 -5 3 -13q2 -3 4 -8l6 -8q3 -5 5 -9l3 -6h1q2 0 5 2
q4 2 9 6q5 3 11 8l12 10l10 10q-2 0 -3 -1h-3h-6q-3 1 -5 2q-2 2 -2 4q-1 2 -1 6q0 1 1 2q2 1 4 1q2 1 4 1h8q4 0 7 1h11l3 1v0l1 2l2 3q0 2 1 7q1 1 1 4q1 4 2 5q1 5 2 9q1 5 2 8q1 2 1 6q1 4 1 7q1 4 2 6q0 3 2 6q2 5 7 5q8 0 8 -8q0 -6 -2 -13q-6 -16 -8 -26t-2 -14t4 -4
h9q4 1 8 1q5 0 9 1q8 1 11 1t8 1q6 2 7 2q2 0 5 1t5 1h4zM469 516q-1 -3 -1 -5q2 2 5 4q4 3 5 4q4 3 8 7q3 2 6 5q2 2 4 5q3 3 4 6q1 4 1 7v3l-1 3v0l-2 1q-1 2 -2 1q-6 0 -11 -6q-6 -7 -11 -18q-1 -2 -2 -5q-1 -2 -2 -6q-1 -3 -1 -6zM1024 154q4 -6 -4 -9q-8 -4 -14 -3
q-1 0 -23 3q-22 4 -30 5q-9 1 -26 2q-18 1 -30 -2q-12 -4 -20 -11q-21 -17 -31 -35t-17 -49q-8 -32 -12 -45q-2 -5 -12 -8q-11 -3 -12 4q-4 24 -17 51q-13 28 -35 65q-23 37 -30 49q-76 -44 -163 -51q-113 -10 -218 39q-7 -12 -32 -53q-25 -42 -39 -71t-18 -52q-1 -6 -11 -8
t-13 4q-4 10 -9 32t-10 38q-6 17 -14 34q-9 17 -24 27q-15 11 -35 12q-46 3 -113 -7q-4 -1 -8 1q-5 3 -2 7q23 34 70 103q48 69 72 104q-48 87 -45 187q3 101 51 190q48 90 132 147q85 57 187 66q118 10 220 -39t164 -144t65 -214q-2 -83 -36 -160q4 0 5 -2q19 -28 137 -207
zM256 60q30 59 55 108q-99 53 -156 143q-6 -9 -30 -43q-24 -35 -37 -54q-30 -43 -47 -68q-1 -3 -4 -7q-4 -5 -5 -7l13 2v0l16 2q16 3 15 3q-1 -1 17 1q19 3 17 2q-3 -2 16 -1t14 -2q-5 -4 14 -4q19 -1 10 -7q41 -31 56 -59q9 -15 13 -48q3 6 11 19t12 20zM430 137
q90 -18 175 4q85 23 147 75q63 53 101 132q39 79 41 169q-2 89 -40 170q-38 82 -108 140t-159 76q-86 17 -172 -6t-151 -74q-65 -52 -104 -131q-40 -79 -37 -169q3 -108 57 -202q55 -95 146 -146q9 0 9 -5q45 -23 95 -33zM878 158q34 16 113 3l-120 180q-50 -97 -139 -157
q6 -12 34 -59q28 -48 39 -74q6 21 9 32q4 12 12 28q8 17 21 28t31 19z" />
    <glyph glyph-name="uniE90A" unicode="&#xe90a;" 
d="M874 789q-37 37 -79 65q-41 28 -86 47q-46 19 -95 28q-49 10 -102 10t-102 -10q-49 -9 -94 -28q-46 -19 -87 -47q-42 -28 -79 -65t-66 -79q-28 -41 -46 -86q-19 -46 -29 -95q-9 -49 -9 -102t9 -103q10 -49 28 -94q19 -45 47 -87q29 -41 66 -79q37 -37 79 -65
q41 -28 86 -46q46 -19 95 -29q49 -9 102 -9t102 9q49 10 94 28q46 19 87 47q42 28 79 65q37 38 66 79q28 42 46 87q19 45 29 95q9 49 9 102q0 52 -9 102q-10 49 -28 94q-19 46 -47 87q-29 42 -66 79v0zM819 120q-32 -32 -67 -56t-73 -39q-39 -16 -80 -24q-42 -8 -87 -8
t-87 8t-80 23q-38 16 -73 40t-67 56t-55 67q-24 35 -40 73t-24 80q-7 41 -7 87q0 45 7 87q8 41 24 79q16 39 40 73q23 35 55 67t67 56t73 39q38 16 80 24t87 8t87 -8q41 -8 79 -23q39 -16 74 -40t67 -56t55 -67q24 -35 40 -73t24 -79q7 -42 7 -87q0 -46 -7 -87
q-8 -42 -24 -80t-40 -73q-23 -35 -55 -67v0zM467 605h90v90h-90v-90zM467 159h90v357h-90v-357z" />
    <glyph glyph-name="uniE90B" unicode="&#xe90b;" 
d="M490 451q-51 0 -97 19q-45 20 -79 53t-54 77q-20 45 -20 95t20 95q20 44 54 77t79 52q46 20 97 20q52 0 97 -20q46 -19 80 -52t54 -77q19 -45 19 -95t-20 -95q-19 -44 -53 -77t-80 -53q-45 -19 -97 -19v0zM490 867q-73 0 -124 -50q-52 -51 -52 -122t51 -121
q52 -51 125 -51t125 50q52 51 52 122t-52 121q-52 51 -125 51v0zM671 403h-318q-66 0 -124 -25t-101 -68q-44 -44 -69 -101q-25 -58 -25 -124v-170h956v170q0 66 -25 124q-25 57 -68 100q-44 44 -102 69t-124 25v0zM920 -9h-816v92q0 50 20 95q19 44 52 77t78 53
q44 19 95 19h326q51 0 95 -19q45 -20 78 -53t52 -77q20 -45 20 -95v-92z" />
    <glyph glyph-name="uniE90C" unicode="&#xe90c;" 
d="M804 172q-5 4 -11 5q-6 2 -13 2q32 30 57 66q26 36 43 76q18 41 28 85q9 45 9 91q0 92 -35 172t-95 140t-140 95q-81 35 -172 35q-92 0 -173 -35q-80 -35 -140 -95t-95 -140t-35 -172q0 -91 35 -171t95 -140t140 -95q81 -35 173 -35q77 0 146 25q70 25 127 70
q-2 -7 -1 -13q1 -7 4 -13l20 -33q20 -32 50 -71q30 -40 64 -73t63 -33q16 -1 30 11q14 13 14 28q0 29 -29 66q-30 38 -65 71q-35 34 -65 58zM475 130q-77 0 -144 29t-117 79t-79 117t-29 143q0 75 29 142t79 117t117 79t144 29q76 0 143 -29t117 -79t79 -117t29 -142
q0 -77 -29 -143q-29 -67 -79 -117t-117 -79t-143 -29v0z" />
    <glyph glyph-name="uniE90D" unicode="&#xe90d;" 
d="M305 862l158 -212l-50 -39q-42 -33 -49 -87q-8 -54 24 -97l104 -140q19 -26 46 -39q28 -13 58 -13q20 0 40 6q20 7 38 20l50 39l158 -212l-58 -45q-35 -26 -76 -39q-42 -13 -86 -13q-65 0 -126 27q-62 28 -101 81l-241 323q-32 43 -44 98t-5 110q8 55 34 105t68 82z
M305 939q-12 0 -23 -4q-12 -4 -22 -12l-58 -44q-56 -43 -89 -106t-42 -132q-10 -70 5 -140q16 -69 58 -126l240 -323q24 -32 56 -58q32 -25 69 -43t78 -27q42 -9 85 -9q58 0 111 17q54 17 96 50l58 44q25 20 29 51q5 32 -14 57l-158 212q-9 12 -22 20t-28 10h-5q-3 1 -5 1
q-13 0 -24 -4q-12 -4 -22 -12l-50 -39q-9 -6 -17 -8q-9 -3 -16 -3q-12 0 -23 6q-12 6 -19 16l-105 140q-13 18 -10 40q3 23 21 37l50 38q25 19 29 50q4 32 -15 58l-157 212q-10 12 -22 20q-13 8 -28 10h-5q-3 1 -6 1v0v0z" />
    <glyph glyph-name="uniE90E" unicode="&#xe90e;" 
d="M1024 699h-218l76 -563q1 -2 0 -5q-1 -10 -11 -9q-16 2 -36 2q-80 0 -135 -44t-55 -108q0 -4 -3 -7t-8 -3h-244q-4 0 -7 3q-4 3 -4 7q0 64 -55 108t-135 44q-20 0 -35 -2q-11 -1 -12 9v5l76 563h-218v235h1024v-235zM1003 720v193h-226l26 -193h200zM414 909v-83
q0 -38 29 -65q29 -28 70 -28t70 27q29 28 29 66v83h-198zM21 720h200l26 193h-226v-193zM624 -17q5 69 65 115q61 47 146 47q12 0 24 -1l-103 765h-123v-83q0 -47 -35 -80q-36 -34 -85 -34q-50 0 -85 33q-35 34 -35 81v83h-125l-103 -765q13 1 24 1q86 0 146 -46
q60 -47 65 -116h224zM636 489q53 -4 75 -30q10 -12 9 -25q-1 -18 -23 -30q-23 -12 -56 -12h-12l2 -1q33 -39 29 -72q-2 -16 -13 -25q-9 -7 -22 -7q-37 0 -73 42l-2 4q-4 -33 -20 -55t-36 -22h-4q-14 2 -25 15q-21 26 -16 74v4q-4 -3 -6 -5q-35 -22 -66 -22q-25 0 -36 15
q-8 12 -5 27q6 31 46 58q-53 7 -72 31q-8 9 -6 19q1 16 20 24q20 9 51 9h9q-32 29 -35 56q-1 13 7 23q9 10 27 10q32 0 70 -29q6 -4 12 -9v5q0 36 14 60q14 25 35 25t35 -24q15 -25 15 -61v-2l3 3q36 35 72 35q16 0 25 -9q11 -9 11 -25q0 -34 -36 -69l-5 -5h2zM581 547
q-30 -29 -29 -54q0 -6 3 -10q4 -3 12 -3h4q10 4 22 7q16 8 31 22q30 29 30 53q0 7 -4 10q-4 4 -11 4q-27 0 -58 -29zM513 477q-13 0 -21 -7q-9 -8 -9 -19t8 -19q9 -8 21 -8q13 0 21 8q9 8 9 19t-8 18q-9 8 -21 8zM515 624q-11 0 -20 -18q-9 -19 -9 -45t9 -44q9 -19 19 -19
q11 0 19 18q9 19 9 45t-8 44q-9 19 -19 19zM370 563q3 -23 38 -50q15 -11 30 -18q3 -1 7 -3q12 -4 21 -4q8 0 11 3q2 3 1 7q-2 23 -38 50q-32 25 -57 25q-9 0 -11 -3q-2 -2 -2 -7zM327 466q14 -18 62 -23q10 -1 19 -1t17 1q10 3 19 4q14 4 15 9q0 1 -2 4q-5 6 -19 12
q-4 2 -7 3q-17 6 -37 8q-10 1 -19 1q-16 0 -28 -2q-12 -3 -17 -6q-5 -4 -5 -6q0 -1 2 -4zM431 362q19 12 30 27q4 7 9 14l2 6q1 7 -2 11q-4 6 -18 6h-3q-9 -3 -20 -4q-16 -5 -31 -15q-36 -23 -41 -47q-1 -7 1 -10q5 -7 19 -7q25 0 54 19zM529 337q2 18 -1 33q-3 7 -4 13
q-3 8 -6 13q-6 6 -11 7h-2q-8 0 -17 -12q-3 -6 -8 -13q-8 -16 -10 -35q-4 -39 12 -59q5 -6 10 -7h2q10 0 21 17q11 18 14 43zM639 321q2 25 -24 56q-12 14 -26 23q-12 5 -21 10q-5 2 -9 2q-6 0 -10 -3t-5 -10q0 -4 1 -10q2 -6 4 -13q6 -17 19 -33q30 -34 57 -34q6 0 9 2
q4 3 5 10zM699 436q0 4 -4 9q-17 20 -61 23q-6 1 -11 1q-12 0 -24 -3q-11 -5 -21 -7q-13 -6 -13 -13q-1 -4 4 -9q3 -4 7 -7q11 -3 22 -10q14 -5 32 -6q5 -1 11 -1q24 0 40 7q17 7 18 16z" />
    <glyph glyph-name="uniE90F" unicode="&#xe90f;" 
d="M866 611q21 -8 34 -25q14 -18 14 -40v-540q0 -29 -23 -49q-23 -21 -55 -21h-317q-32 0 -55 20q-23 21 -23 50v540q0 22 13 39q14 18 35 26q-2 5 -2 10v100q0 13 10 22q11 10 25 10h10q3 31 27 56q24 26 60 38v53q0 25 19 42q20 18 47 18q28 0 48 -17q20 -18 20 -43v-55
q33 -13 54 -38q22 -25 25 -54h2q14 0 24 -9q10 -10 10 -23v-100q0 -5 -2 -10zM635 826q-32 -8 -53 -28q-22 -21 -25 -45h250q-3 23 -22 42q-20 20 -49 29q-10 4 -8 15v61q0 15 -12 25q-13 10 -30 10q-18 0 -30 -10t-12 -25v-60q2 -11 -9 -14zM512 721v-100q0 -3 2 -5h327
q2 2 2 5v100q0 7 -9 7h-312q-10 0 -10 -7zM889 6v540q0 17 -12 29q-13 13 -31 16q-6 -2 -12 -2h-312q-6 0 -12 2q-19 -3 -31 -15q-13 -13 -13 -30v-540q0 -19 15 -32q16 -13 39 -13h316q22 0 37 13q16 13 16 32zM522 447q-6 0 -9 3q-4 4 -4 9q0 6 3 9q4 4 10 4h79q5 0 8 -3
q4 -4 4 -9q0 -6 -3 -9q-4 -4 -9 -4h-79zM522 379q-6 0 -9 3q-4 4 -4 9t3 8q4 4 10 4h39q5 0 8 -3q4 -4 4 -9t-3 -8q-4 -4 -9 -4h-39zM522 308q-6 0 -9 3q-4 4 -4 9t3 8q4 4 10 4h73q5 0 8 -3q4 -4 4 -9t-3 -8q-4 -4 -9 -4h-73zM617 267q5 0 8 -3q4 -4 4 -9t-3 -8
q-4 -4 -9 -4h-95q-6 0 -9 3q-4 4 -4 9t3 8q4 4 10 4h95zM522 165q-6 0 -9 3q-4 4 -4 9t3 9q4 4 10 4h39q5 0 8 -4q4 -4 4 -9t-3 -8q-4 -4 -9 -4h-39zM595 119q5 0 8 -3q4 -4 4 -9q0 -6 -3 -9q-4 -4 -9 -4h-73q-6 0 -9 3q-4 4 -4 9q0 6 3 9q4 4 10 4h73zM255 920
q59 0 101 -54q42 -55 42 -132q0 -74 -38 -127q-39 -54 -95 -59v-146q20 -4 33 -20t13 -37v-340q0 -23 -16 -40q-17 -17 -41 -17t-41 17t-17 40v340q0 21 13 37q14 16 34 20v146q-56 5 -94 58q-39 54 -39 128q0 77 42 131q43 55 103 55zM289 345q0 15 -10 25q-11 11 -25 11
q-15 0 -25 -10q-10 -11 -10 -26v-340q0 -14 10 -24q10 -11 24 -11q15 0 25 10q11 11 11 25v340zM255 569q50 0 85 48q36 49 36 117t-35 116q-36 48 -86 48q-51 0 -87 -48t-36 -116t36 -116q36 -49 87 -49z" />
    <glyph glyph-name="uniE910" unicode="&#xe910;" 
d="M151 788q37 38 79 66q41 28 86 47t94 28q49 10 102 10t102 -10q48 -9 93 -28q46 -19 87 -47q42 -28 79 -66q38 -38 66 -79q28 -42 47 -87t29 -94q9 -49 9 -101q0 -53 -9 -102q-10 -49 -29 -94t-47 -87q-28 -41 -66 -79q-37 -37 -79 -66q-41 -28 -86 -47q-46 -19 -94 -28
q-49 -9 -102 -9t-102 9t-94 28t-86 47q-42 29 -79 66q-38 38 -66 79q-29 42 -47 87q-19 45 -29 94q-9 49 -9 102q0 52 9 101q10 49 28 94q19 45 48 87q28 41 66 79zM813 728q-31 31 -66 55q-34 23 -71 39q-38 16 -79 23q-41 8 -85 8t-85 -8q-41 -7 -78 -23q-38 -16 -72 -39
q-35 -24 -66 -55q-32 -31 -55 -66q-24 -34 -39 -72q-16 -38 -24 -78q-8 -41 -8 -85t8 -85t23 -78q16 -38 40 -73q23 -34 55 -66q31 -31 65 -55q35 -23 72 -38q38 -16 79 -24t85 -8t85 8t78 23q38 16 72 39q35 24 66 55q32 32 55 66q24 35 39 72q16 38 24 79t8 85t-8 85
q-8 40 -23 78q-16 38 -40 72q-23 35 -55 66v0zM469 768h86v-299h213v-85h-299v384z" />
    <glyph glyph-name="uniE911" unicode="&#xe911;" 
d="M388 71l-96 1l-292 292l97 97l245 -244l587 565l95 -99z" />
    <glyph glyph-name="uniE912" unicode="&#xe912;" 
d="M1017 -34q1 -2 1 -5q0 -7 -5 -12q-5 -6 -12 -6h-574q-8 0 -13 6t-4 14q4 25 10 50q20 87 62 166q43 80 103 135q61 56 123 61h3q67 -5 133 -68q67 -63 112 -155q46 -92 61 -186zM448 -22h532q-16 83 -57 164q-41 82 -99 138t-114 60q-54 -4 -107 -56q-54 -52 -92 -126
q-39 -75 -58 -153q-3 -14 -5 -27zM385 277q8 0 13 -7q6 -7 4 -15l-73 -306q-4 -13 -17 -13l-224 3q-14 0 -16 14l-65 308q-2 8 3 14q5 7 14 6l85 -1l31 83q3 9 11 11v413h-47q-8 0 -13 5t-5 13v138q0 7 5 12t13 5h203q7 0 12 -5t5 -12v-138q0 -8 -5 -13t-12 -5h-56v-416h5
q13 0 16 -12l23 -81zM190 925v-34h27v34h-27zM121 822h169v103h-39v-51q0 -7 -5 -12q-5 -6 -12 -6h-61q-8 0 -13 5q-5 6 -5 13v51h-34v-103zM217 787h-31v-413l18 -1h13v414zM167 339l-25 -69l59 -46l62 41l-20 72l-39 2h-37zM298 -29l65 271l-71 1l-82 -55q-4 -3 -10 -3
t-10 4l-73 57l-72 1l57 -274zM779 233q0 -17 -15 -29q-16 -13 -37 -13q-22 0 -37 12q-15 13 -15 30q0 18 15 30q15 13 36 13q22 0 37 -12q16 -13 16 -31zM727 214q12 0 20 5q9 6 9 14t-8 14q-9 6 -21 6t-20 -6q-9 -6 -9 -14t8 -13q9 -6 21 -6zM615 120q18 0 30 -11
q13 -12 13 -28q0 -17 -12 -28q-13 -12 -31 -12t-30 11q-13 12 -13 28q0 17 12 28q13 12 31 12zM614 64q9 0 15 5t6 12t-6 11q-6 5 -14 5q-9 0 -14 -4q-6 -5 -6 -12t5 -12q6 -5 14 -5zM778 64q15 0 25 -9t10 -22t-10 -22q-10 -10 -24 -10q-15 0 -25 9q-10 10 -10 23t10 22
t24 9zM778 24q12 0 12 8q0 9 -11 9q-12 0 -12 -8q0 -9 11 -9zM819 146q0 8 8 13q8 6 20 6q13 0 21 -5q8 -6 8 -14t-8 -13t-20 -5q-13 0 -21 5t-8 13zM847 153q-7 0 -12 -2q-5 -3 -5 -5t5 -4q5 -3 12 -3q8 0 13 2q5 3 5 5t-5 4q-5 3 -13 3z" />
    <glyph glyph-name="uniE913" unicode="&#xe913;" 
d="M994 -28q7 0 12 -5q6 -5 6 -12q0 -8 -5 -13q-6 -6 -13 -6h-964q-7 0 -12 5q-6 6 -6 13q0 8 5 13q6 5 13 5h151q4 15 8 28q31 93 106 172t163 98v180q-23 -12 -46 -20q-40 -13 -80 -13q-49 0 -93 19q-61 25 -105 84q-45 59 -65 141l-2 11l10 5q24 10 48 18q57 19 110 19
q71 0 125 -31q64 -35 98 -114v192q0 8 5 13t12 5q8 0 13 -5q6 -5 6 -13v-36q10 55 37 101t66 74q78 60 193 60q40 0 82 -8q30 -5 60 -14l12 -4l-1 -13q-10 -99 -53 -175q-44 -77 -112 -117q-66 -39 -146 -39q-28 0 -57 5q-41 8 -79 26l-2 1v-348q52 -3 105 -31t95 -70
q42 -43 73 -96t44 -105h183zM615 875q-40 -29 -65 -78t-30 -108q57 68 121 82l2 1q36 7 52 11q17 4 37 9q21 5 31 10t15 10q5 6 14 4q4 0 8 -4q11 -11 0 -22q-14 -15 -43 -23q-30 -9 -107 -26h-3q-67 -15 -123 -98q28 -12 57 -17q100 -18 181 30q59 34 98 101t50 154
q-22 7 -44 11q-39 7 -76 7q-104 0 -175 -54zM403 457q23 7 44 19q-55 62 -111 67h-2q-66 5 -92 9t-39 15q-5 4 -5 9q-1 6 2 11q3 3 7 5q7 2 13 -3q9 -7 33 -10q25 -4 83 -8h2q53 -4 107 -53q-11 47 -37 84t-61 56q-49 28 -112 28q-49 0 -101 -17q-17 -6 -34 -13
q19 -71 58 -121q39 -51 92 -73q73 -31 153 -5zM383 -24q13 0 22 9t9 21q0 13 -9 21q-9 9 -21 9q-13 0 -22 -8q-9 -9 -9 -21q0 -13 9 -22t21 -9zM440 -28h334q-27 97 -110 179q-84 83 -172 87q-84 -5 -161 -81q-78 -77 -108 -168q-2 -8 -5 -17h109q-10 16 -10 34q0 28 19 47
q20 20 47 20q28 0 47 -19q20 -20 20 -48q0 -18 -10 -34zM589 110q15 0 25 -10q10 -11 10 -25v-3q0 -15 -10 -25q-10 -11 -24 -11q-15 0 -25 10q-11 11 -11 26v3q0 14 10 24q11 11 25 11zM431 167q11 0 19 -8t8 -19t-8 -19q-8 -9 -19 -9h-6q-11 0 -19 8q-8 9 -8 20t8 19t19 8
h6zM428 132q6 2 6 8t-6 8q-6 -2 -6 -8t6 -8z" />
    <glyph glyph-name="uniE914" unicode="&#xe914;" 
d="M943 739h-193q-7 42 -28 79q-21 36 -52 63t-71 42q-39 16 -82 16q-44 0 -83 -16q-39 -15 -70 -42t-52 -63q-22 -37 -29 -79h-62v-1h-139q-14 0 -23 -9q-10 -10 -10 -24v-635q0 -64 44 -109q45 -46 109 -46h620q64 0 108 45q45 46 45 110v635q0 14 -9 24q-10 10 -23 10v0z
M517 871q59 0 105 -38t60 -94h-331q15 56 60 94q46 38 106 38zM910 70q0 -37 -25 -63q-26 -26 -63 -26h-620q-37 0 -62 26q-26 26 -26 63v602h165v-149h66v149h343v-149h66v149h156v-602z" />
    <glyph glyph-name="uniE915" unicode="&#xe915;" 
d="M512 -85q-11 0 -20 4q-10 5 -16 13q-39 54 -77 110q-38 57 -75 116q-44 69 -78 127q-34 59 -57 106q-29 65 -43 113q-15 48 -15 82q0 73 28 136t83 114t122 77q68 26 148 26q79 0 147 -26t123 -77t83 -114t28 -136q0 -34 -14 -82q-15 -48 -44 -112q-23 -48 -57 -106
q-34 -59 -78 -128q-37 -60 -75 -116q-39 -57 -77 -110q-6 -8 -15 -12q-10 -5 -21 -5v0zM512 858q-63 0 -114 -19q-52 -20 -95 -60q-43 -39 -64 -87t-21 -106q0 -17 9 -55q10 -39 42 -108q21 -44 54 -100q33 -57 75 -124q28 -45 56 -88q29 -43 58 -84q28 41 56 84
q29 43 57 87q43 68 76 124q33 57 55 102q31 68 40 106q10 38 10 56q0 58 -21 106t-64 87q-43 40 -95 59q-52 20 -114 20v0zM512 456q-28 0 -53 10t-46 29q-20 18 -30 41q-11 24 -11 50t10 49q11 23 31 42q21 19 46 28q25 10 53 10t52 -9q25 -10 46 -29t31 -42t10 -49
t-10 -49q-11 -24 -31 -42q-20 -19 -45 -29t-53 -10v0zM512 635q-11 0 -20 -3q-9 -4 -17 -12q-9 -7 -12 -15q-4 -9 -4 -19t3 -18q4 -9 13 -16q8 -8 17 -11q9 -4 20 -4t20 3q9 4 17 12q8 7 12 15q4 9 4 19t-4 18q-4 9 -12 16q-8 8 -17 11q-9 4 -20 4v0z" />
    <glyph glyph-name="uniE916" unicode="&#xe916;" 
d="M365 470q-28 0 -43 -20q-16 -20 -16 -48v-26q0 -29 17 -49t45 -20q14 0 23 5q10 6 20 15q9 10 11 22q3 13 3 27v26q0 28 -15 48q-16 20 -45 20v0zM399 376q0 -8 -2 -15q-3 -8 -8 -13q-6 -6 -10 -9q-5 -3 -13 -3q-16 0 -25 11q-9 12 -9 29v26q0 16 8 28q9 12 25 12
q17 0 25 -12q9 -12 9 -28v-26zM584 470q-29 0 -47 -20q-19 -20 -19 -48v-26q0 -29 18 -49q19 -20 48 -20q28 0 47 20t19 49v26q0 28 -19 48t-47 20v0zM623 376q0 -17 -11 -28q-12 -12 -28 -12q-17 0 -28 11q-12 12 -12 29v26q0 16 11 28q12 12 29 12q16 0 27 -12
q12 -12 12 -28v-26zM485 589l28 -3l-44 -378l-28 3zM985 893q-21 22 -48 34q-28 12 -58 12q-27 0 -53 -10q-26 -11 -46 -30l-107 -102l-261 -12l-412 -411l452 -459l412 410l16 270l99 92q43 41 45 101q2 61 -39 105v0zM795 357l-343 -341l-352 358l343 341l166 8
q-6 -14 -9 -28q-4 -15 -4 -30q-1 -29 9 -56t30 -48t47 -33t56 -12v43q-20 0 -39 8q-19 9 -33 24q-14 14 -21 33t-7 40q1 17 6 32q6 16 17 29l155 8zM950 718l-67 -61l9 151l-154 -8l71 68q15 13 33 20q18 8 37 8q21 0 40 -8q20 -9 35 -24q29 -31 28 -74q-2 -43 -32 -72z" />
    <glyph glyph-name="uniE917" unicode="&#xe917;" 
d="M512 845q87 0 163 -33t133 -89q57 -57 90 -134q33 -76 33 -162q0 -87 -33 -163t-90 -133t-133 -90t-163 -33t-163 33t-133 90t-90 133t-33 163q0 86 33 162q33 77 90 133q57 57 133 90t163 33zM512 939q-106 0 -199 -41q-94 -40 -163 -109q-70 -70 -110 -163t-40 -199
t40 -200q40 -93 109 -162q70 -70 164 -110q93 -40 199 -40t199 40q94 40 163 109q70 70 110 163q40 94 40 200t-40 199t-109 162q-70 70 -164 110q-93 41 -199 41v0v0zM443 270l-176 176l66 66l143 -143l215 214l66 -66l-248 -247h-66z" />
    <glyph glyph-name="uniE918" unicode="&#xe918;" 
d="M886 -45h-590q-7 0 -12 5t-5 12t5 12t12 5q32 0 54 22q23 23 23 55v94q0 7 5 12t12 5h601q7 0 12 -5t5 -12v-83q0 -51 -36 -86q-36 -36 -86 -36v0zM376 -11h510q36 0 62 26t26 62v66h-567v-77q0 -22 -8 -42q-9 -20 -23 -35v0zM296 -45q-22 0 -41 8q-20 9 -36 24
q-16 16 -25 37q-9 22 -9 45v724q0 29 -21 50t-51 21q-7 0 -12 5t-5 12t5 12t12 5h340q7 0 12 -5t5 -12t-5 -12t-12 -5h-262q13 -14 20 -32q8 -19 8 -39v-724q0 -16 6 -31q7 -15 18 -27q11 -11 25 -16q14 -6 29 -6q31 1 53 23q23 23 23 54v94q0 7 5 12t12 5h421v150q0 7 5 12
t12 5t12 -5t5 -12v-167q0 -7 -5 -12t-12 -5h-421v-77q0 -45 -32 -77q-32 -33 -77 -34h-2zM134 579h-117q-7 0 -12 4q-5 5 -5 13v189q0 47 33 80q34 33 80 33q7 0 12 -5t5 -12t-5 -12t-12 -5q-32 0 -55 -23q-24 -23 -24 -56v-172h100q8 0 13 -5t5 -12q0 -8 -5 -12
q-5 -5 -13 -5v0zM453 716h-167q-7 0 -12 5t-5 12t5 12t12 5h167q7 0 12 -5t5 -12t-5 -12t-12 -5v0zM453 648h-167q-7 0 -12 5t-5 12t5 12t12 5h167q7 0 12 -5t5 -12t-5 -12t-12 -5v0zM453 580h-167q-7 0 -12 5t-5 12t5 12t12 5h167q7 0 12 -5t5 -12t-5 -12t-12 -5v0z
M453 513h-167q-7 0 -12 5t-5 12t5 12t12 5h167q7 0 12 -5t5 -12t-5 -12t-12 -5v0zM453 445h-167q-7 0 -12 5t-5 12t5 12t12 5h167q7 0 12 -5t5 -12t-5 -12t-12 -5v0zM453 377h-167q-7 0 -12 5t-5 12t5 12t12 5h167q7 0 12 -5t5 -12t-5 -12t-12 -5v0zM760 310h-474
q-7 0 -12 5t-5 12t5 12t12 5h474q7 0 12 -5t5 -12t-5 -12t-12 -5zM760 242h-474q-7 0 -12 5t-5 12t5 12t12 5h474q7 0 12 -5t5 -12t-5 -12t-12 -5zM961 413h-372q-17 0 -29 12t-12 28v52q0 17 12 29t29 12h372q17 0 29 -12t12 -29v-52q0 -16 -12 -28t-29 -12zM589 512
q-3 0 -5 -2t-2 -5v-51q0 -3 2 -5t5 -2h372q3 0 5 2t2 5v51q0 3 -2 5t-5 2h-372zM871 413h-192q-12 0 -20 11q-9 12 -9 29v52q0 18 8 29q9 12 21 12h192q12 0 20 -11q9 -12 9 -30v-52q0 -17 -8 -28q-9 -12 -21 -12zM685 447h180v2q1 2 1 4v52v3q-1 2 -1 4h-180v-3
q-1 -2 -1 -4v-52v-3q1 -2 1 -3zM919 512h-372q-17 0 -29 11q-12 12 -12 29v52q0 17 12 29t29 12h372q17 0 28 -12q12 -12 12 -29v-52q0 -17 -11 -28q-12 -12 -29 -12zM547 610q-3 0 -5 -1q-2 -2 -2 -5v-52q0 -2 2 -4t5 -2h372q2 0 4 2t2 4v52q0 3 -2 4q-2 2 -4 2h-372z
M828 512h-191q-13 0 -21 11q-8 12 -8 29v52q0 17 8 29t21 12h191q13 0 21 -12q9 -12 9 -29v-52q0 -17 -8 -28q-9 -12 -22 -12zM643 546h180v2q1 2 1 4v52v3q-1 2 -1 3h-180q-1 -1 -1 -2v-59v0l1 -3v0zM983 610h-372q-17 0 -29 12t-12 29v52q0 16 12 28t29 12h372
q17 0 29 -12t12 -28v-52q0 -17 -12 -29t-29 -12v0zM611 709q-3 0 -5 -2t-2 -4v-52q0 -3 2 -4q2 -2 5 -2h372q3 0 5 1q2 2 2 5v52q0 2 -2 4t-5 2h-372zM893 610h-192q-12 0 -20 11q-9 12 -9 30v52q0 17 8 28q9 12 21 12h192q13 0 21 -11q8 -12 8 -29v-52q0 -18 -8 -29
q-8 -12 -21 -12zM707 645h180q1 1 1 2v59v0l-1 3h-180v-2q-1 -2 -1 -4v-52v-3q1 -2 1 -3v0zM924 709h-372q-17 0 -29 12t-12 29v51q0 17 12 29t29 12h372q17 0 29 -12t12 -29v-51q0 -17 -12 -29t-29 -12zM552 808q-3 0 -5 -2t-2 -5v-51q0 -3 2 -5t5 -2h372q2 0 4 2t2 5v51
q0 3 -2 5t-4 2h-372zM833 709h-191q-13 0 -21 11q-8 12 -8 30v51q0 18 8 29q8 12 21 12h191q13 0 21 -11q9 -12 9 -30v-51q0 -18 -8 -29q-9 -12 -22 -12zM648 743h180v3q1 2 1 4v51v4q-1 2 -1 3h-180q-1 -1 -1 -2v-59v0l1 -4v0z" />
    <glyph glyph-name="uniE919" unicode="&#xe919;" 
d="M459 -85h-356q-7 0 -11 4q-5 5 -5 12v348q0 6 5 11t11 5h281l60 126q3 6 8 8q5 3 11 1q5 -1 8 -5q4 -5 4 -11v-483q0 -7 -4 -11q-5 -5 -12 -5v0zM120 -52h322v393l-33 -69q-2 -5 -6 -7q-4 -3 -8 -3h-275v-314zM985 262h-462q-5 0 -9 2q-4 3 -6 8l-64 135q-2 4 -2 8
q1 5 3 8q2 4 6 6t8 2h462q4 0 8 -2q5 -3 7 -8l64 -135q2 -4 2 -8q-1 -5 -3 -8q-2 -4 -6 -6t-8 -2v0zM534 295h425l-49 103h-425zM921 -85h-462q-7 0 -12 4q-5 5 -5 12v483q0 6 4 10q4 5 9 6q6 2 11 0q5 -3 8 -9l60 -126h387q7 0 11 -5q5 -5 5 -11v-348q0 -7 -5 -11
q-5 -5 -11 -5v0zM475 -52h429v314h-381q-5 0 -9 2q-4 3 -6 8l-33 69v-393zM395 262h-356q-4 0 -8 2t-6 6q-2 3 -2 7q-1 5 1 9l64 135q2 5 6 7q5 3 9 3h356q4 0 8 -2t6 -6q2 -3 2 -7q1 -5 -1 -9l-65 -135q-2 -5 -6 -7q-4 -3 -8 -3v0zM65 295h319l49 103h-319zM959 -85h-894
q-7 0 -11 4q-5 5 -5 12t5 12t11 5h894q6 0 11 -5t5 -12t-5 -11q-5 -5 -11 -5zM285 451q-18 0 -36 4q-18 5 -35 15q-51 30 -66 87t15 108q29 50 86 65t108 -14q51 -30 66 -87t-15 -107q-19 -34 -52 -52q-34 -19 -71 -19zM286 702q-29 0 -54 -14q-26 -14 -41 -40
q-23 -39 -11 -83t51 -66q39 -23 82 -12q44 12 67 51t11 83t-51 66q-12 8 -26 11q-14 4 -28 4v0zM340 654q3 5 2 11q-2 7 -8 11q-6 3 -12 2q-7 -2 -11 -8q-5 1 -11 1q-6 1 -11 -1q-10 -2 -18 -8q-9 -6 -14 -14q-10 -18 -4 -38t24 -31q4 -2 6 -5t4 -7v-6v0l-2 -6q-3 -6 -10 -7
q-8 -2 -14 2q-4 2 -6 5q-3 3 -4 7q-1 3 -1 6q1 3 3 6q3 6 2 12q-2 7 -8 11q-6 3 -12 1q-7 -2 -11 -7q-5 -9 -6 -19t2 -20q1 -5 4 -10t7 -10v-1q-4 -6 -2 -12q2 -7 7 -10l4 -2q3 -1 5 -1q4 0 8 2q4 3 6 7l1 1q3 -1 5 -1q3 -1 6 -1q13 0 24 6q12 7 19 18q5 9 6 19t-2 20
q-3 9 -9 17t-15 13q-7 4 -9 11q-3 7 1 13q1 3 4 4q3 2 6 3q4 1 7 1q4 -1 7 -3q7 -4 9 -11q3 -7 -1 -13q-3 -6 -1 -12q2 -7 7 -10q6 -4 13 -2t10 7q8 15 6 31t-13 28v0zM628 583q-24 0 -47 6q-24 7 -45 20q-31 18 -51 46q-21 29 -30 63q-8 35 -3 70t24 65q19 31 47 51
q28 21 63 30q35 8 69 3q35 -6 66 -24q30 -19 51 -47q21 -29 29 -63q8 -35 3 -69q-5 -35 -24 -66q-18 -30 -46 -51q-29 -21 -64 -29q-10 -3 -21 -4t-21 -1v0zM628 906q-8 0 -17 -1t-17 -3q-29 -7 -52 -24t-38 -42t-19 -53q-5 -28 2 -57q7 -28 24 -51t42 -38q24 -15 52 -19
q29 -5 57 2q29 7 52 23q23 17 38 42t19 53q5 29 -2 57t-24 51t-42 39q-17 10 -36 15q-19 6 -39 6v0zM698 734q-6 24 -27 36q-22 13 -47 7q-6 -2 -11 -1q-6 1 -11 3q-5 3 -8 7t-4 9q-3 10 3 19q7 10 19 13t22 -2q10 -6 12 -16q2 -7 7 -10q6 -4 13 -2q7 1 10 7q4 6 2 12
q-5 20 -21 32t-36 13l-1 3q-2 6 -7 9q-6 4 -13 3q-7 -2 -10 -8q-4 -6 -2 -12l1 -3q-18 -10 -27 -28t-4 -38q3 -11 10 -20q7 -10 18 -16q10 -6 22 -7q12 -2 24 1t22 -2q10 -6 12 -17q3 -10 -3 -19q-7 -10 -19 -13q-6 -1 -11 -1q-6 1 -11 4t-8 7t-4 9q-2 6 -7 9q-6 4 -13 3
q-7 -2 -10 -8q-4 -6 -2 -12q3 -12 10 -21q7 -10 18 -16q7 -4 14 -5q8 -2 15 -3l2 -5q1 -5 5 -8q5 -4 11 -4h4q6 2 9 8q4 6 3 12l-2 5q18 10 27 28t4 38v0zM725 443q-4 16 -16 25q-12 10 -28 12q-2 6 -7 9q-6 3 -13 2q-6 -2 -9 -7q-4 -6 -3 -12q-13 -8 -19 -22q-7 -15 -3 -31
q0 -3 1 -6l4 -8q3 -3 6 -5q4 -2 8 -2h5l4 2q6 4 7 10q2 7 -2 13v2q-1 1 -1 2q-2 6 2 12t11 7q7 2 13 -1q7 -3 8 -9q2 -7 7 -10q6 -4 13 -3q7 2 10 8q4 6 2 12v0zM804 398h-242q-3 0 -6 1l-6 4q-2 3 -3 6q-1 4 -1 7q5 43 34 75q29 33 71 44q55 13 104 -16q49 -30 63 -86
q1 -4 1 -8q1 -4 2 -9q0 -3 -1 -6q-1 -4 -3 -7q-3 -2 -6 -3q-3 -2 -7 -2v0zM583 431h201q-12 40 -48 61q-37 21 -78 11q-27 -7 -47 -26q-20 -20 -28 -46v0zM483 493q-7 0 -11 4q-5 5 -5 12v47q0 7 5 12t11 5q7 0 12 -5t5 -12v-47q0 -7 -5 -11q-5 -5 -12 -5zM812 565
q-7 0 -12 5t-5 12v39q0 7 5 12t12 5t11 -5q5 -5 5 -12v-39q0 -7 -4 -12q-5 -5 -12 -5zM369 765q-6 0 -11 5t-5 12v78q0 6 5 11t11 5q7 0 12 -5t5 -11v-78q0 -7 -5 -12t-12 -5z" />
    <glyph glyph-name="uniE91A" unicode="&#xe91a;" 
d="M109 -15h-72q-7 0 -12 5t-5 12v919q0 8 5 13t12 5h693q7 0 12 -5t5 -13v-70q0 -7 -5 -12t-12 -5h-604v-832q0 -7 -5 -12t-12 -5v0zM54 20h38v831q0 7 5 12t12 5h604v36h-659v-884zM987 -85h-878q-7 0 -12 5t-5 12v919q0 7 5 12t12 5h694q7 0 12 -5t5 -12v-94q0 -7 -5 -12
t-12 -5q-8 0 -13 5t-5 12v77h-659v-885h861q7 0 12 -5t5 -12t-5 -12t-12 -5v0zM584 707h-306q-7 0 -12 5t-5 12t5 12t12 5h306q7 0 12 -5t5 -12t-5 -12t-12 -5zM477 601h-257q-7 0 -12 5t-5 12t5 12t12 5h257q7 0 12 -5t5 -12t-5 -12t-12 -5zM477 494h-257q-7 0 -12 5
q-5 6 -5 13t5 12t12 5h257q7 0 12 -5t5 -12t-5 -12q-5 -6 -12 -6zM477 388h-257q-7 0 -12 5t-5 12q0 8 5 13t12 5h257q7 0 12 -5t5 -13q0 -7 -5 -12t-12 -5zM924 -85h-363q-16 0 -28 11q-12 12 -12 29v50q0 17 12 28q12 12 28 12h363q17 0 28 -11q12 -12 12 -29v-50
q0 -17 -11 -28q-12 -12 -29 -12v0zM561 11q-2 0 -4 -1q-2 -2 -2 -5v-50q0 -2 2 -4t4 -2h363q2 0 4 2t2 4v50q0 3 -2 4q-2 2 -4 2h-363zM836 -85h-187q-12 0 -20 11q-9 11 -9 29v50q0 18 8 29q9 11 21 11h187q13 0 21 -11t8 -29v-50q0 -18 -8 -29t-21 -11v0zM655 -51h175v2
q1 2 1 4v50v3q-1 2 -1 3h-175v-62zM883 11h-363q-17 0 -28 12q-12 12 -12 28v50q0 17 11 29q12 12 29 12h363q16 0 28 -12t12 -29v-50q0 -16 -12 -28t-28 -12v0zM520 107q-2 0 -4 -1q-2 -2 -2 -5v-50q0 -2 2 -4t4 -2h363q2 0 4 2t2 4v50q0 3 -2 4q-2 2 -4 2h-363zM795 11
h-187q-13 0 -21 11q-8 12 -8 29v50q0 18 8 29q8 12 21 12h187q12 0 20 -11q9 -12 9 -30v-50q0 -17 -8 -28q-9 -12 -21 -12zM614 45h175v62h-175v-2q-1 -2 -1 -4v-50v-3q1 -1 1 -3zM946 107h-363q-17 0 -28 12q-12 12 -12 29v50q0 16 11 28q12 12 29 12h363q16 0 28 -12
t12 -28v-50q0 -17 -12 -29t-28 -12v0zM583 204q-3 0 -4 -2q-2 -2 -2 -4v-50q0 -3 1 -4q2 -2 5 -2h363q2 0 4 1q2 2 2 5v50q0 2 -2 4t-4 2h-363zM858 107h-187q-13 0 -21 11q-8 12 -8 30v50q0 17 8 28q8 12 21 12h187q12 0 20 -11q9 -12 9 -29v-50q0 -18 -8 -29
q-9 -12 -21 -12zM677 142h175v62h-175v-2q-1 -2 -1 -4v-50v-3q1 -2 1 -3v0zM888 204h-363q-17 0 -28 11q-12 12 -12 29v50q0 17 11 28q12 12 29 12h363q16 0 28 -11q12 -12 12 -29v-50q0 -17 -12 -28q-12 -12 -28 -12zM525 300q-3 0 -4 -1q-2 -2 -2 -5v-50q0 -2 1 -4
q2 -2 5 -2h363q2 0 4 2t2 4v50q0 3 -2 4q-2 2 -4 2h-363zM800 204h-187q-13 0 -21 11t-8 29v50q0 18 8 29t21 11h187q12 0 20 -11q9 -11 9 -29v-50q0 -18 -8 -29q-9 -11 -21 -11zM619 238h175v62h-175v-2q-1 -2 -1 -4v-50v-3q1 -2 1 -3zM771 384h-139q-8 0 -13 5t-5 12v143
h-49q-5 0 -9 3q-5 3 -7 7q-2 5 -1 10t4 9l136 159q3 3 6 4q4 2 7 2q4 0 7 -1q4 -2 6 -5l137 -159q3 -4 3 -9q1 -5 -1 -10q-2 -4 -6 -7t-9 -3h-50v-143q0 -7 -5 -12t-12 -5v0zM649 418h105v144q0 7 5 12t12 5h29l-99 116l-99 -116h30q7 0 12 -5t5 -12v-144z" />
    <glyph glyph-name="uniE91B" unicode="&#xe91b;" 
d="M929 939h-682q-40 0 -67 -28q-28 -28 -28 -67v-95h-57q-39 0 -67 -28t-28 -67v-645q0 -39 28 -66q28 -28 67 -28h682q40 0 67 27q28 28 28 67v114h57q39 0 67 28t28 67v626q0 39 -28 67t-67 28v0zM834 9q0 -23 -16 -39q-17 -17 -41 -17h-682q-24 0 -40 16q-17 17 -17 40
v645q0 24 16 40q17 17 41 17h682q24 0 40 -16q17 -17 17 -41v-645zM986 218q0 -23 -16 -40q-17 -17 -41 -17h-57v493q0 39 -27 67q-28 28 -68 28h-587v95q0 23 16 40q17 17 41 17h682q24 0 40 -17q17 -17 17 -40v-626zM607 427q39 0 67 27q28 28 28 67q0 40 -28 67
q-28 28 -67 28t-67 -27q-28 -28 -28 -68q0 -39 28 -66q28 -28 67 -28zM607 578q23 0 40 -16q17 -17 17 -41q0 -23 -17 -39q-17 -17 -40 -17q-24 0 -40 16q-17 17 -17 40q0 24 16 40q17 17 41 17zM629 266q-17 14 -41 14t-41 -15l-72 -59l-131 131q-17 17 -40 17
q-24 1 -41 -15l-181 -164q-6 -5 -6 -13t5 -14q5 -5 13 -5q8 -1 14 4l180 164q6 6 14 6q9 -1 15 -6l257 -258q3 -3 6 -4q4 -2 8 -2q3 0 6 1q4 2 7 5q6 6 6 13q0 8 -6 14l-99 99l69 57q7 6 17 6q11 0 18 -6l160 -128q2 -2 5 -3t6 -1q5 0 8 2q4 2 7 5q5 7 4 14q-1 8 -7 13z" />
    <glyph glyph-name="uniE91C" unicode="&#xe91c;" 
d="M967 753q7 0 11 -5q5 -5 5 -11v-658q0 -59 -42 -101t-101 -42h-656q-59 0 -101 42t-42 101v657q0 7 4 11q5 5 12 5l228 1l3 15q15 83 80 137q65 55 149 55t149 -54q65 -55 80 -138l2 -15h219zM324 776l-6 -23h398l-6 23q-17 67 -71 109t-122 42t-122 -42t-71 -109z
M951 79v642h-201v-155h-34v155h-399v-155h-33v155h-211v-642q0 -46 32 -78q33 -33 79 -33h656q46 0 78 32q33 33 33 79z" />
    <glyph glyph-name="uniE91D" unicode="&#xe91d;" 
d="M810 -62q-6 0 -12 2t-12 6l-251 152q-9 5 -23 5t-23 -5l-251 -152q-14 -9 -27 -8q-13 2 -20 11q-4 4 -6 12q-3 9 1 23l67 286q2 10 -2 23t-12 20l-223 192q-14 13 -15 23q-1 11 0 16q2 5 9 13t26 10l293 24q10 1 21 9q12 8 16 18l114 271q7 18 17 22t15 4t15 -4t17 -22
l114 -271q4 -10 15 -18q12 -8 22 -9l293 -24q19 -2 26 -10t9 -13q1 -5 0 -15q-1 -11 -15 -24l-223 -192q-8 -7 -12 -20t-2 -23l67 -286q4 -14 2 -22q-3 -9 -7 -13q-4 -5 -10 -8t-13 -3v0zM47 529l217 -187q15 -14 23 -37t3 -44l-66 -279l246 149q17 10 42 10t42 -10
l246 -149l-66 279q-5 21 3 44t23 37l217 187l-285 24q-21 2 -41 16q-20 15 -28 34l-111 265l-111 -265q-8 -19 -28 -33q-20 -15 -41 -17z" />
    <glyph glyph-name="uniE91E" unicode="&#xe91e;" 
d="M1023 645q-2 5 -6 9q-5 4 -10 6q-4 1 -69 16q-66 16 -127 16q-86 0 -153 -26q-68 -26 -88 -36q-65 5 -122 15t-106 22q-49 13 -90 27q-41 13 -74 27q34 -6 73 -12q38 -5 78 -9q40 -5 81 -8t80 -3q19 0 37 1t34 2q61 5 109 16q48 10 87 23q39 14 71 29t60 29q32 17 59 29
q28 12 57 16q7 1 12 6q6 6 8 13q1 8 -2 14q-3 7 -10 11q-50 28 -103 41q-53 14 -110 14q-72 0 -145 -17q-74 -18 -152 -40q-50 -14 -104 -28t-112 -25q-59 -12 -122 -18t-132 -4q-7 2 -14 1q-8 -2 -13 -8q-6 -8 -5 -17q1 -10 9 -17v0v0q1 -1 2 -1l2 -2q9 -7 37 -25t76 -40
t116 -45q68 -24 157 -41q-23 -11 -48 -29t-49 -46q-52 6 -101 -11q-50 -16 -90 -50t-68 -84q-29 -49 -38 -108q-10 -59 0 -115q11 -57 41 -105t74 -78q44 -31 97 -40q9 -1 19 -2t19 -1q30 0 59 7q29 8 56 22q9 5 12 14t-2 18q-4 9 -13 11q-10 3 -19 -1q-29 -16 -60 -21
q-32 -5 -64 0q-42 7 -78 32t-60 64q-25 41 -34 89t-1 98q9 52 33 94q24 43 59 71q35 29 77 42t87 6q11 -2 22 -5t21 -8q9 -3 18 0q9 4 13 13t1 18q-4 9 -13 13q-4 1 -7 2q-3 2 -7 3q28 27 56 40q29 13 48 18q3 -23 10 -44q8 -21 18 -40q-40 -24 -69 -60q-29 -37 -45 -81
q-17 -45 -20 -95q-2 -50 11 -101q13 -52 41 -96q28 -43 65 -74q37 -32 81 -49t91 -17q15 0 30 2t30 6q54 14 95 49q42 36 67 85t32 109q7 59 -9 120q-13 49 -37 90q-25 42 -59 73t-75 49q-41 19 -86 23q-10 1 -17 -5q-8 -7 -9 -17q-1 -9 5 -16q7 -8 17 -9q37 -3 71 -19
q35 -17 63 -43q29 -27 50 -62t31 -76q14 -52 8 -102q-5 -49 -25 -90q-21 -42 -55 -72q-35 -30 -79 -41q-45 -12 -89 -2q-44 9 -82 35q-39 27 -67 68q-29 41 -42 93q-11 43 -9 86t15 80q14 38 38 69q24 30 57 50q10 -14 20 -26t19 -21q-5 1 -8 1q-4 1 -6 2q-9 3 -18 -1
t-12 -14q-3 -9 1 -18t14 -12q6 -2 14 -3q9 -2 18 -2q24 0 50 13q27 14 44 52q4 9 0 18t-13 13t-18 1q-9 -4 -13 -13q-2 -5 -4 -8q-2 -4 -4 -7q-20 19 -52 62q-32 44 -38 99q15 -2 30 -3q15 -2 30 -3q28 -22 85 -36q57 -15 118 -15v0v0h23q12 1 23 3q113 12 158 49
q46 37 47 39q4 4 5 10t-1 12v0zM515 831q78 22 147 38q70 17 137 17q36 0 69 -5q33 -6 65 -18q-17 -7 -33 -15t-34 -16q-52 -27 -123 -55q-72 -28 -186 -38q-15 -1 -32 -1q-17 -1 -35 -1q-68 0 -140 8t-135 18q83 11 157 30q75 19 143 38v0zM809 582q-10 -1 -20 -1
q-11 -1 -21 -1v0v0q-41 0 -79 7t-64 16q31 14 80 28q50 14 106 14q33 0 71 -6q39 -7 67 -14q-20 -12 -54 -25t-86 -18v0z" />
    <glyph glyph-name="uniE91F" unicode="&#xe91f;" 
d="M816 261q50 56 76 125q27 70 27 145q0 85 -32 159t-87 129q-55 56 -130 88q-74 32 -158 32t-158 -32q-75 -32 -130 -87q-55 -56 -87 -130t-32 -159q0 -75 26 -144q27 -70 77 -126l-100 -197q-3 -6 -3 -12q1 -7 5 -12t10 -7q6 -3 12 -2l145 20l70 -126q3 -6 8 -8
q6 -2 12 -2h1q6 0 11 2q6 2 9 8l102 201h11q6 -1 11 -1h22l102 -200q3 -5 8 -7q6 -3 12 -3v0h1q6 0 11 2q6 2 9 8l70 128l145 -18l1 2v0l2 2v0v0q10 0 17 4q7 5 7 15q0 4 -1 6q-2 2 -4 5zM367 -16l-56 104q-3 5 -8 8q-6 4 -13 4h-3l-117 -17l72 143h1l1 -1q1 -1 3 -2l3 -3
l20 -16l4 -2q2 -2 5 -4q4 -3 9 -6q5 -4 10 -7l4 -2q2 -2 5 -3l14 -8v0l14 -7l1 -1h2q6 -4 13 -7t14 -5q3 -1 5 -2t5 -2q5 -2 10 -3l12 -4q2 -1 4 -1l6 -2q7 -2 13 -3q7 -2 13 -3h3q2 -1 3 -1v0v0l2 -1zM478 172v0q-64 6 -122 34q-59 28 -104 75q-49 51 -75 115
q-26 65 -26 135q0 75 29 141q28 65 77 114t115 78q65 28 140 28t140 -28q66 -29 115 -78t77 -114q29 -66 29 -141q0 -70 -26 -134q-26 -65 -75 -116q-45 -47 -103 -75q-59 -28 -123 -34v0v0q-18 -1 -34 -1t-34 1v0zM737 100q-7 1 -13 -2q-7 -4 -11 -10l-56 -104l-74 146l1 1
h1h2q2 1 4 1l12 2l14 4q3 1 5 1q3 1 5 2q6 2 11 3q6 2 11 4q3 1 5 2t5 2q7 2 14 5t14 7v0v0l2 1q7 3 14 7l14 8q3 1 5 2q2 2 4 3l10 6q5 4 9 7q3 2 5 3q2 2 4 3l20 16q2 1 3 2l3 3v0l2 1l72 -143zM762 341q31 41 47 89q17 49 17 101q0 65 -24 123q-25 57 -68 99
q-43 43 -100 68t-122 25t-122 -25t-100 -67q-43 -43 -68 -100q-24 -58 -24 -123q0 -52 16 -100q17 -49 48 -90q46 -59 111 -91q65 -33 139 -33t139 32q65 33 111 92v0zM512 264q-63 0 -118 27q-56 28 -95 78q-27 35 -41 76q-14 42 -14 86q0 56 21 105q21 48 57 84
q37 37 86 58t104 21t104 -21t85 -57q37 -37 58 -85q21 -49 21 -105q0 -44 -14 -85q-14 -42 -41 -77q-39 -50 -94 -77q-56 -28 -119 -28v0zM392 522q4 -6 6 -12t2 -12t-1 -11q-2 -6 -5 -11q-3 -4 -7 -8t-10 -6q-6 -3 -12 -4q-7 -1 -15 -1h-65v151h62q8 0 14 -1q7 -1 13 -4
q6 -2 10 -5q4 -4 7 -9q3 -4 4 -9q2 -5 2 -11q0 -7 -2 -12q-2 -6 -5 -10q-4 -5 -8 -8q-5 -3 -11 -5q6 -1 11 -4q6 -3 10 -8v0zM315 545h28q5 0 9 1q5 2 8 4q3 3 4 6q2 4 2 9q0 4 -1 7q-2 4 -5 7t-7 4q-5 1 -10 1h-28v-39zM363 486q3 3 4 6q2 4 2 9t-1 9q-2 4 -5 7t-7 4
q-5 1 -11 1h-30v-41h31q5 0 9 1q5 1 8 4v0zM535 508h-87q0 -6 2 -11q2 -6 6 -10q4 -3 9 -5t11 -2q9 0 15 3q6 4 10 11h32q-2 -8 -7 -15q-5 -8 -13 -13q-7 -6 -16 -8q-9 -3 -20 -3q-9 0 -16 1q-8 2 -15 6t-12 9q-6 6 -10 13t-5 15q-2 9 -2 18t1 17q2 8 6 16q4 7 9 12
q6 5 13 9q6 4 14 6t17 2t16 -2q8 -2 15 -6q7 -3 12 -8q5 -6 9 -12q4 -7 5 -15q2 -8 2 -16v-6v0l-1 -6v0zM505 527q0 6 -2 11t-7 9q-4 3 -9 5t-11 2t-10 -2q-5 -2 -9 -5q-4 -4 -6 -9q-3 -5 -4 -11h58zM578 460q-6 3 -10 6q-5 4 -9 8q-3 5 -5 10t-2 11h31q0 -4 1 -7q2 -3 5 -6
q3 -2 7 -3t8 -1h8q3 1 6 3q2 2 3 4q2 3 2 6t-1 5q-2 2 -5 4q-3 1 -8 2q-5 2 -11 4q-7 2 -12 3q-6 2 -10 4q-4 1 -8 4t-7 6q-3 4 -4 8q-2 5 -2 11q0 5 1 10q2 5 5 9t7 7q4 4 9 6t11 3q7 2 14 2q11 0 19 -2q9 -3 16 -9q6 -5 9 -12q4 -8 5 -17h-29q-1 4 -2 7q-2 3 -4 5
q-3 3 -6 4q-4 1 -8 1q-5 0 -8 -1t-5 -3q-2 -1 -3 -3q-2 -3 -2 -6t1 -5q2 -2 5 -4t8 -3q5 -2 11 -3q7 -2 12 -3q6 -2 10 -4t7 -4q4 -3 7 -7q3 -3 5 -8t2 -11q0 -5 -1 -9q-2 -5 -5 -9q-3 -5 -7 -8t-9 -6q-6 -2 -12 -3t-14 -1q-7 0 -13 1q-7 1 -13 4v0zM712 552v-58q0 -3 1 -5
q1 -3 2 -4l4 -2q3 -1 6 -1h14v-25h-19q-19 0 -28 9q-10 9 -10 28v58h-15v25h15v30h30v-30h27v-25h-27z" />
    <glyph glyph-name="uniE920" unicode="&#xe920;" 
d="M928 163h-47q-11 0 -18 7q-8 8 -8 19t7 18q8 8 19 8h47q18 0 31 13t13 31v191l-137 193q-6 8 -5 19q2 11 11 17t19 4q11 -2 17 -10l142 -199q3 -4 4 -7q1 -4 1 -8v-200q0 -40 -28 -68t-68 -28v0zM678 163h-332q-11 0 -18 7q-8 8 -8 19t7 18q8 8 19 8h332q11 0 18 -7
q8 -8 8 -19t-7 -18q-8 -8 -19 -8zM244 62q-19 0 -36 5q-18 5 -34 16q-9 6 -11 16q-2 11 4 20t16 11q11 2 20 -4t19 -9q11 -3 22 -3q31 0 53 22q23 22 23 53t-22 53q-23 22 -54 22t-53 -22t-22 -53q0 -11 -7 -18q-8 -8 -19 -8t-18 7q-8 8 -8 19q0 53 37 90q38 37 90 37
q53 0 90 -37q38 -37 38 -90t-37 -90q-38 -37 -91 -37v0zM780 62q-19 0 -37 5t-34 16q-9 6 -11 16q-2 11 4 20t16 11q11 2 20 -4t20 -9t22 -3q31 0 53 22t22 53t-22 53t-53 22t-53 -22q-23 -22 -23 -53q0 -11 -7 -18q-8 -8 -19 -8q-10 0 -18 7q-8 8 -8 19q0 53 37 90
q38 37 91 37q52 0 89 -37q38 -37 38 -90t-37 -90q-38 -37 -90 -37v0zM998 433h-294q-32 0 -55 22q-23 23 -23 56v95q0 32 23 55t55 23h152q11 0 18 -8q8 -8 8 -18q0 -11 -7 -18q-8 -8 -19 -8h-152q-10 0 -18 -8t-8 -18v-95q0 -11 8 -19t18 -8h294q11 0 18 -7q8 -8 8 -18
q0 -11 -7 -18q-8 -8 -19 -8v0zM143 163h-47q-40 0 -68 28t-28 68v437q0 39 28 67q28 29 68 29h683q11 0 18 -7q8 -8 8 -19t-7 -18q-8 -8 -19 -8h-683q-18 0 -31 -13t-13 -31v-437q0 -18 13 -31t31 -13h47q11 0 18 -7q8 -8 8 -19t-7 -18q-8 -8 -19 -8v0z" />
    <glyph glyph-name="uniE921" unicode="&#xe921;" 
d="M954 99h-884q-29 0 -49 21q-21 21 -21 50v514q0 29 20 49q21 21 50 21h884q29 0 49 -20q21 -21 21 -50v-514q0 -29 -20 -50q-21 -21 -50 -21zM70 715q-12 0 -21 -9q-9 -10 -9 -22v-514q0 -13 9 -22t21 -9h884q12 0 21 9t9 22v514q0 12 -9 21q-9 10 -21 10h-884zM283 371
h-176q-8 0 -14 6t-6 14t6 14t14 6h176q9 0 14 -6q6 -6 6 -14t-5 -14q-6 -6 -15 -6zM296 198h-189q-8 0 -14 6t-6 14t6 13q6 6 14 6h189q8 0 14 -5q6 -6 6 -14t-6 -14t-14 -6v0zM484 257h-377q-8 0 -14 5q-6 6 -6 15q0 8 6 13q6 6 14 6h377q8 0 13 -5q6 -6 6 -14q0 -9 -5 -14
q-6 -6 -14 -6zM505 371h-177q-8 0 -14 6t-6 14t6 14t14 6h177q8 0 13 -6q6 -6 6 -14t-5 -14q-6 -6 -14 -6v0zM726 371h-177q-8 0 -14 6t-6 14t6 14t14 6h177q8 0 13 -6q6 -6 6 -14t-5 -14q-6 -6 -14 -6zM746 533h-300q-8 0 -14 6t-6 14t6 14t14 6h300q9 0 14 -6q6 -6 6 -14
t-5 -14q-6 -6 -15 -6zM947 371h-177q-8 0 -13 6q-6 6 -6 14t5 14q6 6 14 6h177q8 0 14 -6t6 -14t-6 -14t-14 -6v0zM277 472h-163q-9 0 -14 6q-6 6 -6 14v114q0 8 5 14q6 6 15 6h163q8 0 14 -6t6 -14v-114q0 -8 -6 -14t-14 -6zM133 512h124v74h-124v-74zM864 482
q-33 0 -55 23q-23 23 -23 55t22 54q23 23 56 23q32 0 54 -22q23 -23 23 -55t-22 -55q-23 -23 -55 -23v0zM864 597q-16 0 -27 -11t-11 -26q0 -16 11 -27t27 -11q15 0 26 11t11 27q0 15 -11 26t-26 11z" />
    <glyph glyph-name="uniE922" unicode="&#xe922;" 
d="M748 507q-58 0 -108 -18q-49 -17 -86 -48q-37 -32 -58 -75t-23 -94q-1 -39 8 -72q10 -33 29 -53q17 -17 40 -29t53 -12h33q3 -12 -1 -26q-4 -15 -9 -30q-8 -25 -12 -55q-4 -31 25 -61q18 -20 43 -23q26 -4 65 -4v0v0h2q39 0 64 5q26 6 44 25q29 31 26 58q-4 28 -13 53
q-5 16 -9 31t-1 27h33q29 0 52 12q24 12 41 29q19 20 28 51q10 32 9 71q-2 51 -23 94q-21 44 -57 76q-37 32 -87 50t-108 18v0zM827 35q8 -25 9 -38q2 -13 -12 -28q-8 -8 -24 -9t-52 -1t-52 2t-24 11q-13 14 -12 26t9 37q6 16 11 32t2 39h132q-3 -23 2 -38q5 -16 11 -33v0z
M953 179q-10 -10 -25 -18q-15 -9 -35 -9h-290q-20 0 -35 8q-15 9 -25 19q-12 13 -18 36q-7 24 -6 52q2 47 22 83t52 60q33 24 73 37q40 12 82 12t82 -12q41 -13 73 -37q32 -25 52 -61t22 -82q1 -29 -5 -52q-7 -23 -19 -36v0zM644 399q-29 -13 -43 -34t-15 -24q-4 -9 -1 -18
t12 -13q2 -1 4 -1q3 -1 5 -1q7 0 12 3q6 4 9 10q0 1 9 14q9 14 27 22q9 4 12 13t0 18q-4 8 -13 11q-9 4 -18 0v0zM182 749l57 -6v0l112 -38q2 -1 3 -4q1 -4 -1 -7l-50 -100q-6 -13 -4 -27q3 -14 14 -23q6 -6 13 -8q7 -3 14 -3q6 0 12 2t12 5l143 96q10 6 21 6q12 1 22 -5
l87 -52q10 -6 22 -6q12 1 22 9q9 8 12 19q4 12 0 23l-28 85l25 17q69 -34 120 -87t78 -118q2 -7 8 -10q6 -4 13 -4h4q2 1 5 1q8 4 12 13t0 17q-28 67 -77 122q-50 56 -117 94l40 23q5 4 8 10t3 13q-1 6 -5 11q-5 6 -11 8q-3 1 -61 15t-109 1q-9 -2 -14 -10t-3 -18
q2 -9 10 -14q9 -5 18 -2q21 5 46 3t47 -6l-28 -16v0v0l-1 -1l-4 -2l-37 -25q-11 -7 -15 -19q-4 -13 0 -25l24 -72l-70 42q-22 13 -47 13q-25 -1 -45 -15l-131 -87l43 87q10 19 4 39q-6 21 -24 32q-21 12 -43 21q-23 9 -45 14q67 13 112 7l45 -6q7 -2 13 0t11 7q4 5 5 10
q1 6 -2 12l-33 75h75v-129q0 -10 6 -16q7 -7 17 -7q9 0 16 6q7 7 7 17v141q0 16 -15 25t-31 9h-86q-10 0 -18 -3q-9 -4 -15 -12q-5 -8 -6 -17t3 -18l22 -50q-38 4 -102 -1t-138 -38q-7 -3 -11 -10t-2 -15t8 -13t15 -5v0zM541 11l-30 -2v0l-30 -1q-90 0 -169 30
q-79 31 -138 83t-93 123q-34 70 -34 150q0 74 30 142q31 69 89 123q7 7 7 16q0 10 -6 17q-7 7 -16 7q-10 0 -17 -6q-32 -30 -57 -65q-24 -35 -41 -73t-26 -78q-9 -41 -9 -83q0 -89 38 -168t103 -137q65 -59 152 -93t187 -34q16 0 32 1q17 1 33 3q10 1 15 8q6 8 5 18
q-1 9 -8 15q-8 6 -17 4v0z" />
    <glyph glyph-name="uniE923" unicode="&#xe923;" 
d="M169 446h5q3 1 5 2q6 4 8 11t-2 14q-22 36 -23 80q-1 45 20 84q20 37 54 59t76 25h12q54 0 99 -26q46 -26 74 -72q4 -7 15 -7t15 7q28 46 74 72t99 26h12q42 -3 76 -24q34 -22 54 -59q20 -38 20 -82t-21 -81q-2 -3 -2 -6q-1 -4 0 -7q1 -4 3 -6q2 -3 6 -5l4 -2v0l4 -1
q5 0 9 2q4 3 7 7q26 45 26 98q0 54 -25 100q-25 45 -66 71q-42 27 -93 30q-4 1 -7 1h-7q-56 0 -105 -24q-49 -25 -83 -69q-34 44 -83 68q-49 25 -105 25h-6v0l-8 -1q-52 -3 -93 -29q-42 -27 -67 -74t-24 -100q1 -54 28 -99q2 -4 6 -6q5 -2 9 -2v0zM749 375l-237 -235
l-224 222q-5 5 -12 5q-8 0 -13 -5t-5 -12q0 -8 5 -13l236 -235q3 -3 6 -4q3 -2 7 -2t7 1q3 2 6 5l249 248q5 5 5 12q0 8 -5 13t-12 5q-8 0 -13 -5v0zM770 427h-199h-4q-3 -1 -6 -5l-55 -67l-40 186q-1 5 -5 9t-9 5h-2q-5 0 -9 -3q-5 -3 -7 -7l-84 -131h-332q-4 0 -11 -2
t-7 -11q0 -8 4 -10q5 -3 9 -3h350h5q4 1 6 5l66 101l39 -182q1 -5 4 -8q4 -4 9 -6h4q5 0 8 3q4 3 6 6l74 94h191q4 0 8 2q5 3 5 11q0 9 -7 11t-11 2v0zM897 427h-63q-4 0 -11 -2t-7 -11q0 -8 4 -10q5 -3 9 -3h73q4 0 8 2q5 3 5 11q0 9 -7 11t-11 2v0zM1006 427h-45
q-4 0 -11 -2t-7 -11q0 -8 4 -10q5 -3 9 -3h55q4 0 8 2q5 3 5 11q0 9 -7 11t-11 2v0z" />
    <glyph glyph-name="uniE924" unicode="&#xe924;" 
d="M638 119v-144q0 -7 -3 -12q-3 -6 -9 -10l-10 -7q-22 -15 -49 -23t-55 -8t-55 8t-49 23l-10 7q-6 4 -9 9q-3 6 -3 13v144q0 11 8 18q8 8 18 8q11 0 18 -7q8 -8 8 -19v-131q32 -21 74 -21t74 21v131q0 11 7 18q8 8 19 8q10 0 18 -7q8 -8 8 -19v0zM513 758v0v0h-2
q-58 -1 -109 -23t-89 -60q-39 -39 -61 -90q-22 -52 -22 -110q0 -67 21 -106q21 -40 44 -71q21 -29 38 -61q18 -32 23 -87q0 -12 5 -22q6 -11 14 -19q3 -2 5 -4l6 -4q7 -4 15 -6t16 -2h190q8 0 16 2t15 6q3 2 5 4l6 4q8 8 13 18q6 11 6 23q5 55 22 87q18 32 39 61
q23 31 44 70q21 40 21 107q0 58 -22 110q-22 51 -60 89q-39 39 -90 61t-109 23v0zM687 329q-22 -30 -43 -69q-22 -39 -27 -106q-1 -2 -1 -3q-1 -2 -3 -3q-1 -2 -2 -2q-2 -1 -4 -1h-190h-3q-2 1 -3 3q-2 1 -2 2l-2 4q-5 67 -26 106q-22 39 -44 69q-21 28 -38 59
q-17 32 -17 87q0 48 18 90t49 73q32 31 74 49q42 19 89 19q48 0 89 -19q42 -18 73 -49q32 -31 50 -73t18 -90q0 -55 -17 -86q-17 -32 -38 -60v0zM511 792q-10 0 -18 8t-8 18v3q1 2 1 3v89q0 10 7 18q8 8 19 8t18 -8q8 -8 8 -18v-89v-2q1 -2 1 -4q0 -10 -7 -18q-8 -8 -19 -8
h-2zM320 733q-7 0 -13 3t-10 10l-49 84q-5 9 -2 19q3 11 12 16q9 6 19 3q11 -3 17 -12l48 -84q5 -10 3 -20q-3 -10 -12 -16q-4 -2 -7 -2q-3 -1 -6 -1v0zM704 733h-6q-3 1 -7 3q-9 6 -11 16q-3 10 2 20l48 84q6 9 16 12q11 3 20 -3q9 -5 12 -15q3 -11 -3 -20l-48 -84
q-4 -7 -10 -10t-13 -3v0zM196 582h-6q-4 1 -7 3l-84 49q-9 5 -12 15q-3 11 3 20q5 9 15 12q11 3 20 -2l84 -49q10 -5 12 -15q3 -11 -2 -20q-4 -7 -10 -10t-13 -3v0zM828 582q-7 0 -13 3t-10 10q-5 9 -3 19q3 11 13 16l84 49q9 5 19 2q11 -3 16 -12q6 -9 3 -19
q-3 -11 -12 -16l-84 -49q-3 -2 -6 -2q-4 -1 -7 -1zM866 195q-3 0 -6 1q-4 1 -7 2l-83 48q-9 6 -12 16t3 20q5 9 15 12q11 3 20 -3l83 -48q9 -5 12 -15q3 -11 -2 -20q-4 -6 -10 -9q-6 -4 -13 -4v0zM948 399h-97q-11 0 -18 7q-8 8 -8 19t7 18q8 8 19 8h97q10 0 18 -7
q8 -8 8 -19t-8 -18q-8 -8 -18 -8zM173 399h-97q-10 0 -18 7q-8 8 -8 19t8 18q8 8 18 8h97q11 0 18 -7q8 -8 8 -19t-7 -18q-8 -8 -19 -8zM158 195q-7 0 -13 3q-6 4 -10 10q-5 9 -2 19q3 11 12 16l83 48q9 6 19 3q11 -3 16 -12q6 -10 3 -20t-12 -16l-83 -48l-6 -2q-4 -1 -7 -1
v0zM511 792q-10 0 -18 8t-8 18q0 11 7 18q8 8 19 8h1q11 0 18 -7q8 -8 8 -18q0 -11 -7 -19q-8 -8 -19 -8h-1zM539 376v-170q0 -11 -8 -18q-8 -8 -18 -8q-11 0 -18 7q-8 8 -8 19v170q0 11 7 18q8 8 19 8q10 0 18 -7q8 -8 8 -19z" />
    <glyph glyph-name="uniE925" unicode="&#xe925;" 
d="M912 827h-800q-46 0 -79 -33t-33 -79v-577q0 -46 33 -79t79 -33h800q46 0 79 33t33 79v577q0 46 -33 79t-79 33v0zM950 138q0 -15 -11 -26t-27 -11h-800q-16 0 -27 11t-11 26v577q0 16 11 26q11 11 27 11h800q16 0 27 -10q11 -11 11 -27v-577zM900 729l-336 -304
q-17 -16 -43 -16t-44 15l-353 305q-6 5 -13 5q-8 -1 -13 -7q-5 -5 -5 -13q1 -8 7 -13l353 -305q14 -12 31 -18q18 -6 36 -6q19 0 37 6q18 7 32 20l336 303q5 6 5 13q1 8 -4 14q-5 5 -12 5q-8 1 -14 -4v0z" />
    <glyph glyph-name="uniE926" unicode="&#xe926;" 
d="M884 98q-5 51 -43 89t-79 59q-25 12 -48 15t-42 -4q-19 -6 -32 -18q-13 -13 -24 -25q-7 -7 -13 -14q-7 -7 -13 -11q-18 -13 -42 -11q-25 2 -48 16q-47 28 -76 53t-48 43q-19 19 -43 48q-25 30 -54 77q-11 18 -15 43q-5 25 10 46q5 7 11 13q7 7 14 13q13 11 25 24
q12 14 19 33q6 19 4 42q-3 23 -16 48q-20 41 -58 79q-39 38 -90 43h-5q-3 1 -6 1q-58 0 -100 -48q-42 -49 -56 -88q-15 -41 -16 -87q-1 -47 13 -94q16 -55 46 -104t60 -91q27 -37 57 -72q30 -36 61 -66q30 -31 64 -60q35 -29 73 -57q41 -30 90 -60t104 -46q22 -6 44 -9
q23 -3 45 -3q24 0 47 4q24 4 45 11q43 16 92 61q50 45 43 107v0zM733 -25q-34 -13 -73 -13t-79 11q-50 14 -95 42t-84 57q-37 26 -70 54t-62 57q-29 30 -58 63q-29 34 -55 70q-28 39 -56 84q-29 46 -43 96q-11 40 -11 79q1 39 13 73q12 31 43 67q31 37 69 37h6q34 -4 64 -33
q30 -30 47 -63q8 -17 10 -30q3 -14 -1 -24q-3 -8 -9 -15q-7 -8 -15 -15l-29 29q-7 7 -16 7q-10 0 -17 -7t-7 -17t7 -16l29 -30q-2 -1 -3 -3t-3 -3q-20 -30 -19 -68t23 -74q30 -50 56 -81q27 -32 47 -52q21 -20 52 -46q31 -27 81 -58q35 -21 74 -22t68 19q2 1 3 2q2 2 4 3
l29 -29q3 -3 7 -5q5 -2 9 -2q5 0 9 2q5 2 8 5q7 7 7 17t-7 17l-29 29q7 8 14 14q8 7 16 10q11 3 24 1q14 -3 30 -11q34 -16 63 -46q30 -30 33 -64q5 -40 -32 -73q-38 -33 -72 -45v0zM748 372q-10 0 -16 6q-7 7 -7 17v40h-103q-6 0 -12 3t-9 9t-3 12q1 7 5 12l126 188
q4 7 11 9q8 3 15 1q8 -3 12 -9q5 -6 5 -14v-164h24q9 0 16 -7t7 -17t-7 -16q-7 -7 -16 -7h-24v-40q0 -10 -7 -16q-7 -7 -17 -7v0zM667 482h58v86zM591 372h-158q-7 0 -13 3q-6 4 -8 11q-3 6 -2 13t6 12l120 134q8 8 11 18q4 10 4 21q0 17 -11 28q-12 12 -28 12h-16
q-16 0 -27 -11q-12 -12 -12 -29q0 -10 -7 -16q-7 -7 -17 -7t-16 6q-7 7 -7 17q0 36 25 61q25 26 61 26h16q36 0 61 -25q26 -26 26 -62q0 -19 -7 -37q-7 -19 -21 -34l-85 -94h105q10 0 16 -7q7 -7 7 -17t-6 -16q-7 -7 -17 -7v0zM950 167h-5l-6 2q-8 4 -11 13q-4 10 0 19
q24 49 36 102q13 53 13 108q0 99 -38 187q-38 87 -103 152q-65 66 -153 104q-87 37 -187 37q-59 0 -116 -14t-109 -42q-9 -4 -18 -1t-14 11q-5 9 -2 18q3 10 12 14q57 30 120 46t127 16q109 0 205 -42q97 -41 168 -113q72 -72 113 -168q42 -96 42 -205q0 -61 -13 -119
q-14 -58 -40 -112q-3 -6 -9 -9q-6 -4 -12 -4v0z" />
    <glyph glyph-name="uniE927" unicode="&#xe927;" 
d="M511 183q-50 0 -95 20q-44 19 -77 52q-34 33 -53 78q-19 44 -19 95q0 38 11 73q11 36 33 67q5 8 15 9q10 2 18 -4q8 -5 9 -14q2 -10 -3 -19q-18 -24 -27 -53t-9 -59q0 -41 16 -77q15 -36 42 -62q27 -27 63 -43q36 -15 76 -15q41 0 77 15q36 16 63 42q27 27 42 63
q16 36 16 77t-16 76q-15 36 -42 63t-63 42q-36 16 -77 16q-26 0 -51 -6q-25 -7 -47 -20q-9 -5 -18 -3q-10 3 -14 11q-5 9 -3 18q3 10 11 15q28 16 59 24t63 8q51 0 95 -19q45 -19 78 -52q33 -34 53 -78q19 -45 19 -95q0 -51 -19 -95q-20 -45 -53 -78t-77 -52
q-45 -20 -96 -20v0zM511 515q-9 0 -16 6q-7 7 -7 17v32q0 10 7 16q7 7 16 7q10 0 17 -6q7 -7 7 -17v-32q0 -10 -7 -16q-7 -7 -17 -7v0zM511 262q-9 0 -16 7t-7 17v31q0 10 7 17t16 7q10 0 17 -7t7 -17v-31q0 -10 -7 -17t-17 -7v0zM535 294h-48q-32 0 -55 23q-24 23 -24 56
q0 9 7 16t17 7t17 -7t7 -16q0 -13 9 -22q9 -10 22 -10h48q13 0 22 9q9 10 9 23t-9 22t-22 9h-48q-32 0 -55 23q-24 23 -24 56t23 56q24 23 56 23h48q22 0 41 -12q20 -13 30 -33q4 -9 1 -18q-4 -9 -12 -14q-9 -4 -18 -1q-10 4 -14 12q-4 9 -11 14q-8 5 -17 5h-48
q-13 0 -22 -9q-9 -10 -9 -23t9 -22q9 -10 22 -10h48q32 0 55 -23t23 -55q0 -33 -23 -56t-55 -23v0zM186 467h-159q-5 0 -10 2t-8 6t-4 9q-2 5 -2 10q12 88 52 165t101 136q61 60 139 97q79 37 167 46q5 0 9 -1q5 -2 9 -5t6 -8t2 -10v-159q0 -9 -6 -15q-6 -7 -15 -8
q-48 -7 -91 -28t-77 -53q-34 -33 -57 -75t-32 -90q-2 -8 -8 -13q-7 -6 -16 -6v0zM54 515h113q13 49 38 92q26 43 61 77q36 34 80 58q44 23 94 33v113q-72 -12 -136 -44q-64 -33 -115 -82t-86 -112q-35 -64 -49 -135v0zM511 -85q-101 0 -191 37t-159 102t-112 152
q-43 88 -49 189q0 5 1 9q2 5 5 8q4 4 8 6q5 2 10 2h158q9 0 16 -6t7 -15q6 -60 32 -111t67 -88t94 -59q54 -21 113 -21q64 0 120 24q56 25 98 66q42 42 66 98t24 120q0 57 -20 108q-20 52 -55 92q-36 41 -84 69q-48 27 -105 35q-8 1 -14 7q-6 7 -6 16v159q0 5 2 10t6 8t8 4
q5 2 10 2q99 -10 184 -53q84 -44 146 -112q63 -68 98 -157t35 -188q0 -106 -40 -200q-41 -93 -110 -162q-70 -70 -163 -110q-94 -41 -200 -41v0zM50 373q10 -87 50 -162t102 -130q62 -56 141 -87q80 -31 168 -31q97 0 181 36q85 37 148 100t100 148t37 181q0 87 -30 165
t-82 139q-53 61 -125 102q-73 41 -158 54v-113q62 -12 114 -44q52 -33 90 -79t59 -104q21 -57 21 -120q0 -74 -28 -138q-28 -65 -76 -113t-113 -76q-64 -28 -138 -28q-66 0 -125 23q-59 22 -106 62t-78 95t-41 120h-111z" />
    <glyph glyph-name="uniE928" unicode="&#xe928;" 
d="M1020 412l-174 246q-9 13 -22 23q-14 11 -29 18l-112 46q-5 1 -9 1q-5 0 -9 -2q-3 -1 -5 -3t-4 -5l-129 52v12q0 5 2 9q3 4 7 6q20 8 30 27q11 20 7 42q-3 19 -17 33t-33 17q-14 2 -27 -1q-13 -4 -24 -13q-11 -8 -16 -20q-6 -13 -6 -27q0 -7 4 -11t11 -4q6 0 10 4
q5 4 5 11t3 13q3 7 8 11q6 5 13 7t14 1q10 -2 17 -9q7 -8 9 -17q2 -12 -3 -22q-6 -10 -17 -14q-12 -5 -19 -16q-8 -12 -8 -27v-12l-129 -52q-2 3 -4 5t-5 3q-4 2 -8 2q-5 0 -10 -1l-112 -46q-15 -7 -28 -17q-14 -11 -23 -24l-174 -246q-3 -4 -3 -8q-1 -5 -1 -9q1 -5 3 -8
q3 -4 7 -7l142 -95l6 -2v0l7 -1h4q4 1 8 3q4 3 6 7l43 65l-32 -414q-1 -5 0 -10q2 -5 5 -8q4 -3 8 -5q4 -3 9 -3h592q5 0 9 2l8 6q3 3 4 8q2 5 1 9l-32 415l43 -65q2 -4 6 -6q4 -3 8 -4t8 0q5 1 9 3l142 95q4 3 6 6q3 4 4 9v8q-1 5 -4 9v0zM512 762l129 -52q-8 -12 -19 -25
q-12 -14 -25 -28l-17 7q-33 13 -68 13t-68 -13l-17 -7q-13 14 -24 27q-12 14 -20 26zM562 623q-13 -13 -26 -24q-13 -12 -24 -21q-11 9 -24 20q-13 12 -26 25q24 9 50 9t50 -9v0zM866 335l-75 115l-4 45q-1 10 -8 16t-16 5t-15 -8q-6 -8 -6 -17l42 -529h-544l42 529
q0 9 -6 16q-6 8 -15 9q-9 0 -16 -5q-7 -6 -8 -16l-4 -45l-75 -115l-104 70l160 227q6 8 14 14q9 7 18 11l93 38q30 -50 89 -103q60 -53 70 -61q6 -5 14 -5t14 5q10 8 69 61q60 53 90 103l93 -38q10 -4 18 -10q8 -7 14 -15l160 -227z" />
    <glyph glyph-name="uniE929" unicode="&#xe929;" 
d="M1010 8l-98 398q-15 62 -64 97q-50 36 -113 36h-31v36q0 41 -15 77q-14 36 -40 63t-61 42q-35 16 -76 16t-76 -16q-35 -15 -61 -42t-40 -63q-15 -36 -15 -77v-36h-31q-63 0 -112 -35q-50 -36 -65 -98l-98 -401q-4 -16 -1 -32q4 -17 14 -30t25 -21t31 -8h858q16 0 31 8
q15 9 25 22t13 30q4 18 0 34v0zM959 -26q-3 -4 -8 -8t-10 -4h-858q-5 0 -10 4t-8 8q-4 4 -5 10t0 11l99 399q11 45 47 71t83 26h31v-89q0 -10 7 -17t17 -7t17 7t7 17v173q0 62 41 106t103 44t103 -44t41 -106v-173q0 -10 7 -17t17 -7t17 7t7 17v89h31q47 0 83 -25
q36 -26 47 -71l99 -403q1 -5 0 -9q-1 -5 -5 -9v0zM622 539h-220q-10 0 -17 -7t-7 -17t7 -17t17 -7h220q10 0 17 7t7 17t-7 17t-17 7zM260 685q-6 0 -10 3q-4 4 -6 9l-11 36q-6 19 -19 32q-14 14 -33 20l-37 11q-5 2 -8 6t-3 10q0 5 3 9q3 5 8 6l37 11q19 6 32 20
q14 14 20 32l11 37q2 5 6 8t10 3q5 0 9 -3t6 -8l11 -37q6 -18 19 -32q14 -14 33 -20l37 -11q5 -1 8 -5q3 -5 3 -10q0 -6 -3 -10t-8 -6l-37 -11q-19 -6 -32 -19q-14 -14 -20 -33l-11 -36q-2 -5 -6 -8q-4 -4 -9 -4v0zM201 812q20 -9 35 -24t24 -34q8 19 23 34t35 24
q-20 8 -35 23t-23 35q-9 -20 -24 -35t-35 -23zM118 654q-7 0 -11 4q-5 5 -5 12v16q0 6 4 11q5 5 12 5q6 0 11 -5t5 -11v-16q0 -7 -5 -11q-5 -5 -11 -5zM86 622h-16q-6 0 -11 5t-5 11q0 7 5 11q5 5 11 5h16q7 0 11 -4q5 -5 5 -12q0 -6 -4 -11q-5 -5 -12 -5zM165 622h-16
q-7 0 -11 5q-5 5 -5 11q0 7 4 11q5 5 12 5h16q7 0 11 -4q5 -5 5 -12q0 -6 -4 -11q-5 -5 -12 -5v0zM118 575q-7 0 -11 4q-5 5 -5 12v16q0 6 4 11q5 5 12 5q6 0 11 -5t5 -11v-16q0 -7 -5 -11q-5 -5 -11 -5zM514 172q-37 0 -63 26q-26 27 -26 64q0 36 26 62q26 27 63 27t63 -26
q26 -27 26 -63q0 -37 -26 -63q-26 -27 -63 -27zM514 303q-17 0 -29 -12q-12 -13 -12 -29q0 -17 12 -29q12 -13 29 -13t29 12q12 13 12 30q0 16 -12 28q-12 13 -29 13z" />
    <glyph glyph-name="uniE92A" unicode="&#xe92a;" 
d="M704 486q1 3 6 22t23 62q28 72 34 104t6 40q3 83 -31 147t-36 67q-3 5 -6 8q-4 3 -10 3q-10 0 -15 -7t-5 -17v-63q0 -36 -25 -61q-26 -26 -62 -26t-61 25q-26 26 -26 62v63q0 8 -6 14q-7 6 -15 9q-7 2 -15 0q-9 -3 -13 -10q-2 -3 -36 -67q-35 -64 -32 -147q0 -8 5 -40
q6 -32 35 -104q19 -47 23 -65l5 -19v-2q-20 -25 -57 -77q-37 -53 -69 -114q-1 -1 -20 -36q-20 -36 -53 -83q-34 -48 -79 -96q-44 -49 -95 -75q-6 -4 -9 -10q-4 -6 -4 -12q0 -7 4 -13t10 -8q2 -1 39 -13q38 -12 89 -12q40 0 62 7q22 8 41 17q5 3 11 5l12 6q35 15 70 13
t83 -37q23 -15 48 -23q26 -8 54 -8q33 0 69 10q36 11 73 32q40 23 99 37q60 14 94 -41q4 -7 12 -9q8 -3 16 -1q8 3 12 10q5 7 4 15q-1 4 -9 52q-9 47 -36 120t-78 164q-50 91 -136 182v0zM425 711q1 1 1 2v2q-1 28 4 55q6 27 14 51q11 -45 47 -74q37 -30 84 -30q48 0 84 30
q37 30 47 75q9 -24 14 -51q6 -28 5 -56v-3q1 -1 -3 -29q-5 -28 -34 -98q-11 -28 -17 -47q-6 -20 -9 -32h-173q-3 12 -9 31q-6 20 -17 48q-29 70 -33 98t-5 28v0zM703 -1q-40 -23 -93 -35t-100 21q-66 47 -113 46t-86 -17q-8 -3 -14 -6l-12 -6q-17 -9 -33 -14q-17 -6 -49 -6
q-17 0 -33 2t-29 5q47 35 87 82t69 90q30 43 47 73q17 31 19 34q34 64 73 121q40 57 56 69h43l-60 -104q-4 -9 -2 -17q3 -9 12 -14q2 -1 5 -1q3 -1 6 -1q6 0 12 3q6 4 9 10l59 106l26 -44q4 -5 9 -8q6 -3 12 -3q3 0 6 1l6 2q8 5 10 13q3 9 -2 17l-26 40h43q58 -59 100 -121
q42 -61 70 -118q29 -58 46 -107q17 -50 26 -85q-38 17 -89 11t-110 -39v0z" />
    <glyph glyph-name="uniE92B" unicode="&#xe92b;" 
d="M952 192l-229 555q-6 15 -18 26t-27 16l-288 98q-6 2 -12 3t-12 1q-15 0 -29 -6t-24 -17q-34 29 -68 49q-35 20 -64 22q-22 1 -35 -7q-13 -9 -20 -18q-9 -11 -11 -24q-3 -14 0 -29q9 -40 53 -74t75 -52l-78 -158q-7 -14 -7 -30q-1 -16 5 -31l230 -556q8 -21 26 -33
q19 -12 42 -12v0v0q7 0 14 1t14 4l424 175q28 12 39 40q12 28 0 57v0zM162 872q-1 4 0 7t3 6q1 2 4 4t10 1q19 -1 48 -19q30 -18 61 -46l-23 -46q-42 23 -70 49t-33 44v0zM894 140l-423 -175q-3 -1 -5 -1q-3 -1 -5 -1q-8 0 -14 4q-7 5 -10 12l-229 556q-2 5 -2 10t2 10
l89 179l27 55q10 -10 19 -20q9 -11 17 -22q-5 -5 -9 -11q-5 -7 -8 -14q-7 -16 -7 -32t7 -31q9 -24 30 -37q21 -14 46 -14v0v0q8 0 16 1q8 2 15 5q15 6 26 17q12 12 19 27q6 16 6 32t-6 31q-10 24 -30 37q-21 14 -46 14h-8q-4 -1 -8 -1q-12 16 -26 32t-29 31q4 4 8 6
q5 2 10 2h4v0l4 -1l289 -98q5 -2 9 -5q4 -4 6 -9l230 -556q4 -10 0 -19q-4 -10 -14 -14v0zM388 703v1q1 1 1 2v0v-1q4 -5 9 -8q6 -3 12 -3q3 0 6 1l6 2q6 4 9 10t3 13q5 -3 9 -7q5 -4 7 -10q3 -6 3 -13t-3 -13t-7 -11q-5 -5 -11 -7q-3 -2 -6 -2q-4 -1 -7 -1q-11 0 -19 6
q-9 6 -13 15q-2 6 -2 13t2 13h1zM643 531q-9 4 -18 0q-10 -4 -13 -13l-141 -339q-4 -9 0 -18t13 -13q3 -1 5 -1q2 -1 5 -1q7 0 13 4t9 11l140 338q4 9 1 18q-4 10 -14 14v0zM508 420q-9 21 -27 33q-19 13 -42 13q-8 0 -15 -1q-7 -2 -14 -5q-14 -5 -24 -15q-11 -11 -16 -25
q-6 -14 -6 -29t6 -29q8 -21 27 -33q19 -13 42 -13q7 0 14 1q8 2 14 5q29 12 41 40q12 29 0 58v0zM449 366q-10 -4 -20 0q-11 5 -15 15q-2 5 -2 10t2 10t6 9t9 6q2 1 4 1q3 1 6 1q8 0 14 -4q7 -5 10 -13q5 -10 1 -20q-5 -10 -15 -15v0zM689 362q-8 0 -15 -1t-14 -4
q-14 -6 -24 -16q-11 -11 -17 -25q-5 -14 -5 -28q0 -15 5 -29q9 -21 28 -34t42 -13q7 0 14 1q7 2 14 5q29 12 41 40q12 29 0 58q-9 21 -28 33q-19 13 -41 13v0zM699 263q-10 -4 -20 0q-11 4 -15 14q-2 5 -2 10q0 6 2 11t6 8q4 4 8 6q3 1 5 1q3 1 6 1q8 0 14 -4q7 -5 10 -12
q4 -11 0 -21t-14 -14v0zM329 19l-139 -13q-5 -1 -9 0q-4 2 -7 4q-3 3 -5 7t-3 8l-52 551q0 4 1 8q2 5 5 8l96 101q6 7 6 17t-7 17q-8 7 -18 7t-17 -8l-95 -100q-10 -11 -15 -25q-5 -15 -4 -30l52 -551q1 -14 7 -26q7 -12 18 -21q10 -8 21 -12t23 -4h7l139 14q10 0 16 8
q7 8 6 18t-8 16q-8 7 -18 6v0z" />
    <glyph glyph-name="uniE92C" unicode="&#xe92c;" 
d="M1014 202q-1 0 -8 2q-7 3 -19 6q2 14 3 28q2 15 2 29q0 78 -35 144q-35 67 -93 111v0v0q-40 30 -89 47q-49 18 -103 18q-9 0 -18 -1t-19 -2q-19 24 -34 36q-16 12 -17 12q-2 2 -5 2q-4 1 -7 0q-4 -1 -6 -3q-3 -2 -4 -5q-11 -22 -29 -41q-19 -20 -46 -38q-35 -23 -63 -54
t-47 -67q-20 -36 -31 -76q-10 -41 -10 -83q0 -70 26 -131q27 -61 72 -106q46 -46 107 -73q62 -26 131 -26q80 0 150 35q71 35 119 99q7 9 13 20t12 23q10 21 21 39q12 19 27 25q5 2 7 6q3 4 3 9t-3 9t-7 6v0zM672 555q48 0 91 -15t79 -41q3 -12 4 -24q2 -12 2 -24
q0 -30 -8 -58q-9 -29 -26 -53q-3 -6 -2 -12q1 -7 7 -11q2 -1 4 -1q2 -1 5 -1t7 1q4 2 6 6q19 28 29 61t10 68v7v0l-1 8q38 -39 59 -90q22 -51 22 -109q0 -13 -1 -26t-4 -26q-22 3 -50 1t-57 -12q-14 6 -55 17q-42 11 -97 10q21 49 11 85q-10 37 -18 50q10 62 -1 108
q-12 47 -32 80h8q4 1 8 1v0zM937 123q-5 -11 -10 -21q-6 -10 -12 -18q-43 -58 -107 -89q-64 -32 -136 -32q-63 0 -118 24q-56 24 -97 65t-65 96q-24 56 -24 119q0 77 36 144q37 67 101 110q25 16 44 34q19 19 32 40q7 -6 15 -14q9 -9 19 -21v-1l2 -2q20 -28 35 -72t6 -107
q-13 -1 -34 -4q-21 -4 -39 -13q-6 -3 -8 -9q-2 -7 1 -12q2 -5 6 -7t8 -2h3v0l4 1q16 8 35 11t29 3q7 -12 13 -44q7 -33 -18 -75q-34 -5 -69 -19q-36 -14 -71 -41q-5 -4 -6 -10q-1 -7 3 -12t11 -6t12 3q50 39 104 49q53 10 97 6q45 -5 73 -15l29 -10q3 -1 6 -1q4 0 7 1
q34 13 66 13q32 -1 53 -5q-11 -12 -19 -27q-9 -15 -17 -30v0zM338 660q2 -10 5 -22q4 -13 11 -26q2 -5 6 -7t8 -2h3v0l4 1q6 3 8 9q2 7 -1 13q-10 21 -12 38q-2 18 -2 19v0v0v1q-9 102 31 147q41 46 62 57q12 -12 25 -22t26 -19l20 -16q11 -8 21 -16q34 -31 58 -69
q24 -39 35 -83q2 -7 8 -10t12 -2q6 2 9 7q4 6 2 13q-12 49 -38 91q-27 43 -65 77q-10 9 -21 17q-12 9 -22 17q-15 11 -29 21q-14 11 -27 24q-3 3 -7 4q-5 1 -10 0q0 -1 -21 -11q-21 -11 -44 -37q-24 -27 -43 -71q-19 -43 -15 -110q-22 -9 -65 -44q-43 -36 -58 -117
q-11 12 -16 21l-6 9q-1 3 -4 5q-3 3 -7 3q-31 7 -60 1q-29 -7 -53 -17q-1 8 -1 16q-1 9 -1 17q0 53 18 101t50 86q33 38 77 63q45 26 98 34q6 1 10 6q4 6 3 12q-1 7 -6 11q-6 4 -13 3q-58 -10 -108 -38q-49 -28 -85 -70t-56 -96q-20 -53 -20 -112q0 -12 1 -24t3 -24
q-13 -8 -21 -13q-8 -6 -9 -7q-5 -4 -6 -10t3 -11q24 -37 43 -63q20 -27 37 -50q32 -42 75 -72q43 -31 93 -47h2q2 -1 3 -1q5 0 9 3q5 3 6 9q2 6 -1 12t-9 8q-46 14 -84 41q-39 28 -68 66q-16 21 -33 44t-38 55q17 11 52 26q36 16 76 11q8 -14 33 -42q26 -28 69 -39
q7 -1 12 2q6 3 8 10q1 6 -2 12q-4 6 -10 7q-10 3 -19 7t-17 9q9 73 42 107q34 35 56 47v0z" />
    <glyph glyph-name="uniE92D" unicode="&#xe92d;" 
d="M391 270v0h-1q-1 1 -2 1q-18 6 -34 15q-17 9 -32 19q-22 16 -41 35q-19 20 -33 42q-35 54 -44 103t-10 65v3q1 2 2 3q2 2 3 2q2 1 4 1q16 0 62 -8t97 -40q-1 19 5 51q7 33 35 70q3 3 6 3q4 1 7 -1q3 -3 3 -6q1 -4 -2 -7q-39 -50 -36 -87q3 -38 3 -39q1 -2 0 -5t-3 -5
q-3 -1 -5 -1q-3 0 -6 1q-46 34 -91 44t-66 12q2 -21 12 -63t38 -86q14 -21 31 -39q18 -19 39 -33q14 -10 29 -18q16 -8 33 -14q3 -1 4 -3q2 -3 2 -6t-2 -6q-3 -3 -7 -3v0zM497 252q-2 0 -3 1q-2 1 -3 2l-7 7v1q-19 20 -45 61q-27 41 -36 102q-1 9 -1 18q-1 9 -1 19
q-2 83 32 139q35 56 50 72l7 9l3 3q2 1 4 1v0v0q2 0 4 -1t3 -3l8 -9q15 -16 49 -72t33 -139q0 -9 -1 -18q-1 -10 -2 -19q-9 -61 -35 -102t-45 -61l-1 -1l-6 -7q-1 -1 -3 -2t-4 -1v0v0zM497 664l-1 -1q-14 -16 -46 -69q-33 -53 -32 -131q0 -9 1 -17l2 -18q8 -57 33 -96
t43 -58q18 19 43 58t33 96q2 9 2 17q1 9 1 18q1 79 -31 131q-32 53 -46 68zM48 427v0v0l-2 1q-1 0 -2 1q-1 0 -3 2q-1 1 -1 3v3q1 3 3 4q2 2 5 2h2q3 -1 4 -3q2 -3 2 -6q-1 -3 -3 -5t-5 -2v0zM58 465h-1l-1 1q-2 0 -3 1t-2 3q-1 1 -1 2v4q1 2 3 3q2 2 5 2h2q2 0 3 -1
q1 -2 2 -3t1 -2q0 -2 -1 -4q0 -2 -2 -4q-3 -2 -5 -2v0zM71 502h-1q-1 1 -2 1q-2 1 -3 2t-1 2q-1 2 -1 3q0 2 1 3q1 3 4 4q3 2 6 1q2 -1 3 -2t1 -2q1 -2 1 -3q0 -2 -1 -4t-3 -3q-2 -2 -4 -2v0zM87 538h-2q-1 1 -2 1l-2 2v0l-2 3v3v0l1 3q2 3 5 4t6 -1q1 0 2 -1q1 -2 2 -3v-3
v0l-1 -3q-1 -2 -3 -3q-2 -2 -4 -2v0zM106 573h-2v0l-2 1l-2 2v0l-2 3v3q1 2 2 3q1 3 4 3q4 1 7 -1l2 -2v0l1 -3q1 -1 1 -2l-2 -4t-3 -2q-2 -1 -4 -1v0zM128 605h-2l-2 2q-3 2 -3 5q-1 3 1 6t5 3q4 0 6 -2q2 -1 2 -2q1 -1 1 -3q1 -1 1 -2l-2 -4q-1 -1 -3 -2t-4 -1v0zM154 635
h-3q-2 1 -3 2q-2 3 -2 6q-1 3 1 6q3 2 6 2q3 1 6 -2q2 -2 2 -5q1 -3 -1 -6q-2 -1 -3 -2q-2 -1 -3 -1v0zM181 663q-2 0 -3 1q-2 1 -3 2q-2 2 -2 5q0 4 2 6q3 2 6 2q4 0 6 -2t2 -5q0 -4 -2 -6q-2 -1 -3 -2t-3 -1v0zM211 689q-2 0 -3 1q-2 1 -3 2q-2 3 -2 6t3 5q2 2 5 2
q4 0 6 -3t2 -6q-1 -3 -3 -5q-1 -1 -2 -1q-2 -1 -3 -1v0zM243 712q-2 0 -4 1t-3 3q-1 1 -1 2v4q0 1 1 2q1 2 2 3q3 1 6 1q4 -1 5 -4q2 -2 2 -5q-1 -4 -4 -6h-2q-1 -1 -2 -1v0zM276 732q-2 0 -3 1q-2 1 -4 3q-1 3 0 6q1 4 4 5q3 2 6 1t5 -4q1 -3 0 -6t-4 -5h-2q-1 -1 -2 -1v0z
M312 749q-3 0 -5 1q-2 2 -3 4v6q1 2 2 3t3 2q3 1 6 0q3 -2 4 -5t0 -6t-4 -4h-1q-1 -1 -2 -1v0zM349 763q-3 0 -5 1q-2 2 -3 5q-1 1 -1 3q1 2 1 3q1 2 2 3q2 1 3 1h2q3 0 5 -1q2 -2 3 -4t1 -3q-1 -2 -1 -3q-1 -2 -2 -3q-2 -1 -3 -1zM386 774q-2 0 -4 2q-3 2 -4 5v2q1 2 1 4
l2 2q2 1 4 1h1q3 0 5 -1q2 -2 3 -5v-3v0l-1 -3l-2 -2v0l-3 -1v0v0l-2 -1v0zM425 782q-3 0 -5 2q-3 2 -3 5q-1 3 1 5q2 3 5 4h2q3 0 5 -2t3 -5q0 -3 -2 -5q-2 -3 -5 -4h-1zM464 786q-3 0 -5 2q-3 2 -3 5t2 5q2 3 5 4q4 0 6 -2q3 -2 3 -6q0 -3 -2 -5q-2 -3 -5 -3h-1zM503 787
v0v0q-3 0 -5 2q-3 2 -3 6q0 3 2 5q3 2 6 2h3q2 -1 3 -2t1 -2q1 -2 1 -4q0 -3 -2 -5q-3 -2 -6 -2v0zM542 784v0v0q-4 0 -6 2q-2 3 -2 7q1 3 3 5t5 2t4 -1q2 -1 3 -2q1 -2 1 -3q1 -2 0 -3q0 -3 -2 -5q-3 -2 -6 -2v0zM581 778h-1q-2 0 -3 1t-2 3q-1 1 -1 2q-1 2 -1 4q1 2 3 4
t5 2h2q1 -1 2 -1q2 -1 3 -3q1 -1 1 -2v-4q-1 -2 -3 -4t-5 -2v0zM619 769h-2q-3 1 -4 4q-2 3 -1 6q0 2 2 4q3 2 5 2h1q1 -1 2 -1q3 -1 4 -4q2 -3 1 -6q-1 -2 -3 -3q-2 -2 -5 -2v0zM657 756h-2v0l-1 1q-3 1 -4 4q-2 3 -1 6t4 4q4 2 7 0q3 -1 4 -4t0 -6q-1 -2 -3 -3
q-2 -2 -4 -2v0zM693 740h-2q-1 1 -2 1q-3 2 -4 5t1 6q1 3 4 4q4 1 7 -1q2 -1 3 -4t0 -6q-1 -2 -3 -3q-2 -2 -4 -2v0zM727 722h-2v0l-2 1q-1 0 -2 1q-1 2 -1 3q-1 2 -1 3q0 2 1 4q2 2 5 3q4 1 6 -1q2 0 3 -1q1 -2 1 -3v-3v0l-1 -4q-1 -1 -3 -2t-4 -1zM760 700h-2v0l-3 1
q-2 1 -2 2q0 2 -1 3v3v0l1 3q2 3 5 3q4 1 6 -1q2 -1 3 -2t1 -3v-3q-1 -2 -2 -3l-2 -2q-2 -1 -4 -1v0zM791 675h-3q-2 1 -3 2t-1 2q-1 2 -1 3q-1 2 -1 3q1 2 3 3q2 3 5 3t6 -2q1 -1 1 -2q1 -2 2 -3v-3q-1 -2 -2 -3q-2 -1 -3 -2q-2 -1 -3 -1v0zM819 648h-3q-2 1 -3 2t-1 2
q-1 2 -1 4v3q1 2 2 3q3 2 6 2t6 -2q1 -2 1 -3q1 -2 1 -3v-3q-1 -2 -2 -3l-3 -1v0l-3 -1v0zM845 619h-3q-2 1 -3 3q-1 1 -1 2q-1 2 -1 3q0 2 1 3q1 2 2 3q3 2 6 2q3 -1 5 -3q1 -2 1 -3q1 -2 1 -3q0 -2 -1 -3q-1 -2 -2 -3h-2q-2 -1 -3 -1v0zM869 587q-2 0 -4 1t-3 3q-2 2 -2 5
q1 4 4 6q3 1 6 1q3 -1 5 -4q1 -1 1 -2q1 -2 0 -4q0 -1 -1 -2q-1 -2 -2 -3h-2q-1 -1 -2 -1v0zM889 554q-2 0 -4 1t-3 3q-1 3 0 6t3 5q3 1 6 0q4 -1 5 -4q2 -2 1 -5q-1 -4 -4 -5q-1 -1 -2 -1h-2zM907 519q-3 0 -5 1t-2 3q-2 3 -1 6q2 4 5 5t6 0t4 -4t0 -6t-4 -5h-3zM922 482
q-3 0 -5 1q-2 2 -3 5t0 6q2 3 5 4h3q2 0 4 -1q2 -2 3 -4q1 -4 0 -6q-2 -3 -5 -4q0 -1 -1 -1h-1zM933 445q-3 0 -5 1q-2 2 -3 4v3v0l1 3q1 2 2 3t3 1h2q3 0 5 -1q2 -2 3 -4v-3v0l-1 -3q-1 -2 -2 -3t-3 -1h-2zM941 406q-3 0 -5 2q-3 2 -3 4v3v0l1 3q1 2 2 3q2 1 3 1q3 0 6 -2
t4 -5v-2l-2 -4l-2 -2v0l-3 -1h-1zM449 137q-44 0 -83 1q-40 2 -72 5q-64 5 -78 12q-15 8 -15 16q0 4 2 6q3 3 6 3v0h1q2 0 4 -2q3 -2 4 -4q10 -8 84 -14q74 -7 197 -5q123 3 196 12q74 9 84 17q1 3 3 4q3 2 6 2v0v0q4 0 6 -2q3 -3 3 -6q0 -8 -14 -16t-78 -16q-41 -5 -94 -8
t-112 -4q-12 -1 -25 -1h-25zM425 51q-76 0 -144 2q-69 3 -125 7q-117 10 -136 23q-20 13 -20 20t16 19q17 13 120 27q3 0 6 -2t3 -6q1 -4 -1 -6q-3 -3 -6 -4q-70 -9 -93 -17t-26 -11q7 -6 44 -13t100 -12q64 -5 152 -8t198 -1q109 2 197 8t151 13q63 8 100 16t44 15
q-3 3 -26 10q-24 7 -95 14q-3 0 -5 3q-3 3 -3 6q1 4 4 6q3 3 6 2q103 -10 120 -21q18 -12 18 -20q0 -22 -76 -36q-77 -13 -171 -20q-94 -8 -175 -11q-81 -2 -89 -2q-22 -1 -44 -1h-44zM504 266q-3 3 -6 3q-4 0 -7 -2q-6 -6 -13 -11t-15 -10q-21 -11 -55 -23t-76 -12
q-38 -1 -74 9q-36 11 -71 32q-29 17 -49 36q-21 20 -31 31q5 3 12 6l50 25v0l28 13q4 2 8 3q5 2 10 2l18 -6l1 -1h2q3 0 5 1q2 2 3 5t0 6q-2 4 -5 5l-18 7q-4 5 -14 23q-11 18 -14 38q-1 4 -4 6t-6 2q-4 -1 -6 -4t-2 -7q3 -17 11 -33q8 -17 14 -27q-2 0 -4 -1l-6 -2
q-11 -4 -28 -13t-34 -17q-12 -6 -23 -12t-14 -7q-2 0 -4 -1q-2 -2 -2 -4q-1 -2 -1 -4q0 -3 2 -5q8 -10 31 -33q24 -24 61 -47q36 -21 74 -31q38 -11 77 -11h3q36 0 71 9q36 10 69 28q8 4 16 9q8 6 15 13q3 2 3 5q0 4 -2 7v0zM798 556q-1 2 -3 2q-2 1 -3 1q-16 0 -62 -8
t-98 -40q2 19 -4 51q-7 33 -36 70q-2 3 -5 3q-4 1 -7 -1q-3 -3 -3 -6q-1 -4 1 -7q36 -46 36 -81q0 -36 -2 -43l-9 -10q-2 -3 -2 -7q1 -4 3 -6q2 -1 3 -1q2 -1 3 -1q2 0 4 1t3 2l9 11q46 33 91 43t65 12q-2 -21 -11 -63q-10 -42 -39 -86q-14 -21 -31 -39q-18 -19 -39 -33
q-14 -10 -29 -18q-16 -8 -32 -14q-3 -1 -5 -3q-2 -3 -2 -6t3 -6t6 -3h2l1 1q18 6 34 15q17 9 33 19q22 16 40 35q19 20 34 42q35 53 44 102q9 50 10 66q0 1 -1 3t-2 3v0zM910 326q-1 2 -2 3q-2 2 -4 2q-3 1 -14 6q-11 6 -23 13q-17 8 -34 17q-18 9 -28 13q-3 1 -5 2
q-3 1 -6 1q7 10 14 26q8 17 11 35q1 3 -1 6q-3 3 -6 4q-4 0 -7 -2t-3 -6q-3 -20 -13 -37q-11 -18 -15 -24l-15 -3q-4 0 -6 -3q-2 -4 -1 -7q0 -3 2 -5q3 -2 6 -2h2l17 3q5 0 9 -1l10 -4q10 -4 27 -12l34 -17l17 -8v0l11 -7q-10 -11 -30 -31t-50 -37q-33 -21 -69 -31
q-36 -11 -73 -11h-2q-43 0 -76 12q-34 12 -56 24q-7 4 -17 12l-11 9q-3 3 -6 3q-4 -1 -7 -4q-2 -2 -2 -6q1 -4 4 -6l11 -8v0l20 -13q32 -18 68 -27q36 -10 71 -10h3q40 0 78 10q38 11 73 32q39 24 62 48q24 24 31 33q1 2 1 4q1 2 0 4v0z" />
    <glyph glyph-name="uniE92E" unicode="&#xe92e;" 
d="M1016 670q-1 5 -2 9t-3 8q-2 7 -7 10q-6 3 -13 1q-6 -2 -9 -8t-1 -12q1 -4 2 -7l2 -8q3 -15 5 -30t2 -30q0 -118 -66 -227q-66 -108 -150 -194t-162 -143q-78 -58 -102 -73q-24 15 -102 73q-78 57 -162 143t-150 194q-66 109 -66 227q0 53 20 99q20 47 55 81q35 35 81 56
q47 20 100 20q74 0 129 -35q56 -35 80 -96q2 -5 6 -8t9 -3t9 3t6 8q24 61 79 96q56 35 130 35q7 0 11 4q5 5 5 12q0 6 -4 11q-5 5 -12 5q-74 0 -132 -32q-59 -32 -92 -89q-33 57 -91 89q-59 32 -133 32q-60 0 -112 -23t-91 -62q-40 -39 -62 -91q-23 -53 -23 -112
q0 -134 76 -254q76 -119 168 -210q93 -91 172 -146q80 -55 88 -60q2 -1 4 -1q2 -1 4 -1h4l4 2q8 5 88 60q79 55 171 146q93 91 169 210q76 120 76 254q0 17 -2 34t-6 33v0zM181 118l-149 -149v90q0 6 -4 11q-5 5 -12 5t-11 -5q-5 -5 -5 -11v-128v-3q1 -2 1 -3q1 -3 3 -5
q3 -3 6 -4q1 -1 2 -1h132q7 0 11 4q5 5 5 12q0 6 -4 11q-5 5 -12 5h-89l148 148q5 5 5 11q0 7 -5 12q-4 5 -11 5t-11 -5v0zM672 731v-122l-152 -152q-2 1 -4 1q-2 1 -4 1q-13 0 -22 -9q-10 -10 -10 -23q0 -14 9 -23q10 -9 23 -9t22 9q10 9 10 23v4q-1 2 -1 4l152 152h121
q3 0 6 1t5 3l192 192q4 4 5 8q1 5 -1 10q-2 4 -6 7t-9 3h-112v112q0 5 -2 9q-3 4 -8 5q-4 2 -9 1t-8 -4l-192 -192q-3 -2 -4 -5t-1 -6v0zM704 724l160 160v-89q0 -7 4 -11q5 -5 12 -5h89l-160 -160h-105v105z" />
    <glyph glyph-name="uniE92F" unicode="&#xe92f;" 
d="M824 57q-4 0 -7 2q-4 2 -6 6l-44 89q-3 5 -1 11t8 8q5 3 11 1t8 -7l31 -62l49 103q2 6 8 8t11 -1t7 -8q3 -6 0 -11l-62 -131q-2 -4 -5 -6q-4 -2 -8 -2v0v0v0zM824 250q-4 0 -7 2q-4 2 -6 6l-44 89q-3 5 -1 10q2 6 8 9q5 3 11 1t8 -7l31 -62l49 103q2 5 8 7t11 0
q5 -3 7 -8q3 -6 0 -12l-62 -130q-2 -4 -5 -6q-4 -2 -8 -2v0v0v0zM824 455q-4 0 -7 2q-4 2 -6 6l-44 89q-3 5 -1 11t8 8q5 3 11 1t8 -7l31 -62l49 103q2 5 8 7t11 0q5 -3 7 -8q3 -6 0 -12l-62 -130q-2 -4 -5 -6q-4 -2 -8 -2v0v0v0zM232 76h-92q-6 0 -10 4q-5 4 -5 11v92
q0 6 4 10q5 4 11 4h92q6 0 10 -4q5 -4 5 -10v-92q0 -7 -4 -11q-5 -4 -11 -4v0zM155 105h63v63h-63v-63zM232 246h-92q-6 0 -10 4q-5 4 -5 10v93q0 6 4 10q5 4 11 4h92q6 0 10 -4q5 -4 5 -10v-93q0 -6 -4 -10q-5 -4 -11 -4v0zM155 275h63v63h-63v-63zM232 416h-92q-6 0 -10 4
q-5 4 -5 10v93q0 6 4 10q5 4 11 4h92q6 0 10 -4q5 -4 5 -10v-93q0 -6 -4 -10q-5 -4 -11 -4v0zM155 445h63v63h-63v-63zM512 884q-16 0 -28 -12t-12 -28q0 -17 12 -28q12 -12 28 -12t28 11q12 12 12 29q0 16 -12 28t-28 12zM512 833q-4 0 -7 3q-4 4 -4 8t3 7q4 4 8 4t7 -3
q4 -4 4 -8t-3 -7q-4 -4 -8 -4zM547 81h-227q-6 0 -10 4q-4 5 -4 11t4 10t10 4h227q6 0 10 -4q5 -4 5 -10t-4 -10q-5 -5 -11 -5zM728 162h-408q-6 0 -10 4t-4 10t4 10q4 5 10 5h408q6 0 10 -4q5 -5 5 -11t-4 -10q-5 -4 -11 -4zM618 252h-298q-6 0 -10 4t-4 10t4 10q4 5 10 5
h298q6 0 10 -4q5 -5 5 -11t-4 -10q-5 -4 -11 -4zM728 332h-408q-6 0 -10 4q-4 5 -4 11t4 10t10 4h408q6 0 10 -4q5 -4 5 -10t-4 -10q-5 -5 -11 -5zM618 422h-298q-6 0 -10 4q-4 5 -4 11t4 10q4 5 10 5h298q6 0 10 -4q5 -5 5 -11t-4 -10q-5 -5 -11 -5zM728 503h-408
q-6 0 -10 4t-4 10t4 10q4 5 10 5h408q6 0 10 -4q5 -5 5 -11t-4 -10q-5 -4 -11 -4zM999 -85h-974q-6 0 -10 4q-5 4 -5 10v830q0 6 4 10q5 5 11 5h324q6 0 10 -4q5 -5 5 -11v-64q0 -26 19 -44q19 -19 45 -19h168q26 0 45 18q19 19 19 45v64q0 6 4 10q5 5 11 5h324q6 0 10 -4
q5 -5 5 -11v-830q0 -6 -4 -10q-5 -4 -11 -4v0zM40 -56h944v801h-294v-51q-1 -38 -28 -65q-28 -27 -66 -27h-168q-38 0 -65 27q-28 27 -29 65v51h-294v-801zM596 602h-168q-38 0 -65 27q-28 27 -29 65v100q0 6 4 10q5 5 11 5h73q-3 8 -4 16q-2 9 -2 18q0 20 8 38q9 19 24 33
t34 20q20 6 41 4q33 -3 57 -27q24 -25 28 -59q1 -11 0 -22q-2 -11 -6 -21h73q6 0 10 -4q5 -5 5 -11v-100q-1 -38 -28 -65q-28 -27 -66 -27v0zM364 780v-85q0 -26 19 -44q19 -19 45 -19h168q26 0 45 18q19 19 19 45v85h-82q-5 0 -8 2q-4 2 -5 6q-2 3 -2 7q0 5 3 8q7 10 10 22
q4 12 3 24q-3 23 -20 40q-17 18 -40 20q-14 2 -27 -2q-14 -5 -25 -15q-10 -9 -16 -22t-6 -27q0 -11 3 -21q4 -10 10 -19q3 -3 3 -7q0 -5 -2 -8q-1 -4 -4 -6q-4 -2 -9 -2h-82z" />
    <glyph glyph-name="uniE930" unicode="&#xe930;" 
d="M16 75q-7 0 -11 4q-5 5 -5 12v768q0 33 23 56q24 24 57 24h224q7 0 11 -5q5 -5 5 -11q0 -7 -4 -11q-5 -5 -12 -5h-224q-20 0 -34 -14t-14 -34v-768q0 -7 -4 -11q-5 -5 -12 -5zM37 174h-3l-4 2q-6 4 -8 10t1 12l1 3v0l2 2l376 651q16 29 48 37q32 9 61 -8l194 -112
q6 -3 7 -9q2 -7 -1 -13q-3 -5 -9 -7q-7 -2 -13 1l-194 112q-17 10 -36 5q-20 -5 -30 -22l-378 -655q-2 -4 -5 -6q-4 -3 -9 -3v0zM100 240q-4 0 -8 2t-6 6q-3 6 -2 12q2 6 7 10l3 1v0l2 2l651 376q29 17 61 8t49 -37l112 -194q3 -6 1 -12q-2 -7 -7 -10q-6 -3 -12 -2
q-7 2 -10 8l-112 194q-10 17 -29 22q-20 5 -37 -5l-655 -378q-2 -2 -4 -2q-2 -1 -4 -1v0zM944 -85h-752q-79 0 -135 56q-57 56 -57 136q0 79 56 135q57 57 136 57h752q33 0 56 -23q24 -24 24 -57v-224q0 -33 -23 -56q-24 -24 -57 -24zM192 267q-66 0 -113 -47t-47 -113
q0 -67 47 -113q47 -47 113 -47h752q20 0 34 14t14 34v224q0 20 -14 34t-34 14h-752zM912 11h-576q-7 0 -11 4q-5 5 -5 12v160q0 6 4 11q5 5 12 5h576q7 0 11 -5q5 -5 5 -11v-160q0 -7 -4 -11q-5 -5 -12 -5zM352 43h544v128h-544v-128zM224 107q0 -14 -9 -23q-10 -9 -23 -9
t-22 9q-10 9 -10 23q0 13 9 22q10 10 23 10t22 -9q10 -10 10 -23zM512 203h32v-192h-32v192zM704 203h32v-192h-32v192z" />
    <glyph glyph-name="uniE931" unicode="&#xe931;" 
d="M1001 96l-332 332l-3 3q-2 1 -3 1l-210 74h-2q-1 1 -3 1v0v0h-1q-1 -1 -2 -1h-2l-1 -1h-1q-1 -1 -2 -1l-2 -2v0v0l-2 -2v0l-1 -3h-1v-1v-2q-1 -1 -1 -2v-1q0 -30 -25 -47q-26 -17 -55 -17q-53 0 -74 39q-22 39 -22 73q0 52 48 98q49 46 128 46q37 0 75 -11q38 -10 69 -30
q31 -21 53 -51q21 -31 27 -71q1 -6 6 -10q6 -4 12 -3q7 1 11 6t3 12q-7 47 -32 82q-24 36 -60 59q-36 24 -79 37q-42 12 -85 12q-96 0 -152 -56q-56 -57 -56 -120q0 -54 32 -99q33 -45 96 -45q28 0 54 12q27 12 42 34l58 -165q1 -2 2 -3q1 -2 2 -3l332 -332q11 -11 26 -17
t31 -6t30 6q15 6 26 17l46 45q11 12 17 26q6 15 6 31t-6 30q-6 15 -17 26v0zM558 267l48 44l245 -243l-47 -47zM978 6l-45 -45q-14 -14 -34 -14q-21 0 -34 14l-38 38l58 58q2 2 3 5q2 3 2 6q0 4 -1 7q-2 3 -4 5l-268 264q-4 5 -10 5q-7 0 -12 -4l-59 -55h-1l-51 147l17 18
l148 -52l329 -329q7 -7 10 -15q4 -9 4 -19t-3 -18q-4 -9 -11 -16v0zM672 -21h-576v49q27 4 45 21q19 18 19 42q0 6 -4 11q-5 5 -12 5t-11 -5q-5 -5 -5 -11q0 -13 -14 -22q-14 -10 -34 -10t-34 9q-14 10 -14 23q0 10 9 18t23 12q1 -6 5 -10q5 -4 11 -4q7 0 11 4q5 5 5 12v81
q27 4 45 21q19 18 19 42q0 6 -4 11q-5 5 -12 5t-11 -5q-5 -5 -5 -11q0 -13 -14 -22q-14 -10 -34 -10t-34 9q-14 10 -14 23q0 10 9 18t23 12q1 -6 5 -10q5 -4 11 -4q7 0 11 4q5 5 5 12v81q27 4 45 21q19 18 19 42q0 6 -4 11q-5 5 -12 5t-11 -5q-5 -5 -5 -11q0 -13 -14 -22
q-14 -10 -34 -10t-34 9q-14 10 -14 23q0 10 9 18t23 12q1 -6 5 -10q5 -4 11 -4q7 0 11 4q5 5 5 12v81q27 4 45 21q19 18 19 42q0 6 -4 11q-5 5 -12 5t-11 -5q-5 -5 -5 -11q0 -13 -14 -22q-14 -10 -34 -10t-34 9q-14 10 -14 23q0 10 9 18t23 12q1 -6 5 -10q5 -4 11 -4
q7 0 11 4q5 5 5 12v81q27 4 45 21q19 18 19 42q0 6 -4 11q-5 5 -12 5t-11 -5q-5 -5 -5 -11q0 -13 -14 -22q-14 -10 -34 -10t-34 9q-14 10 -14 23q0 10 9 18t23 12q1 -6 5 -10q5 -4 11 -4q7 0 11 4q5 5 5 12v80h688v-448q0 -7 4 -11q5 -5 12 -5t11 4q5 5 5 12v464q0 6 -4 11
q-5 5 -12 5h-720q-7 0 -11 -5q-5 -5 -5 -11v-66q-27 -4 -45 -21q-19 -18 -19 -41q0 -24 18 -41q19 -18 46 -22v-51q-27 -4 -45 -21q-19 -18 -19 -41q0 -24 18 -41q19 -18 46 -22v-51q-27 -4 -45 -21q-19 -18 -19 -41q0 -24 18 -41q19 -18 46 -22v-51q-27 -4 -45 -21
q-19 -18 -19 -41q0 -24 18 -41q19 -18 46 -22v-51q-27 -4 -45 -21q-19 -18 -19 -41q0 -24 18 -41q19 -18 46 -22v-65q0 -7 4 -11q5 -5 12 -5h592q7 0 11 4q5 5 5 12q0 6 -4 11q-5 5 -12 5v0z" />
    <glyph glyph-name="uniE932" unicode="&#xe932;" 
d="M944 731h-87l-73 108q-11 17 -28 26q-18 10 -38 10h-220q-20 0 -37 -9q-18 -10 -29 -27l-73 -108h-279q-33 0 -56 -23q-24 -24 -24 -57v-576q0 -33 23 -56q24 -24 57 -24h240q7 0 11 4q5 5 5 12q0 6 -4 11q-5 5 -12 5h-240q-20 0 -34 14t-14 34v576q0 20 14 34t34 14h368
q7 0 11 4q5 5 5 12q0 6 -4 11q-5 5 -12 5h-50l60 90q7 10 17 16q11 6 23 6h220q12 0 22 -6q11 -6 18 -16l60 -90h-50q-7 0 -11 -5q-5 -5 -5 -11q0 -7 4 -11q5 -5 12 -5h176q20 0 34 -14t14 -34v-576q0 -20 -14 -34t-34 -14h-48q-7 0 -11 -5q-5 -5 -5 -11q0 -7 4 -11
q5 -5 12 -5h48q33 0 56 23q24 24 24 57v576q0 33 -23 56q-24 24 -57 24v0zM160 795h96v-32h32v32q0 13 -9 22q-10 10 -23 10h-96q-13 0 -22 -9q-10 -10 -10 -23v-32h32v32zM176 587q0 -14 -9 -23q-10 -9 -23 -9t-22 9q-10 9 -10 23q0 13 9 22q10 10 23 10t22 -9
q10 -10 10 -23zM608 619q-40 0 -78 -10q-39 -10 -74 -28q-5 -4 -7 -10t1 -12t9 -8q7 -2 13 1q31 17 65 26q35 9 71 9q60 0 112 -23t91 -62q40 -39 62 -91q23 -53 23 -112q0 -60 -23 -112q-22 -53 -61 -92q-40 -39 -92 -62q-52 -22 -112 -22t-112 22q-52 23 -91 62
q-40 39 -62 92q-23 52 -23 112q0 41 11 80q12 40 34 75q4 6 3 12q-2 7 -7 10q-6 4 -12 3q-7 -2 -10 -8q-25 -38 -38 -82t-13 -90q0 -67 25 -125t68 -101q44 -44 103 -69q58 -25 124 -25t124 25q59 25 102 68q44 44 69 102t25 125q0 66 -25 124t-68 101q-44 44 -103 69
q-58 26 -124 26v0zM450 409q-6 3 -12 1q-7 -2 -10 -7q-14 -24 -21 -50q-7 -27 -7 -54q0 -43 16 -81q17 -38 45 -66q28 -29 66 -45t81 -16t81 16t66 44q28 29 45 67q16 38 16 81t-16 81q-17 37 -45 65q-28 29 -66 45q-38 17 -81 17q-18 0 -35 -3q-18 -3 -34 -9q-7 -2 -9 -8
q-3 -6 -1 -13q2 -6 8 -9t12 0q14 5 29 7q15 3 30 3q73 0 124 -52q52 -52 52 -124q0 -73 -51 -124q-52 -52 -125 -52t-124 51q-52 52 -52 125q0 23 6 45q6 23 18 43q3 5 1 11q-2 7 -7 11v0z" />
    <glyph glyph-name="uniE933" unicode="&#xe933;" 
d="M913 177q-11 2 -22 3q-12 1 -24 1q-15 0 -30 -1l-32 -4q-36 17 -70 55t-63 85q8 28 13 57t5 57q0 80 -52 137q-53 57 -126 57t-125 -57q-53 -57 -53 -137q0 -24 5 -51q5 -28 14 -58q-30 -47 -63 -85q-34 -39 -70 -58q-15 3 -30 4q-15 2 -29 2q-15 0 -29 -2t-27 -5
q-42 -11 -67 -46t-25 -81q0 -47 25 -81q25 -35 67 -46q13 -3 27 -4t29 -1v0v0q38 0 80 10q43 9 88 24q45 16 92 36q47 19 94 40l92 -40q47 -20 91 -35q45 -16 88 -25q42 -10 81 -10v0v0q12 0 23 1q12 1 23 3q51 10 74 48q24 39 24 80q0 40 -23 78q-24 39 -75 49v0zM747 162
q-44 -12 -90 -30q-47 -18 -94 -38q20 29 45 74q26 45 47 97q21 -30 44 -56q23 -27 48 -47zM514 98q-38 52 -67 108q-30 57 -48 109q39 63 67 126q29 64 46 107q17 -44 46 -109t68 -129q-23 -68 -57 -125q-34 -58 -55 -87v0zM647 430q0 -15 -1 -30q-2 -16 -5 -32
q-33 60 -57 116q-24 57 -38 93q44 -13 72 -53q29 -41 29 -94v0zM377 430q0 53 28 93q29 41 73 54q-14 -37 -38 -92q-25 -55 -57 -113q-3 16 -4 30q-2 15 -2 28v0zM370 270q17 -43 41 -88q25 -45 54 -88q-48 21 -96 40t-93 31q26 20 49 47q24 27 45 58v0zM161 -40v0v0
q-12 0 -23 1q-12 1 -23 3q-33 9 -46 35q-14 27 -14 51q0 23 12 48t42 36q14 -6 28 -9q14 -4 29 -4q14 0 28 3q15 3 29 9h1q1 1 2 1q53 -11 113 -33q61 -23 123 -50q-41 -18 -81 -34q-41 -17 -79 -29q-39 -13 -74 -20q-36 -8 -67 -8v0zM905 -36q-9 -2 -18 -3q-10 -1 -20 -1v0
v0q-32 0 -67 8q-36 7 -74 19q-38 13 -78 29t-80 34q60 26 119 48q59 23 112 34q14 -6 27 -8q14 -3 27 -3q15 0 29 3q15 3 29 10q32 -9 45 -34q13 -26 13 -50q0 -26 -14 -53t-50 -33v0zM512 660q58 0 99 41q42 42 42 100t-41 99q-42 42 -100 42t-99 -41q-42 -42 -42 -100
t41 -99q42 -42 100 -42zM512 900q41 0 70 -29t29 -70t-29 -69q-29 -29 -70 -29t-70 28q-29 29 -29 70t29 70t70 29z" />
    </font>
</defs>
</svg>
