<?xml version="1.0" encoding="utf-8"?>
<!-- Generator: Adobe Illustrator 18.0.0, SVG Export Plug-In . SVG Version: 6.00 Build 0)  -->
<!DOCTYPE svg PUBLIC "-//W3C//DTD SVG 1.1//EN" "http://www.w3.org/Graphics/SVG/1.1/DTD/svg11.dtd">
<svg version="1.1" id="Layer_1" xmlns="http://www.w3.org/2000/svg" xmlns:xlink="http://www.w3.org/1999/xlink" x="0px" y="0px"
	 viewBox="0 0 70 70" enable-background="new 0 0 70 70" xml:space="preserve">
<g>
	<g>
		<path fill="#515171" d="M29.3,67.4H5.5c-2.8,0-5-2.2-5-5V5c0-2.8,2.2-5,5-5h56.4c2.8,0,5,2.2,5,5v25c0,1.4-1.1,2.5-2.5,2.5
			c-1.4,0-2.5-1.1-2.5-2.5V5H5.5v57.4h23.8c1.4,0,2.5,1.1,2.5,2.5C31.8,66.3,30.7,67.4,29.3,67.4z"/>
	</g>
	<g>
		<path fill="#515171" d="M50,70c-10.8,0-19.5-8.7-19.5-19.5S39.2,31.1,50,31.1s19.5,8.7,19.5,19.5S60.7,70,50,70z M50,36.1
			c-8,0-14.5,6.5-14.5,14.5S42,65,50,65s14.5-6.5,14.5-14.5S58,36.1,50,36.1z"/>
	</g>
</g>
<g>
	<g>
		<path fill="#515171" d="M42.8,53.1C42.8,53.1,42.8,53.1,42.8,53.1c-0.9,0-1.7-0.4-2.3-1c-0.6-0.6-0.9-1.4-0.9-2.3
			c0-1.7,1.5-3.1,3.2-3.1c0.9,0,1.7,0.4,2.3,1c0.6,0.6,0.9,1.4,0.9,2.3C46,51.7,44.6,53.1,42.8,53.1z"/>
	</g>
	<g>
		<path fill="#515171" d="M50.1,53.3C50.1,53.3,50.1,53.3,50.1,53.3c-1.8,0-3.2-1.5-3.2-3.2c0-1.7,1.5-3.1,3.2-3.1
			c1.8,0,3.2,1.5,3.2,3.2C53.3,51.9,51.9,53.3,50.1,53.3z M48.5,50l1.6,0l0.1,0.1c0,0,0.1,0,0.1-0.1L48.5,50z"/>
	</g>
	<g>
		<path fill="#515171" d="M57.5,53.4C57.4,53.4,57.4,53.4,57.5,53.4c-0.9,0-1.7-0.4-2.3-1c-0.6-0.6-0.9-1.4-0.9-2.3
			c0-1.7,1.5-3.1,3.2-3.1c0.9,0,1.7,0.4,2.3,1c0.6,0.6,0.9,1.4,0.9,2.3C60.6,52,59.2,53.4,57.5,53.4z"/>
	</g>
</g>
<g>
	<path fill="#515171" d="M65.6,16.2H4.2c-0.7,0-1.3-0.6-1.3-1.2c0-0.7,0.6-1.2,1.3-1.2h61.4c0.7,0,1.3,0.6,1.3,1.2
		C66.8,15.7,66.3,16.2,65.6,16.2z"/>
</g>
<g>
	<ellipse fill="#515171" cx="10.4" cy="8.7" rx="2.5" ry="2.5"/>
</g>
<g>
	<ellipse fill="#515171" cx="18" cy="8.7" rx="2.5" ry="2.5"/>
</g>
<g>
	<ellipse fill="#515171" cx="25.5" cy="8.7" rx="2.5" ry="2.5"/>
</g>
</svg>
