<?xml version="1.0" encoding="utf-8"?>
<!-- Generator: Adobe Illustrator 18.0.0, SVG Export Plug-In . SVG Version: 6.00 Build 0)  -->
<!DOCTYPE svg PUBLIC "-//W3C//DTD SVG 1.1//EN" "http://www.w3.org/Graphics/SVG/1.1/DTD/svg11.dtd">
<svg version="1.1" id="Layer_1" xmlns="http://www.w3.org/2000/svg" xmlns:xlink="http://www.w3.org/1999/xlink" x="0px" y="0px"
	 viewBox="0 0 32 32" enable-background="new 0 0 32 32" xml:space="preserve">
<g>
	<g>
		<g>
			<path fill="none" stroke="#515171" stroke-width="2" stroke-miterlimit="10" d="M28,5c0-0.6-0.4-1-1-1H13c-0.6,0-1,0.4-1,1v2
				c0,0.6,0.4,1,1,1h14c0.6,0,1-0.4,1-1V5z"/>
		</g>
		<g>
			<path fill="none" stroke="#515171" stroke-width="2" stroke-miterlimit="10" d="M28,15c0-0.6-0.4-1-1-1H13c-0.6,0-1,0.4-1,1v2
				c0,0.6,0.4,1,1,1h14c0.6,0,1-0.4,1-1V15z"/>
		</g>
		<g>
			<path fill="none" stroke="#515171" stroke-width="2" stroke-miterlimit="10" d="M28,25c0-0.6-0.4-1-1-1H13c-0.6,0-1,0.4-1,1v2
				c0,0.6,0.4,1,1,1h14c0.6,0,1-0.4,1-1V25z"/>
		</g>
		<g>
			<path fill="none" stroke="#515171" stroke-width="2" stroke-miterlimit="10" d="M8,5c0-0.6-0.4-1-1-1H5C4.4,4,4,4.4,4,5v2
				c0,0.6,0.4,1,1,1h2c0.6,0,1-0.4,1-1V5z"/>
		</g>
		<g>
			<path fill="none" stroke="#515171" stroke-width="2" stroke-miterlimit="10" d="M8,15c0-0.6-0.4-1-1-1H5c-0.6,0-1,0.4-1,1v2
				c0,0.6,0.4,1,1,1h2c0.6,0,1-0.4,1-1V15z"/>
		</g>
		<g>
			<path fill="none" stroke="#515171" stroke-width="2" stroke-miterlimit="10" d="M8,25c0-0.6-0.4-1-1-1H5c-0.6,0-1,0.4-1,1v2
				c0,0.6,0.4,1,1,1h2c0.6,0,1-0.4,1-1V25z"/>
		</g>
	</g>
</g>
</svg>
