<?xml version="1.0" encoding="utf-8"?>
<!-- Generator: Adobe Illustrator 18.0.0, SVG Export Plug-In . SVG Version: 6.00 Build 0)  -->
<!DOCTYPE svg PUBLIC "-//W3C//DTD SVG 1.1//EN" "http://www.w3.org/Graphics/SVG/1.1/DTD/svg11.dtd">
<svg version="1.1" id="Layer_1" xmlns="http://www.w3.org/2000/svg" xmlns:xlink="http://www.w3.org/1999/xlink" x="0px" y="0px"
	 viewBox="0 0 70 70" enable-background="new 0 0 70 70" xml:space="preserve">
<g>
	<g>
		<path fill="#515171" d="M31.2,66.5C17.9,66.5,6.1,59,1.7,47.7c-6-15.7,4.1-34.3,22.7-41.4c1.2-0.5,2.4-0.9,3.7-1.2
			c0.3-0.1,6.1-1.6,13.2-1.6c0,0,0.2,0,0.2,0c2.6,0.1,5.1,0.5,7.6,1.2c3.7,1,6.6,3.5,8,7c1.4,3.4,1.1,7.1-0.8,10.2
			c-0.4,0.7-1.7,2.6-1.7,2.6c-1.2,1.9-5.6,6.5-6,7l-0.6,0.6c-0.5,0.5-0.8,1.1-0.8,1.8c0,0.7,0.2,1.3,0.7,1.7c0.8,0.8,2.2,1,3.2,0.3
			c1.8-1.3,3.4-2.7,4.9-4.1c1.6-1.6,3.6-2.4,5.8-2.4c2.7,0,5.2,1.3,6.8,3.5c1.6,2.1,2,4.9,1.2,7.5c-2.9,9.2-10.7,16.8-23.1,22.7
			C41.6,65.3,36.5,66.5,31.2,66.5z M41.3,8.4c-6.6,0-11.9,1.4-11.9,1.4c-1,0.3-2.1,0.7-3.2,1.1c-16,6.2-25,22-19.9,35.1
			c3.6,9.4,13.6,15.7,25,15.7c4.5,0,9-1,13.2-3c11.1-5.2,18-11.9,20.5-19.7c0.5-1.4,0-2.5-0.4-3.1c-0.7-0.9-1.8-1.5-2.9-1.5
			c-0.9,0-1.7,0.3-2.4,1c-1.7,1.6-3.5,3.2-5.5,4.6c-1.2,0.9-2.7,1.4-4.3,1.4c-2,0-3.8-0.8-5.2-2.2c-1.4-1.4-2.1-3.3-2.1-5.2
			c0-2,0.8-3.8,2.2-5.2l0.6-0.6c1.7-1.8,4.7-5.1,5.4-6.2c0,0,1.2-1.9,1.6-2.5c1.1-1.8,1.3-4,0.5-5.9c-0.8-2.1-2.5-3.6-4.7-4.1
			C45.7,8.8,43.5,8.5,41.3,8.4z"/>
	</g>
</g>
<g>
	<path fill="#515171" d="M23.2,27.5c-2.8,0-5-2.3-5-5c0-2.8,2.3-5,5-5c2.8,0,5,2.3,5,5C28.2,25.2,26,27.5,23.2,27.5z M23.2,22.2
		c-0.1,0-0.2,0.1-0.2,0.2c0,0.1,0.1,0.2,0.2,0.2h0c0.1,0,0.2-0.1,0.2-0.2C23.3,22.3,23.3,22.2,23.2,22.2z"/>
</g>
<g>
	<path fill="#515171" d="M15.4,41.3C15.4,41.3,15.4,41.3,15.4,41.3c-2.8,0-5-2.3-5-5c0-2.8,2.3-5,5-5c2.8,0,5,2.3,5,5
		C20.4,39.1,18.1,41.3,15.4,41.3z M15.4,36.1c-0.1,0-0.2,0.1-0.2,0.2c0,0.1,0.1,0.2,0.2,0.2h0c0.1,0,0.2-0.1,0.2-0.2
		S15.5,36.1,15.4,36.1z"/>
</g>
<g>
	<path fill="#515171" d="M23.2,54c-2.8,0-5-2.3-5-5c0-2.8,2.3-5,5-5c2.8,0,5,2.3,5,5C28.2,51.8,26,54,23.2,54z M23.2,48.8
		c-0.1,0-0.2,0.1-0.2,0.2c0,0.1,0.1,0.2,0.2,0.2h0c0.1,0,0.2-0.1,0.2-0.2C23.3,48.9,23.3,48.8,23.2,48.8z"/>
</g>
</svg>
