<?xml version="1.0" encoding="utf-8"?>
<!-- Generator: Adobe Illustrator 18.0.0, SVG Export Plug-In . SVG Version: 6.00 Build 0)  -->
<!DOCTYPE svg PUBLIC "-//W3C//DTD SVG 1.1//EN" "http://www.w3.org/Graphics/SVG/1.1/DTD/svg11.dtd">
<svg version="1.1" id="Layer_1" xmlns="http://www.w3.org/2000/svg" xmlns:xlink="http://www.w3.org/1999/xlink" x="0px" y="0px"
	 viewBox="0 0 80 80" enable-background="new 0 0 80 80" xml:space="preserve">
<g>
	<path fill="#515171" d="M41.1,36.6l-4.7,11.7l-8.2-19.1L15.5,58.8H8.7v4.7h4.8h26.7h2.6h10.2h18.7v-4.7H51.1L41.1,36.6z M20.7,58.8
		L28.3,41l7.6,17.8H20.7z M40.8,58.8L39,54.3l2.3-5.9L46,58.8H40.8L40.8,58.8z"/>
	<path fill="#515171" d="M60.7,31c3.8,0,6.9-3.1,6.9-6.9s-3.1-6.9-6.9-6.9c-3.8,0-6.9,3.1-6.9,6.9C53.7,27.9,56.8,31,60.7,31z
		 M60.7,20.8c1.8,0,3.3,1.5,3.3,3.3s-1.5,3.3-3.3,3.3c-1.8,0-3.3-1.5-3.3-3.3S58.9,20.8,60.7,20.8z"/>
	<path fill="#515171" d="M74,4.5H6c-3.3,0-6,2.7-6,6v59.1c0,3.3,2.7,6,6,6H74c3.3,0,6-2.7,6-6V10.4C80,7.2,77.3,4.5,74,4.5z
		 M75.3,69.6c0,0.7-0.7,1.4-1.4,1.4H6c-0.7,0-1.4-0.7-1.4-1.4V10.4C4.7,9.7,5.3,9,6,9H74c0.7,0,1.4,0.7,1.4,1.4V69.6L75.3,69.6z"/>
</g>
</svg>
