<?xml version="1.0" encoding="utf-8"?>
<!-- Generator: Adobe Illustrator 18.0.0, SVG Export Plug-In . SVG Version: 6.00 Build 0)  -->
<!DOCTYPE svg PUBLIC "-//W3C//DTD SVG 1.1//EN" "http://www.w3.org/Graphics/SVG/1.1/DTD/svg11.dtd">
<svg version="1.1" id="Layer_1" xmlns="http://www.w3.org/2000/svg" xmlns:xlink="http://www.w3.org/1999/xlink" x="0px" y="0px"
	 viewBox="0 0 80 80" enable-background="new 0 0 80 80" xml:space="preserve">
<g>
	<g>
		<g>
			<path fill="#515171" stroke="#515171" stroke-miterlimit="10" d="M50.7,64.2c-1.1,0-1.9-0.9-1.9-1.9V8.9H29.4
				c-1.1,0-1.9-0.9-1.9-1.9c0-1.1,0.9-1.9,1.9-1.9h21.2c1.1,0,1.9,0.9,1.9,1.9v55.2C52.7,63.3,51.7,64.2,50.7,64.2z"/>
			<path fill="#515171" stroke="#515171" stroke-miterlimit="10" d="M50.7,65.2c-1.7,0-3-1.4-3-3V10H29.4c-1.7,0-3-1.4-3-3
				c0-1.7,1.4-3,3-3h21.2c1.7,0,3,1.4,3,3v55.2C53.7,63.8,52.3,65.2,50.7,65.2z M29.4,6c-0.5,0-0.9,0.5-0.9,0.9s0.5,0.9,0.9,0.9
				h20.2v54.3c0,0.5,0.5,0.9,0.9,0.9c0.5,0,0.9-0.5,0.9-0.9V6.9c0-0.5-0.5-0.9-0.9-0.9C50.6,6,29.4,6,29.4,6z"/>
		</g>
	</g>
	<g>
		<g>
			<path fill="#515171" stroke="#515171" stroke-miterlimit="10" d="M40,74.9c-1.1,0-2.2-0.1-3.3-0.5c-3.3-0.9-6.1-3-7.7-5.9
				L1.3,20.7c-0.2-0.5-0.3-1-0.2-1.5c0.1-0.5,0.5-0.9,0.9-1.1L20.5,7.2c0.9-0.6,2.2-0.2,2.7,0.7l27.7,47.9
				c3.5,6.1,1.4,13.8-4.7,17.3C44.3,74.4,42.1,74.9,40,74.9z M5.6,20.4l26.8,46.2c1.1,2.1,3.1,3.4,5.3,4.1c2.3,0.6,4.6,0.3,6.6-0.9
				c2.1-1.1,3.4-3.1,4.1-5.3c0.6-2.3,0.3-4.6-0.9-6.6L20.9,11.7L5.6,20.4z"/>
			<path fill="#515171" stroke="#515171" stroke-miterlimit="10" d="M40,76c-1.3,0-2.4-0.1-3.5-0.5c-3.5-0.9-6.5-3.2-8.4-6.4
				L0.4,21.2C0,20.5-0.1,19.7,0,18.9c0.2-0.8,0.7-1.5,1.4-1.8L19.9,6.3c1.4-0.8,3.3-0.2,4.1,1.1l27.7,47.9c1.8,3.2,2.3,6.9,1.4,10.4
				c-0.9,3.5-3.2,6.5-6.4,8.4C44.8,75.3,42.4,76,40,76z M21.5,8c-0.1,0-0.3,0-0.5,0.1L2.4,18.9C2.2,19,2.1,19.2,2,19.5
				c-0.1,0.2,0,0.5,0.1,0.7l27.7,47.9c1.6,2.7,4.1,4.6,7.1,5.4s6.2,0.3,8.8-1.1c2.7-1.6,4.6-4,5.4-7.1c0.8-3,0.3-6.2-1.1-8.8
				L22.3,8.5C22.2,8.3,21.9,8,21.5,8z M40,72.1L40,72.1c-0.9,0-1.7-0.1-2.5-0.3c-2.5-0.7-4.7-2.3-5.9-4.6L4.2,20l17-9.8l27.2,47.1
				c1.3,2.3,1.6,4.9,1,7.4c-0.7,2.5-2.3,4.7-4.6,5.9C43.4,71.6,41.7,72.1,40,72.1z M7.1,20.8l26.2,45.3c1,1.8,2.7,3.1,4.7,3.5
				c1.9,0.6,4.1,0.2,5.8-0.8c1.8-1,3.1-2.6,3.5-4.7c0.6-1.9,0.2-4-0.8-5.8L20.4,13.2L7.1,20.8z"/>
		</g>
	</g>
	<g>
		<g>
			<path fill="#515171" stroke="#515171" stroke-miterlimit="10" d="M21.4,53.6c-0.7,0-1.4-0.3-1.7-1c-0.6-0.9-0.2-2.2,0.7-2.7
				L38.9,39c0.9-0.6,2.2-0.2,2.7,0.7c0.6,0.9,0.2,2.2-0.7,2.7L22.5,53.2C22.1,53.6,21.8,53.6,21.4,53.6z"/>
		</g>
	</g>
	<g>
		<g>
			<path fill="#515171" stroke="#515171" stroke-miterlimit="10" d="M12.2,37.7c-0.7,0-1.4-0.3-1.7-1c-0.6-0.9-0.2-2.2,0.7-2.7
				l18.5-10.8c0.9-0.6,2.2-0.2,2.7,0.7c0.6,0.9,0.2,2.2-0.7,2.7L13.2,37.3C12.9,37.5,12.5,37.7,12.2,37.7z"/>
		</g>
	</g>
	<g>
		<g>
			<path fill="#515171" stroke="#515171" stroke-miterlimit="10" d="M67.8,37.7c-0.3,0-0.7-0.1-1-0.2l-9.2-5.3
				c-0.9-0.6-1.3-1.7-0.7-2.7c0.6-0.9,1.7-1.3,2.7-0.7l9.2,5.3c0.9,0.6,1.3,1.7,0.7,2.7C69.1,37.3,68.4,37.7,67.8,37.7z"/>
		</g>
	</g>
	<g>
		<g>
			<path fill="#515171" stroke="#515171" stroke-miterlimit="10" d="M50.7,27.4H40.2c-1.1,0-1.9-0.9-1.9-1.9c0-1.1,0.9-1.9,1.9-1.9
				h10.5c1.1,0,1.9,0.9,1.9,1.9C52.7,26.4,51.7,27.4,50.7,27.4z"/>
		</g>
	</g>
	<g>
		<g>
			<path fill="#515171" stroke="#515171" stroke-miterlimit="10" d="M49.2,69.6c-0.3,0-0.7-0.1-1-0.2c-0.9-0.6-1.3-1.7-0.7-2.7
				l26.8-46.2l-16.7-9.6c-0.9-0.6-1.3-1.7-0.7-2.7c0.6-0.9,1.7-1.3,2.7-0.7l18.4,10.5c0.5,0.2,0.8,0.7,0.9,1.1
				c0.1,0.5,0.1,1-0.2,1.5l-27.8,48C50.6,69.2,49.9,69.6,49.2,69.6z"/>
			<path fill="#515171" stroke="#515171" stroke-miterlimit="10" d="M49.2,70.6c-0.6,0-1-0.1-1.5-0.5c-0.7-0.5-1.3-1-1.4-1.8
				c-0.2-0.8-0.1-1.6,0.3-2.3l26.2-45.3l-15.8-9c-0.7-0.5-1.3-1-1.4-1.8c-0.2-0.8-0.1-1.6,0.3-2.3c0.8-1.4,2.7-1.9,4.1-1.1
				l18.3,10.6c0.7,0.3,1.3,1,1.4,1.8c0.2,0.8,0.1,1.6-0.3,2.3L51.9,69.1C51.3,70,50.4,70.6,49.2,70.6z M58.6,8.1
				c-0.3,0-0.7,0.2-0.8,0.5c-0.1,0.2-0.1,0.5-0.1,0.7c0.1,0.2,0.2,0.5,0.5,0.6l17.6,10.1L48.4,67.2c-0.1,0.2-0.1,0.5-0.1,0.7
				c0.1,0.2,0.2,0.5,0.5,0.6c0.5,0.2,1,0.1,1.3-0.3l27.7-47.9c0.1-0.2,0.1-0.5,0.1-0.7c-0.1-0.2-0.2-0.5-0.5-0.6L59.1,8.4
				C59,8.3,58.7,8.1,58.6,8.1z"/>
		</g>
	</g>
	<g>
		<g>
			<path fill="#515171" stroke="#515171" stroke-miterlimit="10" d="M40,64.2c-0.1,0-0.1,0-0.2,0s-0.1,0-0.2,0s-0.1,0-0.2,0
				c-0.1,0-0.1,0-0.2-0.1c-0.1,0-0.1,0-0.2-0.1l-0.1-0.1l-0.1-0.1l-0.1-0.1l-0.1-0.1l-0.1-0.1l-0.1-0.1c0,0-0.1-0.1-0.1-0.2
				c0-0.1,0-0.1-0.1-0.2c0-0.1,0-0.1,0-0.2c0-0.1,0-0.1,0-0.2s0-0.1,0-0.2c0-0.1,0-0.1,0-0.2c0-0.1,0-0.1,0-0.2c0-0.1,0-0.1,0-0.2
				c0-0.1,0-0.1,0.1-0.2c0-0.1,0-0.1,0.1-0.2l0.1-0.1l0.1-0.1l0.1-0.1l0.1-0.1l0.1-0.1l0.1-0.1c0,0,0.1-0.1,0.2-0.1
				c0.1,0,0.1,0,0.2-0.1c0.1,0,0.1,0,0.2,0c0.1,0,0.1,0,0.2,0c0.1,0,0.2,0,0.3,0c0.1,0,0.1,0,0.2,0c0.1,0,0.1,0,0.2,0
				c0.1,0,0.1,0,0.2,0.1c0.1,0,0.1,0,0.2,0.1l0.1,0.1l0.1,0.1l0.1,0.1l0.1,0.1l0.1,0.1l0.1,0.1c0,0,0.1,0.1,0.1,0.2
				c0,0.1,0,0.1,0.1,0.2c0,0.1,0,0.1,0,0.2s0,0.1,0,0.2c0,0.1,0,0.1,0,0.2c0,0.1,0,0.1,0,0.2c0,0.1,0,0.1,0,0.2c0,0.1,0,0.1,0,0.2
				c0,0.1,0,0.1-0.1,0.2c0,0.1,0,0.1-0.1,0.2l-0.1,0.1l-0.1,0.1l-0.1,0.1l-0.1,0.1l-0.1,0.1L41,64c0,0-0.1,0.1-0.2,0.1
				c-0.1,0-0.1,0-0.2,0.1c-0.1,0-0.1,0-0.2,0s-0.1,0-0.2,0C40.1,64.2,40.1,64.2,40,64.2z"/>
		</g>
	</g>
</g>
</svg>
