<?xml version="1.0" encoding="utf-8"?>
<!-- Generator: Adobe Illustrator 18.0.0, SVG Export Plug-In . SVG Version: 6.00 Build 0)  -->
<!DOCTYPE svg PUBLIC "-//W3C//DTD SVG 1.1//EN" "http://www.w3.org/Graphics/SVG/1.1/DTD/svg11.dtd">
<svg version="1.1" id="Layer_1" xmlns="http://www.w3.org/2000/svg" xmlns:xlink="http://www.w3.org/1999/xlink" x="0px" y="0px"
	 viewBox="0 0 512 512" enable-background="new 0 0 512 512" xml:space="preserve">
<path fill="#515171" d="M66.8,60c0-11,9-20,20-20h174.9v71.1c0,33.1,26.9,60,60,60h71V290h40V142.9L290.6,0H86.8
	c-33.1,0-60,26.9-60,60v230h40V60z M301.7,111.1V67.9l62.9,63.2h-42.9C310.7,131.1,301.7,122.1,301.7,111.1z M461.8,456.5
	c0,30.6-24.9,55.5-55.5,55.5h-89.5v-40h89.5c8.5,0,15.5-7,15.5-15.5s-7-15.5-15.5-15.5h-34c-30.6,0-55.5-24.9-55.5-55.5
	s24.9-55.5,55.5-55.5h68.5v40h-68.5c-8.5,0-15.5,7-15.5,15.5s7,15.5,15.5,15.5h34C436.9,401,461.8,425.9,461.8,456.5z M301.8,456.5
	c0,30.6-24.9,55.5-55.5,55.5h-89.5v-40h89.5c8.5,0,15.5-7,15.5-15.5s-7-15.5-15.5-15.5h-34c-30.6,0-55.5-24.9-55.5-55.5
	s24.9-55.5,55.5-55.5h68.5v40h-68.5c-8.5,0-15.5,7-15.5,15.5s7,15.5,15.5,15.5h34C276.9,401,301.8,425.9,301.8,456.5z M40,421
	c0,28.1,22.9,51,50.9,51c7.2,0,14.2-1.5,20.7-4.4l16.3,36.5c-11.7,5.2-24.1,7.9-37,7.9C40.8,512,0,471.2,0,421
	c0-50.2,40.8-91,90.9-91c12.9,0,25.3,2.6,37,7.9l-16.3,36.5c-6.5-2.9-13.5-4.4-20.7-4.4C62.9,370,40,392.9,40,421z"/>
</svg>
