<?xml version="1.0" encoding="utf-8"?>
<!-- Generator: Adobe Illustrator 18.0.0, SVG Export Plug-In . SVG Version: 6.00 Build 0)  -->
<!DOCTYPE svg PUBLIC "-//W3C//DTD SVG 1.1//EN" "http://www.w3.org/Graphics/SVG/1.1/DTD/svg11.dtd">
<svg version="1.1" id="Layer_1" xmlns="http://www.w3.org/2000/svg" xmlns:xlink="http://www.w3.org/1999/xlink" x="0px" y="0px"
	 viewBox="0 0 70 70" enable-background="new 0 0 70 70" xml:space="preserve">
<g>
	<g>
		<path fill="#515171" d="M12.8,65.2h-6C4.2,65.2,2,63,2,60.3V4.8C2,2.2,4.2,0,6.8,0h54c2.6,0,4.8,2.2,4.8,4.8V35
			c0,1.3-1.1,2.4-2.4,2.4s-2.4-1.1-2.4-2.4V4.8h-54v55.5h6c1.3,0,2.4,1.1,2.4,2.4S14.1,65.2,12.8,65.2z"/>
	</g>
	<g>
		<path fill="#515171" d="M63.2,15.7H4.4c-0.7,0-1.2-0.5-1.2-1.2s0.5-1.2,1.2-1.2h58.8c0.7,0,1.2,0.5,1.2,1.2S63.9,15.7,63.2,15.7z"
			/>
	</g>
	<g>
		<ellipse fill="#515171" cx="10.4" cy="8.4" rx="2.4" ry="2.4"/>
	</g>
	<g>
		<ellipse fill="#515171" cx="17.6" cy="8.4" rx="2.4" ry="2.4"/>
	</g>
	<g>
		<ellipse fill="#515171" cx="24.8" cy="8.4" rx="2.4" ry="2.4"/>
	</g>
	<g>
		<path fill="#515171" d="M65.6,59.9c-1.3,0-2.4-1.1-2.4-2.4c0-4.2-3.2-7.7-7-7.7c-1.3,0-2.4-1.1-2.4-2.4s1.1-2.4,2.4-2.4
			C62.7,45,68,50.6,68,57.5C68,58.8,66.9,59.9,65.6,59.9z"/>
	</g>
	<g>
		<path fill="#515171" d="M20,59.9c-1.3,0-2.4-1.1-2.4-2.4c0-6.9,5.3-12.5,11.8-12.5c1.3,0,2.4,1.1,2.4,2.4s-1.1,2.4-2.4,2.4
			c-3.9,0-7,3.4-7,7.7C22.4,58.8,21.4,59.9,20,59.9z"/>
	</g>
	<g>
		<path fill="#515171" d="M38.2,46.7c-0.9,0-1.7-0.5-2.2-1.3c-0.7-1.4-2-2.3-3.4-2.3c-1.3,0-2.4-1.1-2.4-2.4s1.1-2.4,2.4-2.4
			c3.3,0,6.2,1.9,7.7,5c0.6,1.2,0.1,2.6-1.1,3.2C38.9,46.6,38.5,46.7,38.2,46.7z"/>
	</g>
	<g>
		<path fill="#515171" d="M56.2,70H29.5c-6.5,0-11.8-5.6-11.8-12.5c0-4.7,2.5-8.9,6.3-11.1c0.5-4.6,4.2-8.2,8.6-8.2
			c1,0,1.9,0.2,2.8,0.5c2.5-4.4,7.1-7.2,12.1-7.2c7.8,0,14.1,6.7,14.2,14.9c3.8,2.1,6.3,6.4,6.3,11C68,64.4,62.7,70,56.2,70z
			 M32.6,43.1c-2.1,0-3.9,1.9-3.9,4.3c0,0.1,0,0.2,0,0.4c0.1,1.1-0.5,2.1-1.6,2.5c-2.8,1.1-4.7,4-4.7,7.2c0,4.2,3.2,7.7,7,7.7h26.7
			c3.9,0,7-3.4,7-7.7c0-3.3-1.9-6.2-4.8-7.3c-1-0.4-1.7-1.4-1.6-2.5c0-0.4,0.1-0.8,0.1-1.2c0-5.6-4.2-10.2-9.4-10.2
			c-3.9,0-7.4,2.6-8.8,6.6c-0.3,0.7-0.9,1.3-1.6,1.5c-0.8,0.2-1.6,0-2.2-0.5C34.5,43.6,33.7,43.1,32.6,43.1z"/>
	</g>
</g>
</svg>
