<?xml version="1.0" encoding="utf-8"?>
<!-- Generator: Adobe Illustrator 18.0.0, SVG Export Plug-In . SVG Version: 6.00 Build 0)  -->
<!DOCTYPE svg PUBLIC "-//W3C//DTD SVG 1.1//EN" "http://www.w3.org/Graphics/SVG/1.1/DTD/svg11.dtd">
<svg version="1.1" id="Layer_1" xmlns="http://www.w3.org/2000/svg" xmlns:xlink="http://www.w3.org/1999/xlink" x="0px" y="0px"
	 viewBox="0 0 512 512" enable-background="new 0 0 512 512" xml:space="preserve">
<path fill="#515171" d="M197.3,192h-96C80.7,192,64,175.3,64,154.7v-53.3C64,80.7,80.7,64,101.3,64h96c20.6,0,37.3,16.7,37.3,37.3
	v53.3C234.7,175.3,217.9,192,197.3,192z M101.3,96c-2.9,0-5.3,2.4-5.3,5.3v53.3c0,2.9,2.4,5.3,5.3,5.3h96c2.9,0,5.3-2.4,5.3-5.3
	v-53.3c0-2.9-2.4-5.3-5.3-5.3H101.3z"/>
<path fill="#515171" d="M410.7,448h-96c-20.6,0-37.3-16.7-37.3-37.3v-53.3c0-20.6,16.7-37.3,37.3-37.3h96
	c20.6,0,37.3,16.7,37.3,37.3v53.3C448,431.3,431.3,448,410.7,448z M314.7,352c-2.9,0-5.3,2.4-5.3,5.3v53.3c0,2.9,2.4,5.3,5.3,5.3h96
	c2.9,0,5.3-2.4,5.3-5.3v-53.3c0-2.9-2.4-5.3-5.3-5.3H314.7z"/>
<path fill="#515171" d="M410.7,277.3h-96c-20.6,0-37.3-16.7-37.3-37.3V101.3c0-20.6,16.7-37.3,37.3-37.3h96
	c20.6,0,37.3,16.7,37.3,37.3V240C448,260.6,431.3,277.3,410.7,277.3z M314.7,96c-2.9,0-5.3,2.4-5.3,5.3V240c0,2.9,2.4,5.3,5.3,5.3
	h96c2.9,0,5.3-2.4,5.3-5.3V101.3c0-2.9-2.4-5.3-5.3-5.3H314.7z"/>
<path fill="#515171" d="M197.3,448h-96C80.7,448,64,431.3,64,410.7V272c0-20.6,16.7-37.3,37.3-37.3h96c20.6,0,37.3,16.7,37.3,37.3
	v138.7C234.7,431.3,217.9,448,197.3,448z M101.3,266.7c-2.9,0-5.3,2.4-5.3,5.3v138.7c0,2.9,2.4,5.3,5.3,5.3h96
	c2.9,0,5.3-2.4,5.3-5.3V272c0-2.9-2.4-5.3-5.3-5.3H101.3z"/>
<path fill="#515171" d="M453.3,512H58.7C26.3,512,0,485.7,0,453.3V58.7C0,26.3,26.3,0,58.7,0h394.7C485.7,0,512,26.3,512,58.7v394.7
	C512,485.7,485.7,512,453.3,512z M58.7,32C44,32,32,44,32,58.7v394.7C32,468,44,480,58.7,480h394.7c14.7,0,26.7-12,26.7-26.7V58.7
	C480,44,468,32,453.3,32H58.7z"/>
</svg>
