<?xml version="1.0" encoding="utf-8"?>
<!-- Generator: Adobe Illustrator 18.0.0, SVG Export Plug-In . SVG Version: 6.00 Build 0)  -->
<!DOCTYPE svg PUBLIC "-//W3C//DTD SVG 1.1//EN" "http://www.w3.org/Graphics/SVG/1.1/DTD/svg11.dtd">
<svg version="1.1" id="Layer_1" xmlns="http://www.w3.org/2000/svg" xmlns:xlink="http://www.w3.org/1999/xlink" x="0px" y="0px"
	 viewBox="0 0 70 70" enable-background="new 0 0 70 70" xml:space="preserve">
<g>
	<path fill="#515171" d="M62.3,45c-0.6,0-1.2-0.2-1.6-0.7l-8.8-8.9c-0.4-0.4-0.7-1-0.7-1.7c0-0.6,0.2-1.2,0.7-1.7l4.4-4.4
		c1-1,2.4-1.6,3.9-1.6c1.5,0,2.8,0.6,3.9,1.6l4.4,4.4c1,1,1.6,2.4,1.6,3.9c0,1.5-0.6,2.8-1.6,3.9L64,44.3C63.6,44.7,63,45,62.3,45z
		 M56.8,33.7l5.5,5.6l2.8-2.8c0.2-0.2,0.2-0.4,0.2-0.6c0-0.1,0-0.4-0.2-0.6L60.7,31c-0.2-0.2-0.4-0.2-0.6-0.2c-0.1,0-0.4,0-0.6,0.2
		L56.8,33.7z"/>
</g>
<g>
	<path fill="#515171" d="M43.4,62.9c-0.5,0-0.9-0.3-1.1-0.8l-2-6.1l-6.1-2c-0.6-0.2-0.9-0.9-0.7-1.5c0.2-0.6,0.9-0.9,1.5-0.7
		l6.6,2.2c0.3,0.1,0.6,0.4,0.7,0.7l2.2,6.7c0.2,0.6-0.1,1.3-0.7,1.5C43.6,62.9,43.5,62.9,43.4,62.9z"/>
</g>
<g>
	<path fill="#515171" d="M30.1,68.5c-0.6,0-1.2-0.2-1.6-0.7c-0.6-0.6-0.8-1.6-0.6-2.4l4.4-13.3c0.1-0.3,0.3-0.7,0.6-0.9l19-19.1
		c0.9-0.9,2.4-0.9,3.3,0L64,41c0.4,0.4,0.7,1,0.7,1.7c0,0.6-0.2,1.2-0.7,1.7L45,63.4c-0.3,0.3-0.6,0.5-0.9,0.6l-13.2,4.4
		C30.6,68.5,30.4,68.5,30.1,68.5z M36.6,54.1l-2.8,8.4l8.3-2.8l16.9-17l-5.5-5.6L36.6,54.1z"/>
</g>
<g>
	<g>
		<path fill="#474747" d="M42.9,24.5H13.5c-1,0-1.7-0.8-1.7-1.8c0-1,0.8-1.8,1.7-1.8h29.4c1,0,1.7,0.8,1.7,1.8
			C44.7,23.7,43.9,24.5,42.9,24.5z"/>
	</g>
	<g>
		<path fill="#474747" d="M42.9,33.2H13.5c-1,0-1.7-0.8-1.7-1.8c0-1,0.8-1.8,1.7-1.8h29.4c1,0,1.7,0.8,1.7,1.8
			C44.7,32.4,43.9,33.2,42.9,33.2z"/>
	</g>
	<g>
		<path fill="#474747" d="M34.8,41.9H13.5c-1,0-1.7-0.8-1.7-1.8c0-1,0.8-1.8,1.7-1.8h21.3c1,0,1.7,0.8,1.7,1.8
			C36.6,41.1,35.8,41.9,34.8,41.9z"/>
	</g>
</g>
<g>
	<g>
		<path fill="#515171" d="M22.3,64.7H4.7C2.1,64.7,0,62.6,0,60V6.2c0-2.6,2.1-4.7,4.7-4.7h48.9c2.6,0,4.7,2.1,4.7,4.7v16.6
			c0,1.3-1,2.3-2.3,2.3c-1.3,0-2.3-1-2.3-2.3V6.2H4.7V60h17.6c1.3,0,2.3,1,2.3,2.3C24.6,63.7,23.6,64.7,22.3,64.7z"/>
	</g>
</g>
</svg>
