<?xml version="1.0" encoding="utf-8"?>
<!-- Generator: Adobe Illustrator 16.0.0, SVG Export Plug-In . SVG Version: 6.00 Build 0)  -->
<!DOCTYPE svg PUBLIC "-//W3C//DTD SVG 1.1//EN" "http://www.w3.org/Graphics/SVG/1.1/DTD/svg11.dtd">
<svg version="1.1" id="Layer_1" xmlns="http://www.w3.org/2000/svg" xmlns:xlink="http://www.w3.org/1999/xlink" x="0px" y="0px"
	 width="80px" height="80px" viewBox="0 0 80 80" enable-background="new 0 0 80 80" xml:space="preserve">
<g>
	<rect x="22.276" y="9.778" fill="#424143" width="35.446" height="4.521"/>
	<path fill="#424143" d="M74.045,9.778H63.851v-3.3h-4.521v11.48h4.521V14.3h10.194c0.79,0,1.434,0.644,1.434,1.435v10.488v0.001
		H4.523v-0.001H4.521V15.735c0-0.791,0.644-1.435,1.435-1.435H16.15v3.659h4.521V6.479H16.15v3.3H5.957
		C2.672,9.778,0,12.45,0,15.735v12.75c0,0.005,0.001,0.009,0.001,0.015v39.066c0,3.283,2.672,5.955,5.957,5.955h68.087
		c3.284,0,5.955-2.672,5.955-5.955V28.485v-2.262V15.735C80,12.45,77.329,9.778,74.045,9.778z M74.045,69H5.958
		c-0.791,0-1.435-0.644-1.435-1.434v-36.82h70.956v36.82C75.479,68.356,74.835,69,74.045,69z"/>
	<rect x="21.387" y="38.092" fill="#424143" width="4.521" height="7.67"/>
	<rect x="32.289" y="38.092" fill="#424143" width="4.521" height="7.67"/>
	<rect x="43.191" y="38.092" fill="#424143" width="4.521" height="7.67"/>
	<rect x="54.093" y="38.092" fill="#424143" width="4.521" height="7.67"/>
	<rect x="21.387" y="53.854" fill="#424143" width="4.521" height="7.671"/>
	<rect x="32.289" y="53.854" fill="#424143" width="4.521" height="7.671"/>
	<rect x="43.191" y="53.854" fill="#424143" width="4.521" height="7.671"/>
	<rect x="54.093" y="53.854" fill="#424143" width="4.521" height="7.671"/>
</g>
</svg>
