<?xml version="1.0" encoding="utf-8"?>
<!-- Generator: Adobe Illustrator 18.0.0, SVG Export Plug-In . SVG Version: 6.00 Build 0)  -->
<!DOCTYPE svg PUBLIC "-//W3C//DTD SVG 1.1//EN" "http://www.w3.org/Graphics/SVG/1.1/DTD/svg11.dtd">
<svg version="1.1" id="Layer_1" xmlns="http://www.w3.org/2000/svg" xmlns:xlink="http://www.w3.org/1999/xlink" x="0px" y="0px"
	 viewBox="0 0 70 70" enable-background="new 0 0 70 70" xml:space="preserve">
<g>
	<g>
		<path fill="#515171" d="M64.3,70H5.7c-2.9,0-5.2-2.3-5.2-5.2V5.2C0.5,2.3,2.8,0,5.7,0h58.6c2.9,0,5.2,2.3,5.2,5.2v59.6
			C69.5,67.7,67.2,70,64.3,70z M5.7,5.2v59.6h58.6l0-59.6H5.7z"/>
	</g>
</g>
<g>
	<path fill="#515171" d="M53.2,20.7H16.8c-1.4,0-2.6-1.2-2.6-2.6s1.2-2.6,2.6-2.6h36.5c1.4,0,2.6,1.2,2.6,2.6S54.7,20.7,53.2,20.7z"
		/>
</g>
<g>
	<path fill="#515171" d="M45.4,30.7H24.6c-1.4,0-2.6-1.2-2.6-2.6s1.2-2.6,2.6-2.6h20.8c1.4,0,2.6,1.2,2.6,2.6S46.9,30.7,45.4,30.7z"
		/>
</g>
</svg>
