<?xml version="1.0" encoding="utf-8"?>
<!-- Generator: Adobe Illustrator 18.0.0, SVG Export Plug-In . SVG Version: 6.00 Build 0)  -->
<!DOCTYPE svg PUBLIC "-//W3C//DTD SVG 1.1//EN" "http://www.w3.org/Graphics/SVG/1.1/DTD/svg11.dtd">
<svg version="1.1" id="Layer_1" xmlns="http://www.w3.org/2000/svg" xmlns:xlink="http://www.w3.org/1999/xlink" x="0px" y="0px"
	 viewBox="0 0 70 70" enable-background="new 0 0 70 70" xml:space="preserve">
<g>
	<path fill="#515171" d="M41.8,70H28.3c-0.9,0-1.7-0.7-1.9-1.6L24.9,59l-6.4-3.6l-9.2,3.5c-0.9,0.3-1.9,0-2.3-0.8L0.3,46.9
		c-0.5-0.8-0.3-1.8,0.5-2.3l7.8-6v-7.1l-7.8-6c-0.7-0.6-0.9-1.6-0.5-2.3L7,11.9c0.5-0.8,1.5-1.1,2.3-0.8l9.2,3.5l6.4-3.6l1.5-9.5
		C26.5,0.7,27.3,0,28.3,0h13.5c0.9,0,1.7,0.7,1.9,1.6l1.5,9.5l6.4,3.6l9.2-3.5c0.9-0.3,1.9,0,2.3,0.8l6.7,11.3
		c0.5,0.8,0.3,1.8-0.5,2.3l-7.8,6l0,3.6l0,3.6l7.8,6c0.7,0.6,0.9,1.6,0.5,2.3L63,58.1c-0.5,0.8-1.5,1.1-2.3,0.8l-9.2-3.5L45.1,59
		l-1.5,9.5C43.5,69.3,42.7,70,41.8,70z M29.9,66.3h10.2l1.4-8.8c0.1-0.6,0.4-1,0.9-1.3l8-4.4c0.5-0.3,1.1-0.3,1.6-0.1l8.5,3.2
		l5.1-8.6l-7.2-5.5c-0.5-0.3-0.7-0.9-0.7-1.4l0-4.4l0-4.4c0-0.6,0.3-1.1,0.7-1.4l7.2-5.5L60.5,15L52,18.3c-0.5,0.2-1.1,0.2-1.6-0.1
		l-7.9-4.4c-0.5-0.3-0.8-0.8-0.9-1.3l-1.4-8.8H29.9l-1.4,8.8c-0.1,0.6-0.4,1-0.9,1.3l-8,4.4c-0.5,0.3-1.1,0.3-1.6,0.1L9.5,15
		l-5.1,8.6l7.2,5.5c0.5,0.3,0.7,0.9,0.7,1.4v8.9c0,0.6-0.3,1.1-0.7,1.4l-7.2,5.5l5.1,8.6l8.6-3.3c0.5-0.2,1.1-0.2,1.6,0.1l8,4.4
		c0.5,0.3,0.8,0.8,0.9,1.3L29.9,66.3z"/>
</g>
<g>
	<path fill="#515171" d="M35,47.1c-6.9,0-12.5-5.4-12.5-12.1c0-6.7,5.6-12.1,12.5-12.1S47.5,28.3,47.5,35
		C47.5,41.7,41.9,47.1,35,47.1z M35,25.6c-5.3,0-9.7,4.2-9.7,9.4c0,5.2,4.3,9.4,9.7,9.4c5.3,0,9.7-4.2,9.7-9.4
		C44.7,29.8,40.3,25.6,35,25.6z"/>
</g>
</svg>
