<?xml version="1.0" encoding="utf-8"?>
<!-- Generator: Adobe Illustrator 18.0.0, SVG Export Plug-In . SVG Version: 6.00 Build 0)  -->
<!DOCTYPE svg PUBLIC "-//W3C//DTD SVG 1.1//EN" "http://www.w3.org/Graphics/SVG/1.1/DTD/svg11.dtd">
<svg version="1.1" id="Layer_1" xmlns="http://www.w3.org/2000/svg" xmlns:xlink="http://www.w3.org/1999/xlink" x="0px" y="0px"
	 viewBox="0 0 512 512" enable-background="new 0 0 512 512" xml:space="preserve">
<g>
	<path fill="#515171" d="M453.3,490.7H58.7C26.3,490.7,0,464.4,0,432V80c0-32.4,26.3-58.7,58.7-58.7h394.7
		c32.4,0,58.7,26.3,58.7,58.7v352C512,464.4,485.7,490.7,453.3,490.7z M58.7,53.3C44,53.3,32,65.3,32,80v352
		c0,14.7,12,26.7,26.7,26.7h394.7c14.7,0,26.7-12,26.7-26.7V80c0-14.7-12-26.7-26.7-26.7H58.7z"/>
</g>
<g>
	<path fill="#515171" d="M496,128H16c-8.8,0-16-7.2-16-16s7.2-16,16-16h480c8.8,0,16,7.2,16,16S504.8,128,496,128z"/>
</g>
<g>
	<path fill="#515171" d="M331.3,426.7H180.7c-17.3,0-31.3-14-31.3-31.3V320h-26.7c-6.7,0-12.6-4.1-15-10.3
		c-2.3-6.2-0.6-13.3,4.4-17.7l133.3-117.3c6-5.3,15.1-5.3,21.1,0L400.1,292c5,4.4,6.7,11.4,4.4,17.7c-2.3,6.2-8.3,10.3-15,10.3
		h-26.9v75.4C362.7,412.6,348.6,426.7,331.3,426.7z M165.1,288h0.3c8.8,0,16,7.2,16,16v91.4l150-0.7l-0.7-90.7c0-8.8,7.2-16,16-16
		h0.4L256,208L165.1,288z"/>
</g>
<g>
	<path fill="#515171" d="M336,269.8c-8.8,0-16-7.2-16-16v-67.1c0-8.8,7.2-16,16-16c8.8,0,16,7.2,16,16v67.1
		C352,262.6,344.8,269.8,336,269.8z"/>
</g>
</svg>
