<?xml version="1.0" encoding="utf-8"?>
<!-- Generator: Adobe Illustrator 18.0.0, SVG Export Plug-In . SVG Version: 6.00 Build 0)  -->
<!DOCTYPE svg PUBLIC "-//W3C//DTD SVG 1.1//EN" "http://www.w3.org/Graphics/SVG/1.1/DTD/svg11.dtd">
<svg version="1.1" id="Layer_1" xmlns="http://www.w3.org/2000/svg" xmlns:xlink="http://www.w3.org/1999/xlink" x="0px" y="0px"
	 viewBox="0 0 70 70" enable-background="new 0 0 70 70" xml:space="preserve">
<g>
	<g>
		<path fill="#515171" d="M64.7,56.2H18.5c-2.9,0-5.3-2.4-5.3-5.3V5.8c0-2.9,2.4-5.3,5.3-5.3h46.2c2.9,0,5.3,2.4,5.3,5.3v45.1
			C70,53.9,67.6,56.2,64.7,56.2z M18.5,5.8v45.1h46.2l0-45.1H18.5z"/>
	</g>
	<g>
		<path fill="#515171" d="M67.4,15.1H15.8c-0.7,0-1.3-0.6-1.3-1.3s0.6-1.3,1.3-1.3h51.5c0.7,0,1.3,0.6,1.3,1.3S68.1,15.1,67.4,15.1z
			"/>
	</g>
	<g>
		<path fill="#515171" d="M21.1,9.8c-0.3,0-0.7-0.1-0.9-0.4c-0.2-0.3-0.4-0.6-0.4-0.9c0-0.3,0.1-0.7,0.4-0.9c0.5-0.5,1.4-0.5,1.9,0
			c0.2,0.3,0.4,0.6,0.4,0.9c0,0.3-0.1,0.7-0.4,0.9C21.8,9.6,21.5,9.8,21.1,9.8z"/>
	</g>
	<g>
		<path fill="#515171" d="M26.4,9.8c-0.3,0-0.7-0.1-0.9-0.4c-0.2-0.3-0.4-0.6-0.4-0.9c0-0.3,0.1-0.7,0.4-0.9C26,7,26.9,7,27.4,7.5
			c0.2,0.3,0.4,0.6,0.4,0.9c0,0.3-0.1,0.7-0.4,0.9C27.1,9.6,26.8,9.8,26.4,9.8z"/>
	</g>
	<g>
		<path fill="#515171" d="M31.7,9.8c-0.3,0-0.7-0.1-0.9-0.4c-0.2-0.3-0.4-0.6-0.4-0.9c0-0.3,0.1-0.7,0.4-0.9c0.5-0.5,1.4-0.5,1.9,0
			C32.9,7.8,33,8.1,33,8.5c0,0.3-0.1,0.7-0.4,0.9C32.4,9.6,32,9.8,31.7,9.8z"/>
	</g>
	<g>
		<path fill="#515171" d="M51.5,69.5H5.3c-2.9,0-5.3-2.4-5.3-5.3V19.1c0-2.9,2.4-5.3,5.3-5.3h5.3c1.5,0,2.6,1.2,2.6,2.7
			s-1.2,2.7-2.6,2.7H5.3v45.1h46.2v-5.3c0-1.5,1.2-2.7,2.6-2.7s2.6,1.2,2.6,2.7v5.3C56.8,67.1,54.4,69.5,51.5,69.5z"/>
	</g>
	<g>
		<path fill="#515171" d="M10.6,54.9H2.6c-0.7,0-1.3-0.6-1.3-1.3s0.6-1.3,1.3-1.3h7.9c0.7,0,1.3,0.6,1.3,1.3S11.3,54.9,10.6,54.9z"
			/>
	</g>
</g>
</svg>
