<?xml version="1.0" encoding="utf-8"?>
<!-- Generator: Adobe Illustrator 18.0.0, SVG Export Plug-In . SVG Version: 6.00 Build 0)  -->
<!DOCTYPE svg PUBLIC "-//W3C//DTD SVG 1.1//EN" "http://www.w3.org/Graphics/SVG/1.1/DTD/svg11.dtd">
<svg version="1.1" id="Layer_1" xmlns="http://www.w3.org/2000/svg" xmlns:xlink="http://www.w3.org/1999/xlink" x="0px" y="0px"
	 viewBox="0 0 70 70" enable-background="new 0 0 70 70" xml:space="preserve">
<g>
	<g>
		<path fill="#515171" d="M31.7,70h-26c-2.9,0-5.2-2.3-5.2-5.2V5.2C0.5,2.3,2.8,0,5.7,0h58.6c2.9,0,5.2,2.3,5.2,5.2v51.5
			c0,1.4-1.2,2.6-2.6,2.6c-1.4,0-2.6-1.2-2.6-2.6V5.2H5.7v59.6h26c1.4,0,2.6,1.2,2.6,2.6C34.3,68.8,33.2,70,31.7,70z"/>
	</g>
</g>
<g>
	<path fill="#515171" d="M32,43.1c-0.4,0-0.7-0.1-1-0.2c-1-0.4-1.6-1.3-1.6-2.4V2.6c0-1.4,1.2-2.6,2.6-2.6h22.4
		c1.4,0,2.6,1.2,2.6,2.6v37.9c0,1-0.6,2-1.6,2.4c-1,0.4-2.1,0.2-2.8-0.5l-9.4-8.8l-9.4,8.8C33.3,42.9,32.7,43.1,32,43.1z M43.2,27.5
		c0.6,0,1.3,0.2,1.8,0.7l6.8,6.3V5.2H34.6v29.3l6.8-6.3C41.9,27.8,42.6,27.5,43.2,27.5z"/>
</g>
<g>
	<g>
		<path fill="#515171" d="M64.3,70H26.5c-1.4,0-2.6-1.2-2.6-2.6c0-1.4,1.2-2.6,2.6-2.6h37.8V5.2H5.7v51.5c0,1.4-1.2,2.6-2.6,2.6
			s-2.6-1.2-2.6-2.6V5.2C0.5,2.3,2.8,0,5.7,0h58.6c2.9,0,5.2,2.3,5.2,5.2v59.6C69.5,67.7,67.2,70,64.3,70z"/>
	</g>
</g>
</svg>
