<?xml version="1.0" encoding="utf-8"?>
<!-- Generator: Adobe Illustrator 18.0.0, SVG Export Plug-In . SVG Version: 6.00 Build 0)  -->
<!DOCTYPE svg PUBLIC "-//W3C//DTD SVG 1.1//EN" "http://www.w3.org/Graphics/SVG/1.1/DTD/svg11.dtd">
<svg version="1.1" id="Layer_1" xmlns="http://www.w3.org/2000/svg" xmlns:xlink="http://www.w3.org/1999/xlink" x="0px" y="0px"
	 viewBox="0 0 70 70" enable-background="new 0 0 70 70" xml:space="preserve">
<g>
	<g>
		<path fill="#515151" d="M62.3,60.1H7.7c-2.1,0-3.7-1.7-3.7-3.7V16.7c0-2,1.7-3.7,3.7-3.7h5c1.4,0,2.5,1.1,2.5,2.5
			c0,1.4-1.1,2.5-2.5,2.5H9v37.2H61V18h-3.7c-1.4,0-2.5-1.1-2.5-2.5c0-1.4,1.1-2.5,2.5-2.5h5c2.1,0,3.7,1.7,3.7,3.7v39.6
			C66,58.4,64.3,60.1,62.3,60.1z"/>
	</g>
	<g>
		<path fill="#515151" d="M41.2,70c-1.4,0-2.5-1.1-2.5-2.5v-7.4c0-1.4,1.1-2.5,2.5-2.5c1.4,0,2.5,1.1,2.5,2.5v7.4
			C43.7,68.9,42.6,70,41.2,70z"/>
	</g>
	<g>
		<path fill="#515151" d="M30,70c-1.4,0-2.5-1.1-2.5-2.5v-7.4c0-1.4,1.1-2.5,2.5-2.5c1.4,0,2.5,1.1,2.5,2.5v7.4
			C32.5,68.9,31.4,70,30,70z"/>
	</g>
	<g>
		<path fill="#515151" d="M53.6,70h-36c-1.4,0-2.5-1.1-2.5-2.5s1.1-2.5,2.5-2.5h36c1.4,0,2.5,1.1,2.5,2.5S55,70,53.6,70z"/>
	</g>
	<g>
		<path fill="#515151" d="M63.5,51.4h-57c-0.7,0-1.2-0.6-1.2-1.2s0.6-1.2,1.2-1.2h57c0.7,0,1.2,0.6,1.2,1.2S64.2,51.4,63.5,51.4z"/>
	</g>
</g>
<g>
	<g>
		<path fill="#515171" d="M56.1,50.8c-1.4,0-2.5-1.1-2.5-2.5V5H16.4v43.4c0,1.4-1.1,2.5-2.5,2.5s-2.5-1.1-2.5-2.5V5c0-2.7,2.2-5,5-5
			h37.2c2.7,0,5,2.2,5,5v43.4C58.6,49.7,57.4,50.8,56.1,50.8z"/>
	</g>
</g>
<g>
	<path fill="#515171" d="M56.1,16.8H14.7c-0.7,0-1.2-0.6-1.2-1.2c0-0.7,0.6-1.2,1.2-1.2h41.4c0.7,0,1.2,0.6,1.2,1.2
		C57.3,16.2,56.8,16.8,56.1,16.8z"/>
</g>
<g>
	<circle fill="#515171" cx="20.9" cy="9.3" r="2.5"/>
</g>
<g>
	<circle fill="#515171" cx="28.3" cy="9.3" r="2.5"/>
</g>
<g>
	<circle fill="#515171" cx="35.8" cy="9.3" r="2.5"/>
</g>
</svg>
