<?xml version="1.0" encoding="utf-8"?>
<!-- Generator: Adobe Illustrator 18.0.0, SVG Export Plug-In . SVG Version: 6.00 Build 0)  -->
<!DOCTYPE svg PUBLIC "-//W3C//DTD SVG 1.1//EN" "http://www.w3.org/Graphics/SVG/1.1/DTD/svg11.dtd">
<svg version="1.1" id="Layer_1" xmlns="http://www.w3.org/2000/svg" xmlns:xlink="http://www.w3.org/1999/xlink" x="0px" y="0px"
	 viewBox="0 0 150 150" enable-background="new 0 0 150 150" xml:space="preserve">
<path fill="none" stroke="#231F20" stroke-width="2" stroke-linecap="round" stroke-linejoin="round" stroke-miterlimit="10" d="
	M126.4,122c-41.9,0-83.1,0-125,0c22.1-21,25.8-46,25.5-70c34.3,0,82.7,0,117,0C145.4,67,141.3,96,126.4,122z"/>
<path fill="none" stroke="#231F20" stroke-width="2" stroke-linecap="round" stroke-linejoin="round" stroke-miterlimit="10" d="
	M113.8,122.1c22.3-14.9,30.1-69.9,30.1-69.9s3.8,52.8-12,76.8H15v-3h107.4l1.8-3.5"/>
<polyline fill="none" stroke="#231F20" stroke-width="2" stroke-linecap="round" stroke-linejoin="round" stroke-miterlimit="10" points="
	9.5,122 5.7,126 17,126 "/>
<path fill="none" stroke="#231F20" stroke-width="2" stroke-linecap="round" stroke-linejoin="round" stroke-miterlimit="10" d="
	M148.6,55.4c0,0-0.5,61.6-6.8,76.6H23v-3"/>
<polyline fill="none" stroke="#231F20" stroke-width="2" stroke-linecap="round" stroke-linejoin="round" stroke-miterlimit="10" points="
	113,24 144,24 144,52 27,52 27,24 51,24 "/>
<line fill="none" stroke="#231F20" stroke-width="2" stroke-linecap="round" stroke-linejoin="round" stroke-miterlimit="10" x1="59" y1="24" x2="106" y2="24"/>
<polyline fill="none" stroke="#231F20" stroke-width="2" stroke-linecap="round" stroke-linejoin="round" stroke-miterlimit="10" points="
	144,24.4 148,31.2 148,58 "/>
<line fill="none" stroke="#231F20" stroke-width="2.019" stroke-miterlimit="10" x1="143.7" y1="50.9" x2="148.4" y2="55.1"/>
<path fill="none" stroke="#231F20" stroke-width="2" stroke-linecap="round" stroke-linejoin="round" stroke-miterlimit="10" d="
	M60,40.5c-2.7,0-5-2.2-5-4.9V22.6c0-2.7,2.3-4.6,5.1-4.6h0.3c2.2,0,3.9,1.2,4.6,3.1"/>
<path fill="none" stroke="#231F20" stroke-width="2" stroke-linecap="round" stroke-linejoin="round" stroke-miterlimit="10" d="
	M119.8,21.1c-0.7-1.9-2.5-3.1-4.6-3.1h-0.3c-2.7,0-4.8,1.9-4.8,4.6v13.1c0,2.3,1.6,4.4,3.9,4.8"/>
<path fill="none" stroke="#231F20" stroke-width="2.019" stroke-linecap="round" stroke-miterlimit="10" d="M58.6,36.3
	c2.5,0,4.5,2,4.5,4.4s-2,4.4-4.5,4.4c-2.5,0-4.5-2-4.5-4.4"/>
<path fill="none" stroke="#231F20" stroke-width="2.019" stroke-linecap="round" stroke-miterlimit="10" d="M113.4,36.3
	c2.5,0,4.5,2,4.5,4.4s-2,4.4-4.5,4.4c-2.5,0-4.5-2-4.5-4.4"/>
<ellipse fill="none" stroke="#231F20" stroke-width="2.019" stroke-linecap="round" stroke-linejoin="round" stroke-miterlimit="10" cx="77.8" cy="85.9" rx="22.8" ry="22.6"/>
<line fill="none" stroke="#231F20" stroke-width="2.019" stroke-linecap="round" stroke-linejoin="round" stroke-miterlimit="10" x1="94.8" y1="71" x2="62.7" y2="102.8"/>
</svg>
