<?xml version="1.0" encoding="utf-8"?>
<!-- Generator: Adobe Illustrator 18.0.0, SVG Export Plug-In . SVG Version: 6.00 Build 0)  -->
<!DOCTYPE svg PUBLIC "-//W3C//DTD SVG 1.1//EN" "http://www.w3.org/Graphics/SVG/1.1/DTD/svg11.dtd">
<svg version="1.1" id="Layer_1" xmlns="http://www.w3.org/2000/svg" xmlns:xlink="http://www.w3.org/1999/xlink" x="0px" y="0px"
	 viewBox="0 0 150 150" enable-background="new 0 0 150 150" xml:space="preserve">
<g>
	<path fill="#9CA2A7" d="M98.6,86.6c1.2,0.6,2.1,1.6,2.5,2.9c0.5,1.3,0.4,2.6-0.2,3.8c-1.4,4-4.6,9-9.6,15.1c-0.9,0.9-2,1.5-3.3,1.7
		c-1.3,0.2-2.5,0-3.6-0.6l-6.6-3.9c-3.8,3.2-8,5.6-12.6,7.3v7.8c0,1.2-0.5,2.4-1.4,3.4c-0.9,1.1-2,1.7-3.2,1.8
		c-5.8,1.1-11.6,1.1-17.4,0c-1.4-0.2-2.5-0.8-3.3-1.8s-1.3-2.2-1.3-3.4v-7.8c-4.7-1.7-8.9-4.1-12.6-7.3l-6.6,3.9
		c-1.2,0.6-2.5,0.8-3.8,0.6s-2.3-0.8-3.1-1.7c-4.9-6-8.1-11-9.6-15.1c-0.6-1.2-0.7-2.5-0.2-3.8c0.5-1.3,1.3-2.3,2.5-2.9l7.6-3.9
		c-0.9-4.9-0.9-9.7,0-14.4l-7.6-3.9c-1.2-0.8-2.1-1.8-2.5-3c-0.5-1.2-0.4-2.4,0.2-3.7c1.5-4.1,4.7-9.2,9.6-15.1
		c0.8-1.1,1.8-1.7,3.1-1.9s2.6,0,3.8,0.8l6.6,3.7c3.8-3.2,8-5.6,12.6-7.1v-7.8c0-1.4,0.4-2.6,1.3-3.6c0.8-1,1.9-1.6,3.3-1.7
		c5.8-1.1,11.6-1.1,17.4-0.2c1.2,0.3,2.3,1,3.2,1.9c0.9,1,1.4,2.2,1.4,3.6V38c4.6,1.7,8.8,4,12.6,7.1l6.6-3.7c1.1-0.8,2.3-1,3.6-0.8
		c1.3,0.2,2.4,0.9,3.3,1.9c4.9,5.8,8.1,10.8,9.6,15.1c0.5,1.2,0.5,2.4,0.1,3.7c-0.4,1.2-1.2,2.2-2.4,3l-7.8,3.9
		c0.9,4.7,0.9,9.5,0,14.4L98.6,86.6z M68.4,74.4c-0.3-4.1-1.9-7.7-4.8-10.7c-2.9-3-6.5-4.6-10.8-4.9c-4.6-0.3-8.9,1.2-13.1,4.6
		c-3.2,4.1-4.7,8.5-4.4,13.1c0.2,4.1,1.7,7.7,4.7,10.7c3,3,6.5,4.5,10.7,4.7c4.6,0.3,9-1.1,13.3-4.4C67.2,83.4,68.7,79,68.4,74.4z
		 M117.9,64.1c-0.3,0.6-0.8,1-1.5,1.3c-0.7,0.2-1.3,0.3-1.9,0.1c-2.7-1.1-5.2-2.5-7.3-4.4c-0.6-0.5-1-1-1-1.7
		c-0.1-0.7,0-1.3,0.3-1.9l1.8-3.2c-1.5-1.8-2.7-3.9-3.7-6.2h-3.7c-0.8,0-1.4-0.2-1.9-0.7c-0.5-0.5-0.8-1.1-0.8-1.8
		c-0.6-2.7-0.7-5.6-0.2-8.5c0.2-0.6,0.5-1.1,1-1.6s1.2-0.7,1.9-0.7h3.7c0.9-2.3,2.1-4.4,3.7-6.4l-1.8-3.2c-0.3-0.6-0.4-1.3-0.3-1.9
		c0.1-0.7,0.4-1.3,1-1.7c2.1-1.7,4.6-3.1,7.3-4.1c0.6-0.3,1.3-0.3,1.9-0.1c0.7,0.2,1.2,0.6,1.5,1.3l1.8,3.4c2.4-0.5,4.9-0.5,7.3,0
		l1.8-3.4c0.3-0.6,0.8-1,1.5-1.3c0.7-0.2,1.3-0.2,1.9,0.1c2.7,0.9,5.2,2.3,7.3,4.1c0.6,0.5,1,1,1,1.7c0.1,0.7,0,1.3-0.3,1.9
		l-1.8,3.2c1.5,2,2.7,4.1,3.7,6.4h3.7c0.8,0,1.4,0.2,1.9,0.7s0.8,1,0.8,1.6c0.6,2.9,0.6,5.7,0,8.5c0,0.8-0.3,1.4-0.8,1.8
		c-0.5,0.5-1.2,0.7-1.9,0.7h-3.7c-0.9,2.3-2.1,4.4-3.7,6.2l1.8,3.2c0.3,0.6,0.4,1.3,0.3,1.9c-0.1,0.7-0.4,1.3-1,1.7
		c-2.1,1.8-4.6,3.3-7.3,4.4c-0.6,0.2-1.3,0.1-1.9-0.1c-0.7-0.2-1.2-0.6-1.5-1.3l-1.8-3.2c-2.4,0.5-4.9,0.5-7.3,0L117.9,64.1z
		 M117.9,132.6c-0.3,0.6-0.8,1-1.5,1.3c-0.7,0.2-1.3,0.3-1.9,0.1c-2.7-1.1-5.2-2.5-7.3-4.4c-0.6-0.5-1-1-1-1.7
		c-0.1-0.7,0-1.3,0.3-1.9l1.8-3.2c-1.5-1.8-2.7-3.9-3.7-6.2h-3.7c-0.8,0-1.4-0.2-1.9-0.7c-0.5-0.5-0.8-1.1-0.8-1.8
		c-0.6-2.7-0.7-5.6-0.2-8.5c0.2-0.6,0.5-1.1,1-1.6s1.2-0.7,1.9-0.7h3.7c0.9-2.3,2.1-4.4,3.7-6.4l-1.8-3.2c-0.3-0.6-0.4-1.3-0.3-1.9
		c0.1-0.7,0.4-1.3,1-1.7c2.1-1.8,4.6-3.2,7.3-4.1c0.6-0.3,1.3-0.3,1.9-0.1c0.7,0.2,1.2,0.6,1.5,1.3l1.8,3.2c2.4-0.3,4.9-0.2,7.3,0.2
		l1.8-3.4c0.3-0.6,0.8-1,1.5-1.3c0.7-0.2,1.3-0.2,1.9,0.1c2.7,0.9,5.2,2.3,7.3,4.1c0.6,0.5,1,1,1,1.7c0.1,0.7,0,1.3-0.3,1.9
		l-1.8,3.2c1.5,2,2.7,4.1,3.7,6.4h3.7c0.8,0,1.4,0.2,1.9,0.7s0.8,1,0.8,1.6c0.6,2.9,0.6,5.7,0,8.5c0,0.8-0.3,1.4-0.8,1.8
		c-0.5,0.5-1.2,0.7-1.9,0.7h-3.7c-0.9,2.3-2.1,4.4-3.7,6.2l1.8,3.2c0.3,0.6,0.4,1.3,0.3,1.9c-0.1,0.7-0.4,1.3-1,1.7
		c-2.1,1.8-4.6,3.3-7.3,4.4c-0.6,0.2-1.3,0.1-1.9-0.1s-1.2-0.6-1.5-1.3l-1.8-3.2c-2.4,0.5-4.9,0.5-7.3,0L117.9,132.6z M125.8,49.3
		c2.8-0.8,4.7-2.7,5.5-5.5c0.8-2.8,0.2-5.7-1.9-8.6c-2.7-2.1-5.5-2.7-8.4-1.8c-2.8,0.9-4.7,2.8-5.5,5.6c-0.8,2.8-0.2,5.6,1.9,8.4
		C120.1,49.5,122.9,50.2,125.8,49.3z M125.8,117.7c2.8-0.9,4.7-2.7,5.5-5.5c0.8-2.7,0.2-5.6-1.9-8.5c-2.7-2.1-5.5-2.7-8.4-1.8
		c-2.8,0.9-4.7,2.8-5.5,5.6c-0.8,2.8-0.2,5.6,1.9,8.4C120.1,118,122.9,118.6,125.8,117.7z"/>
</g>
</svg>
