<?xml version="1.0" encoding="utf-8"?>
<!-- Generator: Adobe Illustrator 18.0.0, SVG Export Plug-In . SVG Version: 6.00 Build 0)  -->
<!DOCTYPE svg PUBLIC "-//W3C//DTD SVG 1.1//EN" "http://www.w3.org/Graphics/SVG/1.1/DTD/svg11.dtd">
<svg version="1.1" id="Layer_1" xmlns="http://www.w3.org/2000/svg" xmlns:xlink="http://www.w3.org/1999/xlink" x="0px" y="0px"
	 viewBox="0 0 28 28" enable-background="new 0 0 28 28" xml:space="preserve">
<g>
	<path d="M14,21.5c-3.8,0-7-3.2-7-7v-7c0-0.5,0.4-1,1-1l0,0c0.5,0,1,0.4,1,1v7c0,2.8,2.3,5.1,5.1,5.1c2.8,0,5.1-2.3,5.1-5.1v-3.3
		c0-0.5,0.4-1,1-1c0.5,0,1,0.4,1,1v3.2C21,18.3,17.8,21.5,14,21.5z"/>
</g>
<g>
	<path fill="#FF5E14" d="M11.1,9.4v5c0,0,0.1,2.8,2.8,2.8s3.1-3,3.1-3V7.4c0,0,0-0.6-0.8-0.6c-0.7,0-2.4,0-2.4,0S11.2,7.4,11.1,9.4z
		"/>
</g>
<ellipse fill="#FF5E14" cx="20.1" cy="7.5" rx="0.9" ry="1"/>
</svg>
