<?xml version="1.0" encoding="utf-8"?>
<!-- Generator: Adobe Illustrator 18.0.0, SVG Export Plug-In . SVG Version: 6.00 Build 0)  -->
<!DOCTYPE svg PUBLIC "-//W3C//DTD SVG 1.1//EN" "http://www.w3.org/Graphics/SVG/1.1/DTD/svg11.dtd">
<svg version="1.1" id="Layer_1" xmlns="http://www.w3.org/2000/svg" xmlns:xlink="http://www.w3.org/1999/xlink" x="0px" y="0px"
	 viewBox="0 0 70 70" enable-background="new 0 0 70 70" xml:space="preserve">
<g>
	<path fill="#FFFFFF" d="M35,53.7c-9.6,0-17.5-7.9-17.5-17.5l0-17.5c0-1.3,1.1-2.4,2.4-2.4h0c1.3,0,2.4,1.1,2.4,2.4l0,17.5
		c0,7,5.7,12.8,12.8,12.8c7,0,12.8-5.7,12.8-12.8V28c0-1.3,1.1-2.4,2.4-2.4c1.3,0,2.4,1.1,2.4,2.4v8.1C52.5,45.8,44.6,53.7,35,53.7z
		"/>
</g>
<g>
	<path fill="#FFFFFF" d="M52.5,20.3c0,0.4-0.4,0.8-0.8,0.8h-3.1c-0.4,0-0.8-0.4-0.8-0.8v-3.2c0-0.4,0.4-0.8,0.8-0.8h3.1
		c0.4,0,0.8,0.4,0.8,0.8V20.3z"/>
</g>
<g>
	<path fill="#FFFFFF" d="M27.8,23.5V36c0,0,0.2,7,7,7s7.8-7.5,7.8-7.5V18.6c0,0-0.1-1.5-2-1.5c-1.8,0-6.1,0-6.1,0S28,18.4,27.8,23.5
		z"/>
</g>
</svg>
