<?xml version="1.0" encoding="utf-8"?>
<!-- Generator: Adobe Illustrator 18.0.0, SVG Export Plug-In . SVG Version: 6.00 Build 0)  -->
<!DOCTYPE svg PUBLIC "-//W3C//DTD SVG 1.1//EN" "http://www.w3.org/Graphics/SVG/1.1/DTD/svg11.dtd">
<svg version="1.1" id="Layer_1" xmlns="http://www.w3.org/2000/svg" xmlns:xlink="http://www.w3.org/1999/xlink" x="0px" y="0px"
	 viewBox="0 0 100 114" enable-background="new 0 0 100 114" xml:space="preserve">
<g>
	<g>
		<g>
			<polygon fill="#E6E8EB" points="79.4,114 79.4,55.7 79.4,26.5 58.5,5.5 0,5.5 0,27.2 0,55.7 0,114 			"/>
			<polygon fill="#FFFFFF" points="84.9,108.5 84.9,50.2 84.9,20.9 64,0 5.5,0 5.5,21.6 5.5,50.2 5.5,108.5 			"/>
			<g>
				<polygon fill="#F5876E" points="64,20.9 84.9,20.9 64,0 				"/>
				<polygon fill="#CED6D7" points="84.9,20.9 64,20.9 84.9,41.9 				"/>
			</g>
		</g>
	</g>
	<g>
		<g>
			<rect x="17.6" y="51.6" fill="#B7BEC0" width="55.9" height="1.4"/>
			<rect x="17.6" y="54.9" fill="#B7BEC0" width="57.4" height="1.4"/>
			<rect x="17.6" y="58.2" fill="#B7BEC0" width="56.2" height="1.4"/>
			<rect x="17.6" y="61.5" fill="#B7BEC0" width="49.6" height="1.4"/>
			<rect x="17.6" y="25.9" fill="#B7BEC0" width="55.9" height="1.4"/>
			<rect x="17.6" y="29.2" fill="#B7BEC0" width="57.4" height="1.4"/>
			<rect x="17.6" y="32.5" fill="#B7BEC0" width="56.2" height="1.4"/>
			<rect x="17.6" y="35.8" fill="#B7BEC0" width="34" height="1.4"/>
			<rect x="17.6" y="41.6" fill="#B7BEC0" width="55.9" height="1.4"/>
			<rect x="17.6" y="44.9" fill="#B7BEC0" width="57.4" height="1.4"/>
			<rect x="17.6" y="48.2" fill="#B7BEC0" width="56.2" height="1.4"/>
			<rect x="17.6" y="67.5" fill="#B7BEC0" width="55.9" height="1.4"/>
			<rect x="17.6" y="70.8" fill="#B7BEC0" width="57.4" height="1.4"/>
			<rect x="17.6" y="74.1" fill="#B7BEC0" width="56.2" height="1.4"/>
			<rect x="17.6" y="77.4" fill="#B7BEC0" width="34" height="1.4"/>
			<rect x="17.6" y="83.3" fill="#B7BEC0" width="55.9" height="1.4"/>
			<rect x="17.6" y="86.6" fill="#B7BEC0" width="57.4" height="1.4"/>
			<rect x="17.6" y="89.9" fill="#B7BEC0" width="18.4" height="1.4"/>
			<rect x="17.5" y="19.3" fill="#969B9D" width="26.7" height="2.2"/>
		</g>
	</g>
	<g>
		<path fill="#CED6D7" d="M97.7,99.3c0,0.3-0.2,0.5-0.5,0.5l0,0c-0.3,0-0.5-0.2-0.5-0.5v-1.8c0-0.3,0.2-0.5,0.5-0.5l0,0
			c0.3,0,0.5,0.2,0.5,0.5V99.3z"/>
		<path fill="#E26E54" d="M99.3,88.8c0.4-9.1,0.7-20.5,0.7-32.9c0-12.5-0.2-24.3-0.6-33.8h-4.5c-0.4,9.6-0.6,21.3-0.6,33.8
			c0,12.4,0.3,23.7,0.7,32.9H99.3z"/>
		<path fill="#F5876E" d="M98.2,88.8c0.2-9.1,0.4-20.5,0.4-32.9c0-12.5-0.1-24.3-0.3-33.8H96c-0.2,9.6-0.3,21.3-0.3,33.8
			c0,12.4,0.1,23.7,0.4,32.9H98.2z"/>
		<path fill="#E6E8EB" d="M94.9,22.1h4.5c-0.1-1.6-0.1-3.1-0.2-4.5c-1.2-0.9-2.9-0.9-4.1,0C95,19,94.9,20.5,94.9,22.1z"/>
		<path fill="#CED6D7" d="M95.2,22.1h3c0-1.5-0.1-3-0.1-4.4c-0.8-0.8-1.9-0.9-2.7,0C95.3,19.1,95.3,20.6,95.2,22.1z"/>
		<path fill="#B7BEC0" d="M96.6,17.5h-0.9c0,0,0,0,0,0c0,1.4,0,3,0,4.5h1C96.6,20.5,96.6,19,96.6,17.5
			C96.6,17.5,96.6,17.5,96.6,17.5z"/>
		<g>
			<path fill="#CED6D7" d="M94.7,22.1h4.8c0-0.2,0-0.3,0-0.5h-4.7C94.7,21.8,94.7,21.9,94.7,22.1z"/>
			<path fill="#E6E8EB" d="M97.4,22.1h1.5c0-0.2,0-0.3,0-0.5h-1.4C97.4,21.8,97.4,21.9,97.4,22.1z"/>
			<path fill="#B7BEC0" d="M95.2,22.1H96c0-0.2,0-0.3,0-0.5h-0.8C95.2,21.8,95.2,21.9,95.2,22.1z"/>
		</g>
		<g>
			<path fill="#CED6D7" d="M94.2,50.9h5.8c0-0.2,0-0.4,0-0.6h-5.7C94.2,50.5,94.2,50.7,94.2,50.9z"/>
			<path fill="#E6E8EB" d="M96.2,50.9h3c0-0.2,0-0.4,0-0.6h-2.9C96.2,50.5,96.2,50.7,96.2,50.9z"/>
			<path fill="#B7BEC0" d="M94.8,50.9h1c0-0.2,0-0.4,0-0.6h-1C94.8,50.5,94.8,50.7,94.8,50.9z"/>
		</g>
		<g>
			<path fill="#CED6D7" d="M94.2,53.6h5.8c0-0.6,0-1.2,0-1.8h-5.7C94.2,52.4,94.2,53,94.2,53.6z"/>
			<path fill="#E6E8EB" d="M96.2,53.6h3c0-0.6,0-1.2,0-1.8h-2.9C96.2,52.4,96.2,53,96.2,53.6z"/>
			<path fill="#B7BEC0" d="M94.8,53.6h1c0-0.6,0-1.2,0-1.8h-1C94.8,52.4,94.8,53,94.8,53.6z"/>
		</g>
		<path fill="#E6E8EB" d="M95,88.8c0.5,3.8,0.9,7.2,1.2,10.2c0.6,0,1.2,0,1.8,0c0.3-3,0.7-6.4,1.2-10.2C97.8,88.8,96.4,88.8,95,88.8
			z"/>
		<path fill="#CED6D7" d="M96.2,98.9c0.4,0,0.7,0,1.1,0c-0.1-3-0.2-6.5-0.2-10.2c-0.7,0-1.4,0-2.1,0C95.5,92.6,95.9,96,96.2,98.9z"
			/>
		<path fill="#B7BEC0" d="M96.1,88.8c-0.3,0-0.5,0-0.8,0c0.5,3.8,0.9,7.2,1.2,10.2c0.2,0,0.1,0,0.3,0C96.6,95.9,96.5,92.5,96.1,88.8
			z"/>
		<path fill="#E6E8EB" d="M96,22v21.7c0,0.8,0.6,1.4,1.4,1.4c0.8,0,1.4-0.6,1.4-1.4V22H96z"/>
		<path fill="#B7BEC0" d="M96,22v21.7c0,0.8,0.5,1.4,1.1,1.4c0.6,0,1.1-0.6,1.1-1.4V22H96z"/>
		<path fill="#CED6D7" d="M96.4,22v21.5c0,0.8,0.5,1.4,1.1,1.4c0.6,0,1.1-0.6,1.1-1.4V22H96.4z"/>
	</g>
</g>
</svg>
