<?xml version="1.0" encoding="utf-8"?>
<!-- Generator: Adobe Illustrator 18.0.0, SVG Export Plug-In . SVG Version: 6.00 Build 0)  -->
<!DOCTYPE svg PUBLIC "-//W3C//DTD SVG 1.1//EN" "http://www.w3.org/Graphics/SVG/1.1/DTD/svg11.dtd">
<svg version="1.1" id="Layer_1" xmlns="http://www.w3.org/2000/svg" xmlns:xlink="http://www.w3.org/1999/xlink" x="0px" y="0px"
	 viewBox="0 0 102 101" enable-background="new 0 0 102 101" xml:space="preserve">
<g>
	<linearGradient id="SVGID_1_" gradientUnits="userSpaceOnUse" x1="3.2553" y1="65.5718" x2="99.4932" y2="65.5718">
		<stop  offset="0" style="stop-color:#E6E6E5"/>
		<stop  offset="1" style="stop-color:#DCDBDB"/>
	</linearGradient>
	<path fill="url(#SVGID_1_)" d="M97.4,30.1h-8.5H12.8H5.4c-1.2,0-2.1,1-2.1,2.1v8.5v49.7C3.3,96.2,8,101,13.8,101h75.1
		c5.8,0,10.6-4.8,10.6-10.6V40.7v-8.5C99.5,31.1,98.5,30.1,97.4,30.1z"/>
	<rect x="3.3" y="43.8" fill="#AFB8B7" width="96.2" height="4.3"/>
	<g>
		<linearGradient id="SVGID_2_" gradientUnits="userSpaceOnUse" x1="49.9622" y1="26.9887" x2="52.5573" y2="46.3925">
			<stop  offset="0" style="stop-color:#E6E6E5"/>
			<stop  offset="1" style="stop-color:#DCDBDB"/>
		</linearGradient>
		<path fill="url(#SVGID_2_)" d="M101.6,40.7c0,2.3-1.9,4.2-4.2,4.2h-92c-2.3,0-4.2-1.9-4.2-4.2v-6.3c0-2.3,1.9-4.2,4.2-4.2h92
			c2.3,0,4.2,1.9,4.2,4.2V40.7z"/>
		<polygon fill="#44637E" points="24.4,44.9 39.2,44.9 51.9,30.1 37.1,30.1 		"/>
		<path fill="#44637E" d="M5.4,30.1c-2.3,0-4.2,1.9-4.2,4.2v6.3c0,2.3,1.9,4.2,4.2,4.2h3.2l12.6-14.8H5.4z"/>
		<polygon fill="#44637E" points="55.1,44.9 69.9,44.9 82.6,30.1 67.8,30.1 		"/>
		<path fill="#44637E" d="M101.6,40.7v-6.3c0-2-1.4-3.7-3.3-4.1L85.7,44.9h11.6C99.7,44.9,101.6,43,101.6,40.7z"/>
	</g>
	<g>
		
			<linearGradient id="SVGID_3_" gradientUnits="userSpaceOnUse" x1="73.6602" y1="299.3514" x2="76.2554" y2="318.7556" gradientTransform="matrix(0.9866 -0.1629 -0.1629 -0.9866 26.9463 332.8412)">
			<stop  offset="0" style="stop-color:#E6E6E5"/>
			<stop  offset="1" style="stop-color:#DCDBDB"/>
		</linearGradient>
		<path fill="url(#SVGID_3_)" d="M99.6,3.5c-0.4-2.3-2.6-3.9-4.9-3.5L3.9,15c-2.3,0.4-3.9,2.6-3.5,4.9l1,6.3
			c0.4,2.3,2.6,3.9,4.9,3.5l90.8-15c2.3-0.4,3.9-2.6,3.5-4.9L99.6,3.5z"/>
		<polygon fill="#44637E" points="22.7,11.9 37.3,9.5 52.3,22.1 37.6,24.5 		"/>
		<path fill="#44637E" d="M6.3,29.7c-2.3,0.4-4.5-1.2-4.9-3.5l-1-6.3c-0.4-2.3,1.2-4.5,3.5-4.9l3.2-0.5L22,27.1L6.3,29.7z"/>
		<polygon fill="#44637E" points="53,6.9 67.6,4.5 82.5,17.1 67.9,19.5 		"/>
		<path fill="#44637E" d="M99.6,3.5l1,6.3c0.3,2-0.8,3.9-2.6,4.6L83.2,2l11.5-1.9C97-0.3,99.2,1.2,99.6,3.5z"/>
	</g>
	<g>
		<path fill="#3C566D" d="M3.3,21.7C3.3,18.8,5,18,7.1,20l20.8,19.3c2.1,2,1.5,3.6-1.4,3.6h-18c-2.9,0-5.3-2.4-5.3-5.3V21.7z"/>
		<linearGradient id="SVGID_4_" gradientUnits="userSpaceOnUse" x1="5.3704" y1="25.9133" x2="9.6006" y2="25.9133">
			<stop  offset="0" style="stop-color:#E6E6E5"/>
			<stop  offset="1" style="stop-color:#DCDBDB"/>
		</linearGradient>
		<circle fill="url(#SVGID_4_)" cx="7.5" cy="25.9" r="2.1"/>
		<linearGradient id="SVGID_5_" gradientUnits="userSpaceOnUse" x1="5.3704" y1="38.604" x2="9.6006" y2="38.604">
			<stop  offset="0" style="stop-color:#E6E6E5"/>
			<stop  offset="1" style="stop-color:#DCDBDB"/>
		</linearGradient>
		<circle fill="url(#SVGID_5_)" cx="7.5" cy="38.6" r="2.1"/>
		<linearGradient id="SVGID_6_" gradientUnits="userSpaceOnUse" x1="19.1187" y1="38.604" x2="23.3489" y2="38.604">
			<stop  offset="0" style="stop-color:#E6E6E5"/>
			<stop  offset="1" style="stop-color:#DCDBDB"/>
		</linearGradient>
		<circle fill="url(#SVGID_6_)" cx="21.2" cy="38.6" r="2.1"/>
	</g>
	<path opacity="0.4" fill="#7B7B7B" d="M37.8,88L54,101h37c0,0,8.5-3.2,8.5-9.5s0-6.3,0-6.3L65.4,56.5L37.8,88z"/>
	<g>
		<circle fill="#3C566D" cx="51.9" cy="72.4" r="21.2"/>
		<linearGradient id="SVGID_7_" gradientUnits="userSpaceOnUse" x1="41.8036" y1="61.3158" x2="61.3156" y2="82.8187">
			<stop  offset="0" style="stop-color:#F7F8F8"/>
			<stop  offset="1" style="stop-color:#EBEBEB"/>
		</linearGradient>
		<circle fill="url(#SVGID_7_)" cx="51.9" cy="72.4" r="16.3"/>
		<path fill="#F4783F" d="M49.2,63.7c-1.4-1-2.6-0.4-2.6,1.4v14.8c0,1.7,1.2,2.4,2.6,1.4l10.2-6.9c1.4-1,1.5-2.6,0-3.6L49.2,63.7z"
			/>
	</g>
</g>
</svg>
