<?xml version="1.0" encoding="utf-8"?>
<!-- Generator: Adobe Illustrator 18.0.0, SVG Export Plug-In . SVG Version: 6.00 Build 0)  -->
<!DOCTYPE svg PUBLIC "-//W3C//DTD SVG 1.1//EN" "http://www.w3.org/Graphics/SVG/1.1/DTD/svg11.dtd">
<svg version="1.1" id="Layer_1" xmlns="http://www.w3.org/2000/svg" xmlns:xlink="http://www.w3.org/1999/xlink" x="0px" y="0px"
	 viewBox="0 0 100 99" enable-background="new 0 0 100 99" xml:space="preserve">
<g>
	<g>
		<path fill="#CED6D7" d="M35.4,74.2l39.4-39.4c6.5,2.6,14.2,1.3,19.5-4c3.3-3.2,5-7.4,5.3-11.7l-7.6,7.6l-12.3-3.3l-3.3-12.3
			L86.7,0.8c-6.2-1.9-13.2-0.4-18.1,4.5c-5.3,5.3-6.6,13-4,19.5L25.3,64.1c-6.5-2.6-14.2-1.2-19.5,4C1.7,72.3,0,77.9,0.7,83.3
			l9.7-9.7l10.1,2.7l2.7,10.1L11.9,97.7c6.5,2.6,14.2,1.3,19.5-4C36.6,88.4,38,80.7,35.4,74.2z"/>
		<path fill="#B7BEC0" d="M35.4,74.2l39.4-39.4c6.5,2.6,14.2,1.3,19.5-4c3.3-3.2,5-7.4,5.3-11.7l-7.6,7.6l-12.3-3.3l-1.1-4.3
			L20.7,77l2.5,9.4L11.9,97.7c6.5,2.6,14.2,1.3,19.5-4C36.6,88.4,38,80.7,35.4,74.2z"/>
	</g>
	<g>
		<polygon fill="#CED6D7" points="19.1,9.7 6.3,1.4 1.7,6 10,18.8 15.2,19.5 15.4,19.3 53.9,57.9 58.2,53.6 19.6,15 19.8,14.9 		"/>
		<polygon fill="#E6E8EB" points="3.5,4.3 55.5,56.3 58.2,53.6 19.6,15 19.8,14.9 19.1,9.7 6.3,1.4 		"/>
		<g>
			<path fill="#0CBACC" d="M70.4,54.7c-1.1-1.1-2.8-1.4-4.2-0.9c0.2-1.9-0.6-4.1-1.8-5.3c-0.6-0.6-1.2-1.2-1.6-1.6
				c-1.6-1.6-2.1-2.1-2.1-2.1c-0.4-0.4-1-1-1.6-1.6c-1.6-1.6-4.1-1.6-5.7,0c-3.3,3.3-6.5,6.5-9.8,9.8c-1.6,1.6-1.6,4.2,0,5.7
				c0.6,0.6,1.2,1.2,1.6,1.6c1.6,1.6,2.1,2.1,2.1,2.1c0.4,0.4,1,1,1.6,1.6c1.2,1.2,3.4,2,5.2,1.8c-0.6,1.5-0.4,3.3,0.9,4.5
				c10.1,10,14.1,13.9,24.3,23.9c1.6,1.6,4.8,2.4,6.9,1.3c4.3-2.2,7.8-5.7,9.9-10.1c1-2.1,0.2-5.3-1.4-6.8
				C84.6,68.7,80.6,64.7,70.4,54.7z"/>
			<path fill="#2CC0D5" d="M66.2,53.8c0.2-1.9-0.6-4.1-1.8-5.3c-0.6-0.6-1.2-1.2-1.6-1.6c-1.6-1.6-2.1-2.1-2.1-2.1
				c-0.4-0.4-1-1-1.6-1.6c-1.6-1.6-4.1-1.6-5.7,0c-1.7,1.6-3.3,3.3-5,4.9l43.3,43.3c1.8-1.7,3.2-3.8,4.3-6c1-2.1,0.2-5.3-1.4-6.8
				c-10.1-10-14.1-13.9-24.3-23.9C69.3,53.6,67.6,53.3,66.2,53.8z"/>
			<g>
				<path fill="#2CC0D5" d="M83.1,85.7c0.7,0.7,0.7,1.9,0,2.6l0,0c-0.7,0.7-1.9,0.7-2.6,0L61.2,69c-0.7-0.7-0.7-1.9,0-2.6l0,0
					c0.7-0.7,1.9-0.7,2.6,0L83.1,85.7z"/>
				<path fill="#0CBACC" d="M88.6,80.2c0.7,0.7,0.7,1.9,0,2.6l0,0c-0.7,0.7-1.9,0.7-2.6,0L66.7,63.5c-0.7-0.7-0.7-1.9,0-2.6l0,0
					c0.7-0.7,1.9-0.7,2.6,0L88.6,80.2z"/>
			</g>
			<g>
				<path fill="#0CBACC" d="M44.8,54.3c3.3-3.3,6.5-6.5,9.8-9.8c1.6-1.6,4.1-1.6,5.7,0c-0.2-0.2-0.3-0.3-0.3-0.3
					c-0.4-0.4-0.3-0.3-0.9-0.9c-1.6-1.6-4.1-1.6-5.7,0c-3.3,3.3-6.5,6.5-9.8,9.8c-1.6,1.6-1.6,4.2,0,5.7c0.6,0.6,0.5,0.5,0.9,0.9
					c0.1,0.1,0.2,0.2,0.3,0.3C43.2,58.4,43.2,55.9,44.8,54.3z"/>
			</g>
		</g>
	</g>
</g>
</svg>
