<?xml version="1.0" encoding="utf-8"?>
<!-- Generator: Adobe Illustrator 18.0.0, SVG Export Plug-In . SVG Version: 6.00 Build 0)  -->
<!DOCTYPE svg PUBLIC "-//W3C//DTD SVG 1.1//EN" "http://www.w3.org/Graphics/SVG/1.1/DTD/svg11.dtd">
<svg version="1.1" id="Layer_1" xmlns="http://www.w3.org/2000/svg" xmlns:xlink="http://www.w3.org/1999/xlink" x="0px" y="0px"
	 viewBox="0 0 122 94" enable-background="new 0 0 122 94" xml:space="preserve">
<g>
	<path fill="#CED6D7" d="M121.6,85.6c0,4.6-3.8,8.4-8.4,8.4H8.8c-4.6,0-8.4-3.8-8.4-8.4v-70c0-4.6,3.8-8.4,8.4-8.4h104.4
		c4.6,0,8.4,3.8,8.4,8.4V85.6z"/>
	<path opacity="0.4" fill="#7B7B7B" d="M29.1,94h85.1c0,0,7.3-1,7.3-7.3c0-6.3,0-66.8,0-66.8l-9.4-6.3H108L88.2,7.3L9.8,85.6
		L29.1,94z"/>
	<rect x="9.8" y="13.6" fill="#FFFFFF" width="102.4" height="72.1"/>
	<path fill="#F4783F" d="M90.9,12.9L88.5,8c-0.8-1.5-2.8-2.8-4.5-2.8H73.5v-1c0-2.3-1.9-4.2-4.2-4.2H53.7c-2.3,0-4.2,1.9-4.2,4.2v1
		H38c-1.7,0-3.8,1.3-4.5,2.8l-2.4,4.8c-0.8,1.5,0,2.8,1.7,2.8h56.4C90.9,15.7,91.7,14.4,90.9,12.9z M68.3,5.2c0,0.6-0.5,1-1,1H55.8
		c-0.6,0-1-0.5-1-1v-1c0-0.6,0.5-1,1-1h11.5c0.6,0,1,0.5,1,1V5.2z"/>
	<path opacity="0.2" fill="#FFFFFF" d="M33.5,8l-1.2,2.4h57.4L88.5,8c-0.8-1.5-2.8-2.8-4.5-2.8H73.5h-5.2c0,0.6-0.5,1-1,1H55.8
		c-0.6,0-1-0.5-1-1h-5.2H38C36.3,5.2,34.3,6.5,33.5,8z"/>
	<path fill="#EA6E3C" d="M32.8,15.7h56.4c1.4,0,2.2-0.9,2-2.1H30.8C30.6,14.8,31.4,15.7,32.8,15.7z"/>
</g>
<path fill="#F0CA68" d="M42.8,55.4c0-0.1-0.2-0.5-0.7-0.5l-4.5-0.3c-0.1,0-0.2-0.1-0.3-0.2l-1.7-4.2c-0.2-0.5-0.6-0.6-0.7-0.6
	c-0.1,0-0.5,0.1-0.7,0.6l-1.7,4.2c0,0.1-0.2,0.2-0.3,0.2l-4.5,0.3c-0.5,0-0.7,0.4-0.7,0.5c0,0.1-0.1,0.5,0.3,0.8l3.5,2.9
	c0.1,0.1,0.1,0.2,0.1,0.3l-1.1,4.4c-0.1,0.4,0,0.6,0.1,0.7c0.2,0.3,0.6,0.3,1,0.1l3.9-2.4c0.1,0,0.3,0,0.3,0l3.9,2.4
	c0.2,0.1,0.3,0.2,0.5,0.2c0.2,0,0.4-0.1,0.5-0.3c0.1-0.1,0.2-0.4,0.1-0.7l-1.1-4.4c0-0.1,0-0.3,0.1-0.3l3.5-2.9
	C42.9,55.9,42.8,55.5,42.8,55.4z"/>
<path fill="#F0CA68" d="M95,55.4c0-0.1-0.2-0.5-0.7-0.5l-4.5-0.3c-0.1,0-0.2-0.1-0.3-0.2l-1.7-4.2c-0.2-0.5-0.6-0.6-0.7-0.6
	c-0.1,0-0.5,0.1-0.7,0.6l-1.7,4.2c0,0.1-0.2,0.2-0.3,0.2l-4.5,0.3c-0.5,0-0.7,0.4-0.7,0.5c0,0.1-0.1,0.5,0.3,0.8l3.5,2.9
	c0.1,0.1,0.1,0.2,0.1,0.3l-1.1,4.4c-0.1,0.4,0,0.6,0.1,0.7c0.2,0.3,0.6,0.3,1,0.1l3.9-2.4c0.1,0,0.3,0,0.3,0l3.9,2.4
	c0.2,0.1,0.3,0.2,0.5,0.2c0.2,0,0.4-0.1,0.5-0.3c0.1-0.1,0.2-0.4,0.1-0.7l-1.1-4.4c0-0.1,0-0.3,0.1-0.3l3.5-2.9
	C95.1,55.9,95,55.5,95,55.4z"/>
<path fill="#F0CA68" d="M105.3,59.8c0-0.1-0.1-0.2-0.4-0.3l-2.4-0.2c0,0-0.1-0.1-0.1-0.1l-0.9-2.2c-0.1-0.3-0.3-0.3-0.4-0.3
	s-0.3,0-0.4,0.3l-0.9,2.2c0,0-0.1,0.1-0.1,0.1l-2.4,0.2c-0.3,0-0.4,0.2-0.4,0.3c0,0.1-0.1,0.3,0.2,0.4l1.9,1.6c0,0,0.1,0.1,0.1,0.2
	l-0.6,2.3c0,0.2,0,0.3,0.1,0.4c0.1,0.2,0.3,0.2,0.5,0.1l2.1-1.3c0,0,0.2,0,0.2,0l2.1,1.3c0.1,0.1,0.2,0.1,0.3,0.1
	c0.1,0,0.2-0.1,0.3-0.1c0.1-0.1,0.1-0.2,0.1-0.4l-0.6-2.3c0,0,0-0.1,0.1-0.2l1.9-1.6C105.3,60.1,105.3,59.9,105.3,59.8z"/>
<path fill="#F0CA68" d="M25.2,59.8c0-0.1-0.1-0.2-0.4-0.3l-2.4-0.2c0,0-0.1-0.1-0.1-0.1l-0.9-2.2c-0.1-0.3-0.3-0.3-0.4-0.3
	s-0.3,0-0.4,0.3l-0.9,2.2c0,0-0.1,0.1-0.1,0.1l-2.4,0.2c-0.3,0-0.4,0.2-0.4,0.3c0,0.1-0.1,0.3,0.2,0.4l1.9,1.6c0,0,0.1,0.1,0.1,0.2
	l-0.6,2.3c0,0.2,0,0.3,0.1,0.4c0.1,0.2,0.3,0.2,0.5,0.1l2.1-1.3c0,0,0.2,0,0.2,0l2.1,1.3c0.1,0.1,0.2,0.1,0.3,0.1
	c0.1,0,0.2-0.1,0.3-0.1c0.1-0.1,0.1-0.2,0.1-0.4L23.1,62c0,0,0-0.1,0.1-0.2l1.9-1.6C25.3,60.1,25.2,59.9,25.2,59.8z"/>
<g>
	<path fill="#F0CA68" d="M79.7,45.4c-0.1-0.3-0.5-1.1-1.7-1.2l-10.4-0.7c-0.2,0-0.6-0.3-0.6-0.5l-3.9-9.7c-0.5-1.1-1.3-1.3-1.6-1.3
		c-0.3,0-1.2,0.1-1.6,1.3L55.9,43c-0.1,0.2-0.4,0.4-0.6,0.5l-10.4,0.7c-1.2,0.1-1.6,0.8-1.7,1.2c-0.1,0.3-0.2,1.2,0.7,1.9l8,6.7
		c0.2,0.1,0.3,0.5,0.2,0.8l-2.5,10.1c-0.2,0.8,0,1.4,0.3,1.7c0.5,0.7,1.5,0.8,2.4,0.2l8.9-5.6c0.1-0.1,0.7-0.1,0.8,0l8.9,5.6
		c0.4,0.2,0.8,0.4,1.1,0.4c0.5,0,0.9-0.2,1.2-0.6c0.2-0.3,0.5-0.8,0.3-1.7l-2.5-10.1c-0.1-0.2,0.1-0.6,0.2-0.8l8-6.7
		C80,46.5,79.8,45.7,79.7,45.4z"/>
	<g opacity="0.4">
		<path fill="#FFF5B8" d="M55.6,45.6c-1,0.1-2.3,0.2-2.7,0.3l-5.2,0.5c-0.2,0-0.3,0.1-0.4,0.1l11.9,4.2L55.6,45.6z"/>
		<path fill="#FFF5B8" d="M64.1,50.8l12.6-4.3c-0.1-0.1-0.5-0.3-0.8-0.3l-6.1-0.2c-0.4-0.1-1.3,0.1-1.8,0L64.1,50.8z"/>
		<path fill="#FFF5B8" d="M60.9,48.9V36.4c0,0.1-0.1,0.2-0.2,0.4l-2.3,5.5c-0.2,0.4-0.5,1-0.7,1.7L60.9,48.9z"/>
		<path fill="#FFF5B8" d="M69.2,57.8c-0.1-0.4-0.3-1.2-0.5-1.9l-5.9-1.9v0.3l7.7,9.1c0.1-0.1,0.2-0.4,0.2-0.6L69.2,57.8z"/>
		<path fill="#FFF5B8" d="M54.3,55.6c-0.3,0.8-0.9,2.9-1.1,3.7l-1,4.2c-0.1,0.3,0,0.6,0.1,0.7L59.5,54L54.3,55.6z"/>
	</g>
</g>
</svg>
