<?xml version="1.0" encoding="utf-8"?>
<!-- Generator: Adobe Illustrator 18.0.0, SVG Export Plug-In . SVG Version: 6.00 Build 0)  -->
<!DOCTYPE svg PUBLIC "-//W3C//DTD SVG 1.1//EN" "http://www.w3.org/Graphics/SVG/1.1/DTD/svg11.dtd">
<svg version="1.1" id="Layer_1" xmlns="http://www.w3.org/2000/svg" xmlns:xlink="http://www.w3.org/1999/xlink" x="0px" y="0px"
	 viewBox="0 0 156 80" enable-background="new 0 0 156 80" xml:space="preserve">
<g>
	<polygon fill="#CED6D7" points="95.2,70.2 2.4,70.4 2.2,9.7 95,9.5 	"/>
	<polygon fill="#0CBACC" points="6.7,66.1 6.5,14 89.8,13.8 89.9,65.9 	"/>
	<polygon fill="#CED6D7" points="153.8,70.2 41.8,70.5 41.6,9.8 153.6,9.5 	"/>
	
		<rect x="81.7" y="-1.6" transform="matrix(2.839995e-003 1 -1 2.839995e-003 147.4714 -67.9027)" fill="#0CBACC" width="52.1" height="83.3"/>
	<rect x="17" fill="#E6E8EB" width="121.1" height="80"/>
	<rect x="22.7" y="5.7" fill="#2CC0D5" width="109.7" height="67.3"/>
	<polygon fill="#FFFFFF" points="22.7,74.3 22.7,49.6 132.4,63.8 132.4,74.3 	"/>
	<circle fill="#F4DA80" cx="104.8" cy="28.7" r="8.5"/>
</g>
<path fill="#FFFFFF" d="M89.4,59.8c0,0-10.3-26.3-34.3-26.8C38.8,32.6,28,42.1,22.7,49.1v10.7H89.4z"/>
<path fill="#FFFFFF" d="M86.4,61.6c0,0,7.9-15.7,23.6-15.3c15.6,0.4,22.4,17.5,22.4,17.5"/>
</svg>
