<?xml version="1.0" encoding="utf-8"?>
<!-- Generator: Adobe Illustrator 18.0.0, SVG Export Plug-In . SVG Version: 6.00 Build 0)  -->
<!DOCTYPE svg PUBLIC "-//W3C//DTD SVG 1.1//EN" "http://www.w3.org/Graphics/SVG/1.1/DTD/svg11.dtd">
<svg version="1.1" id="Layer_1" xmlns="http://www.w3.org/2000/svg" xmlns:xlink="http://www.w3.org/1999/xlink" x="0px" y="0px"
	 viewBox="0 0 115 130" enable-background="new 0 0 115 130" xml:space="preserve">
<g>
	<g>
		<g>
			<g>
				<path fill="#F9D9B8" d="M108.9,100.2c-11.7-5.6-24.3-14.4-37-15.9c0.4-3,0.9-6.1,1.3-9.1c2.8-1.8,4.9-4.5,5.1-6.7
					c0.3-2.8,0.7-5.6,1-8.4c0.4,0.4,0.9,0.7,1.5,0.8c1.3,0.1,2.6-0.8,2.7-2.2l1.3-13c0.1-1.3-0.8-2.5-2.2-2.7
					c-0.5-0.1-1,0.1-1.4,0.3c0.3-2.5,0.6-4.9,0.9-7.4c0.2-3.4,1.9-12.4-4.6-18.3c-9.4-9.3-30.2-9.3-39.7,0
					c-6.5,5.8-4.9,14.9-4.6,18.3c0.3,2.5,0.6,4.9,0.9,7.4c-0.4-0.2-0.9-0.3-1.4-0.3c-1.3,0.1-2.3,1.3-2.2,2.7l1.3,13
					c0.1,1.3,1.3,2.3,2.7,2.2c0.6-0.1,1.1-0.4,1.5-0.8c0.3,2.8,0.6,5.6,1,8.4c0.2,2.2,2.2,4.9,5.1,6.7c0.4,3,0.9,6.1,1.3,9.1
					c-12.8,1.5-25.3,10.3-37,15.9c-3.8,2-6.4,7.1-6,11.1c0.4,4.6,0.9,4.1,1.4,8.7c0.4,4,3.8,3.5,7.6,4.2c32.1,5.2,64.7,4.3,96.8-0.9
					c3.8-0.7,7.2,0.6,7.6-3.4c0.5-4.6,0.9-4.1,1.4-8.7C115.4,107.3,112.7,102.1,108.9,100.2z"/>
			</g>
		</g>
		<path fill="#E6E8EB" d="M69.1,123.8c0,3.3-2.7,5.9-5.9,5.9H5.9c-3.3,0-5.9-2.6-5.9-5.9V104C0,100.8,32.1,85,35.4,85l20.8,13.1
			C56.2,98.1,69.1,120.5,69.1,123.8L69.1,123.8z"/>
		<path fill="#E6E8EB" d="M79.5,85L58.7,98.1c0,0-1.1,3-2.7,7.3v24.3h53c3.3,0,5.9-2.6,5.9-5.9V104C114.9,100.8,82.8,85,79.5,85z"/>
		<path fill="#31373E" d="M64.1,129.3l-1.9-12.4c0-5.6-1.3-10.1-2.8-10.1h-3.2c-1.6,0-2.8,4.5-2.8,10.1l-1.9,12.4H64.1z"/>
		<path fill="#49505A" d="M62.8,129.3L61.4,119c0-5.4-0.9-9.7-2-9.7h-2.2c-1.1,0-2,4.3-2,9.7l-1.3,10.4H62.8z"/>
		<path fill="#31373E" d="M62.2,107.8c0,1.6-1.3,2.8-2.8,2.8h-3.2c-1.6,0-2.8-1.3-2.8-2.8l-2-7c0-1.6,1-2.6,2.6-2.6h7.1
			c1.6,0,3.1,1,3.1,2.6L62.2,107.8z"/>
		<path fill="#49505A" d="M61.8,106c0,1.1-0.9,2.1-2,2.1h-2.3c-1.1,0-2-0.9-2-2.1l-1.4-5.1c0-1.1,0.7-1.9,1.9-1.9H61
			c1.1,0,2.2,0.7,2.2,1.9L61.8,106z"/>
		<polygon fill="#F7F8FC" points="56.3,98.1 50.4,98.7 43.4,108.1 34.4,85.1 42.4,77.9 42.6,78.8 43.3,84.1 		"/>
		<polygon fill="#F7F8FC" points="58.9,98.1 63,98.7 71,108.9 80,85.1 74.3,79.5 72.8,78.4 71.9,84.1 		"/>
		<polygon fill="#E6E8EB" points="55.5,98.1 51.4,98.1 40.3,83.5 42,78.8 42.8,84.1 		"/>
		<polygon fill="#E6E8EB" points="59.5,98.1 66.4,96.1 74.5,83.7 73.1,79.1 72,84.3 		"/>
	</g>
	<g>
		<g>
			<g>
				<path fill="#0F303F" d="M31.8,22c-0.3,0-0.5,0-0.8-0.1c-0.4-0.2-0.7-0.5-0.8-0.8c-0.1-0.3-0.1-0.6,0.1-0.9
					c4.9-9,15.8-15.1,27.2-15.1h0.3c11.4,0,22.3,6.1,27.2,15.1c0.2,0.3,0.2,0.6,0.1,0.9c-0.1,0.3-0.4,0.6-0.8,0.8
					C84.1,22,83.9,22,83.6,22c-0.1,0-0.3,0-0.4,0c-0.6-0.1-1.1-0.4-1.4-0.9c-4.6-8-14-13.2-24-13.2h-0.1c-10,0-19.4,5.2-24,13.2
					C33.2,21.7,32.5,22,31.8,22z"/>
			</g>
		</g>
		<path fill="#2CC0D5" d="M30.8,50.5c-1.3-3.1-2.2-6.3-2.8-9.6c-1.8-8.5-0.2-17.7,4.2-25.3c5.7-9.7,15-15.2,25.5-15.3
			c10.5,0,19.8,5.6,25.5,15.3c3.8,6.5,6.6,13.7,4.2,25.2c-0.6,3.3-1.5,6.6-2.8,9.7c-0.4-0.1-0.9-0.2-1.4-0.4
			c1.3-3.1,2.1-6.4,2.6-9.7c1.5-8.3-0.2-17.3-4.6-24.5C75.8,7.1,67.2,2,57.7,2C48.1,2,39.5,7.1,34.1,16c-4.4,7.2-6.1,16.2-4.6,24.6
			c0.5,3.2,1.3,6.4,2.6,9.6C31.7,50.2,31.2,50.4,30.8,50.5z"/>
		<g>
			<path fill="#2CC0D5" d="M69.9,69.4c0.2,0.6-1.2,1.7-3.1,2.5c-1.9,0.8-3.7,0.6-4.1-0.5c-0.4-1.1,1-2.2,3.1-2.5
				C67.9,68.6,69.7,68.9,69.9,69.4z"/>
			<g>
				<path fill="#2CC0D5" d="M66.1,71.8l-0.7-1.5c0.1,0,8.9-3.5,10.9-4.4c1.6-0.8,2.2-2.4,2.2-2.4l3.5-10.3l1.7,0.5l-3.5,10.3
					c0,0.1-0.8,2.3-3.1,3.4C75.1,68.2,66.5,71.6,66.1,71.8L66.1,71.8z"/>
			</g>
		</g>
		<g>
			<path fill="#2CC0D5" d="M35.6,61c0.2,1.5-0.9,2.9-2.4,3l0,0c-1.5,0.2-2.8-0.9-3-2.4l-1.9-16.7c-0.2-1.5,0.9-2.9,2.4-3l0,0
				c1.5-0.2,2.8,0.9,3,2.4L35.6,61z"/>
			<path fill="#2CC0D5" d="M28.7,45.1c-2,1.6-3.1,5-2.7,8.8c0.4,3.8,2.3,6.8,4.6,8L28.7,45.1z"/>
			<path fill="#2CC0D5" d="M29.3,54.5c0.1,1.1-0.7,2.1-1.8,2.2l0,0c-1.1,0.1-2.1-0.7-2.2-1.8L25,51.7c-0.1-1.1,0.7-2.1,1.8-2.2l0,0
				c1.1-0.1,2.1,0.7,2.2,1.8L29.3,54.5z"/>
		</g>
		<g>
			<path fill="#2CC0D5" d="M78.7,61c-0.2,1.5,0.9,2.9,2.4,3l0,0c1.5,0.2,2.8-0.9,3-2.4l1.9-16.7c0.2-1.5-0.9-2.9-2.4-3l0,0
				c-1.5-0.2-2.8,0.9-3,2.4L78.7,61z"/>
			<path fill="#2CC0D5" d="M85.6,45.1c2,1.6,3.1,5,2.7,8.8c-0.4,3.8-2.3,6.8-4.6,8L85.6,45.1z"/>
			<path fill="#2CC0D5" d="M85,54.5c-0.1,1.1,0.7,2.1,1.8,2.2l0,0c1.1,0.1,2.1-0.7,2.2-1.8l0.4-3.3c0.1-1.1-0.7-2.1-1.8-2.2l0,0
				c-1.1-0.1-2.1,0.7-2.2,1.8L85,54.5z"/>
		</g>
	</g>
</g>
<path fill="#3B2416" d="M84.9,44.7c-0.9,1.9-5,4.5-4.6,7c0,0.1,0,0.1,0,0c-0.6-0.9,0.1-3.5,0-4.6c-0.1-1.8-0.5-3.5-0.9-5.3
	c-0.9-3.7-2-7.1-4.2-10.3c-2.6-3.8-5.5-6.2-10.5-6c-3,0.2-7.5,0.9-8,4.5c-2.6-6.1-13.6-6-17.2-1c-2.1,3-3,6.3-3.5,9.8
	c-0.3,2.1-0.4,4.3-0.8,6.4c-0.3,1.3-0.4,3.9-1.1,4.7c0,0-0.7-3.7-4.1-5.4c-3.3-1.7-0.3-18.2,0.4-20.6C33.8,12.2,44.1,5.4,55.9,4.1
	c5.9-0.6,11.8-2.2,17.8-1.7c-1.3,1-2.7,2.2-3.8,3.5c3.4-0.6,6.7-1.6,10.4-1.4c-1.9,1.4-1.1,3.6-2,5.7c4.3-0.3,7.4,5,9.6,8.1
	c-2-0.5-4-1.6-6-2.2C90.9,18.8,87.6,39,84.9,44.7z"/>
</svg>
