<?xml version="1.0" encoding="utf-8"?>
<!-- Generator: Adobe Illustrator 18.0.0, SVG Export Plug-In . SVG Version: 6.00 Build 0)  -->
<!DOCTYPE svg PUBLIC "-//W3C//DTD SVG 1.1//EN" "http://www.w3.org/Graphics/SVG/1.1/DTD/svg11.dtd">
<svg version="1.1" xmlns="http://www.w3.org/2000/svg" xmlns:xlink="http://www.w3.org/1999/xlink" x="0px" y="0px"
	 viewBox="0 0 150 150" enable-background="new 0 0 150 150" xml:space="preserve">
<g>
	<path fill="#222" d="M111.1,41.7L92.3,25.9c-6.9-6.9-18.1-6.9-25,0L53.7,39.5l57.6,57.6l10.2-10.2l3.4-3.4l26-26
		C135.8,60.5,122.1,50.9,111.1,41.7z"/>
	<path fill="#222" d="M37.5,80.7l9.6,9.6c-10.1,10.9-23.7,17.3-35.2,26.2c-4.4,2-17.7,18.1-6.9,29.3c11.3,10.8,27.3-2.5,29.3-6.9
		c8.9-11.5,15-25.2,26.2-35.2l9.6,9.6c6.9,6.9,18.1,6.9,25,0l12.6-12.6L50,43.2L37.5,55.8C30.6,62.7,30.6,73.8,37.5,80.7z"/>
</g>
</svg>
